<?xml version="1.0" standalone="no"?>
<svg viewBox="0 0 200 200" xmlns="http://www.w3.org/2000/svg">
  <path fill="#6DA0AD" d="M39,-67.2C50.3,-61,59.1,-50.1,68.7,-38.1C78.4,-26.1,88.9,-13.1,91.9,1.8C95,16.6,90.6,33.2,79.8,43.2C69,53.1,51.8,56.5,37.4,61.6C23,66.8,11.5,73.8,-0.4,74.5C-12.3,75.2,-24.5,69.5,-38.9,64.3C-53.3,59.1,-69.9,54.5,-74.9,43.9C-79.9,33.2,-73.4,16.6,-72.6,0.4C-71.9,-15.8,-76.9,-31.5,-73.4,-44.7C-69.9,-58,-57.9,-68.7,-44.2,-73.6C-30.6,-78.5,-15.3,-77.6,-0.7,-76.3C13.8,-75.1,27.7,-73.5,39,-67.2Z" transform="translate(100 100)" />
</svg>
