<svg xmlns="http://www.w3.org/2000/svg" fill="none" viewBox="0 0 43 35"><path fill="#fff" d="M7.053 14.94a.479.479 0 0 0 .34-.31c.138-.619.308-1.23.51-1.83a1.58 1.58 0 0 0 0-.94 7.17 7.17 0 0 1-.29-1.4.49.49 0 0 1 .06-.22c.08-.14.22-.16.39 0 .83.63 1.69 1.2 2.56 1.76.67.44 1.35.85 2 1.34 1.71 1.32 3.51 2.5 5.31 3.68 2.13 1.41 4.26 2.82 6.3 4.37.32.24.66.46 1 .68.72.5 1.41 1 2.11 1.58 1.58 1.22 3.13 2.48 4.66 3.76.417.377.957.59 1.52.6.237.02.464.11.65.26.51.39 1 .82 1.48 1.22a1 1 0 0 0 .9.21c.46-.11.92-.25 1.37-.39.22-.07.38-.64.24-.85a1.756 1.756 0 0 0-.28-.38 197.477 197.477 0 0 0-7.9-6.22c-1.35-1-2.67-2-4-3-.25-.19-.52-.37-.78-.56-.76-.59-1.66-1-2.37-1.62-.653-.601-1.34-1.162-2.06-1.68a68.05 68.05 0 0 1-2.65-2.05l-1.85-1.51-1.68-1.35c-1-.86-2.1-1.72-3.13-2.59a.86.86 0 0 1-.2-.4c0-.11.41-.17.67-.07l.67.27c.892.345 1.804.638 2.73.88.55.14.93-.47.82-.89a15.591 15.591 0 0 1-.08-1.86.75.75 0 0 0-.43-.52l-.23-.05a1 1 0 0 0-.24 0 6.75 6.75 0 0 1-3-.54c-1.56-.6-3.16-1.1-4.68-1.83-1.29-.62-2.63-1.15-4-1.7a3.58 3.58 0 0 0-.7-.16.9.9 0 0 0-.67.17.62.62 0 0 0-.18.15 1.29 1.29 0 0 1-1.2.63 1 1 0 0 0-.44.15.4.4 0 0 0-.22.4 1.22 1.22 0 0 0 .87 1.27c.15.05.304.09.46.12A2.31 2.31 0 0 1 3.163 5c.246.412.358.89.32 1.37a1.5 1.5 0 0 0 .19.92c.21.43.357.888.44 1.36.23 1.17.47 2.34.64 3.53.07.47.07.949 0 1.42a1.25 1.25 0 0 0 .31.88.69.69 0 0 0 .58.36c.396-.017.792.038 1.17.16a.649.649 0 0 0 .24-.06Zm18.23 5.83.13.11-.1-.14-.49-.49-.44-.09a.761.761 0 0 1-.52-.38.78.78 0 0 1-.49-.49 1.85 1.85 0 0 1-1-.42 2.309 2.309 0 0 1-.9-1 2.873 2.873 0 0 1-.69-.17c-.49-.26-1-.56-1.44-.86-1.83-1.14-3.53-2.47-5.39-3.57-.2-.12-.38-.29-.57-.43-1.11-.78-2.2-1.59-3.34-2.32a28.348 28.348 0 0 1-2.48-1.88 1.09 1.09 0 0 1-.31-.36A4.31 4.31 0 0 1 6.693 6a.58.58 0 0 1 .23-.38c.14-.09.3 0 .45.07.51.26.81.77 1.25 1.11.94.74 1.89 1.47 2.78 2.27 1.37 1.23 2.83 2.33 4.26 3.49.87.7 1.68 1.47 2.52 2.21.84.74 1.88 1.48 2.73 2.33.17.17.33.34.48.53a.914.914 0 0 1 .1.22c.224.025.444.086.65.18.531.297.963.746 1.24 1.29a.682.682 0 0 1 .48.49 1.191 1.191 0 0 1 1 .47l.42.49ZM7.513 4c.22 0 .45 0 .67.06.296.04.567.19.76.42.19.06.43 0 .54.22-.07 0-.14.06-.2.05a.4.4 0 0 1-.32-.31c-.3 0-.61 0-.91-.07a.7.7 0 0 1-.52-.4c-.22 0-.27-.09-.13-.14a1 1 0 0 1 .11.17Zm3.18 1.18.18-.09v.13l-.18-.04ZM38.163 33a1.35 1.35 0 0 0 .66 1.2 1.48 1.48 0 0 0 1.58.12c.42-.22.86-.42 1.28-.65a.76.76 0 0 0 .39-.57 5.468 5.468 0 0 1 .44-1.6 1.33 1.33 0 0 0-.2-1.35 3.624 3.624 0 0 0-.28-.39 1.72 1.72 0 0 0-2.34-.39 1.49 1.49 0 0 0-.76.88 45.073 45.073 0 0 1-.7 2.28 1.994 1.994 0 0 0-.07.47Zm2.4-2.48h.18v.12a.713.713 0 0 1-.18 0v-.12Z"/></svg>