<svg width="59" height="25" viewBox="0 0 59 25" fill="none" xmlns="http://www.w3.org/2000/svg">
<path d="M0.419211 3.70246C2.32624 2.80733 4.49727 2.49701 6.54095 2.0318C8.63902 1.55921 10.7371 1.08663 12.8352 0.614043C13.5266 0.455468 14.9281 2.0284 14.0406 2.34533C13.893 2.39617 13.7505 2.44525 13.6046 2.50117C13.5027 2.53623 13.3904 2.54083 13.2711 2.52513C11.4635 2.93175 9.65087 3.34013 7.8433 3.74676C6.64391 4.01779 5.4032 4.23491 4.19743 4.55355C19.5645 4.61112 35.4905 6.6226 48.5149 15.3568C52.06 17.7304 55.2839 20.544 58.0487 23.7939C58.2999 24.0935 58.5504 24.6886 58.0981 24.9296C57.6508 25.1687 57.015 24.6949 56.7483 24.3836C46.859 12.7472 31.4607 8.08399 16.7056 6.79364C12.8366 6.45642 8.95092 6.33508 5.06278 6.32246C6.25482 6.93976 7.44178 7.55882 8.63208 8.17104C9.01347 8.36905 9.51926 8.96145 9.36001 9.42512C9.18929 9.93816 8.55053 9.70385 8.2256 9.5375C6.72739 8.75874 5.23093 7.98506 3.73273 7.2063C2.43635 6.53407 1.0402 5.93594 0.301314 4.60046C0.150771 4.32864 0.0564535 3.87279 0.419211 3.70246Z" fill="black"/>
</svg>
