<svg width="173" height="65" viewBox="0 0 173 65" fill="none" xmlns="http://www.w3.org/2000/svg">
<path d="M142.19 47.3997C148.728 48.4502 144.514 36.6395 139.767 35.8624C93.5327 28.407 48.0868 16.5181 4.11237 0.398118C1.1518 -0.690898 0.419713 3.14387 0.787838 5.12274C1.37105 8.21094 3.62175 10.8749 6.53561 11.9354C50.5101 28.0554 95.9494 39.9305 142.19 47.3997ZM160.17 59.7264C163.442 58.9235 168.403 58.3577 170.66 55.5244C176.953 47.6172 163.811 38.7081 158.869 34.5948C150.936 27.9951 143.023 21.4031 135.09 14.8034C133.205 13.2464 130.255 12.7232 129.367 15.5737C128.464 18.4644 130.607 22.0512 132.745 23.8263C139.166 29.1653 145.594 34.5187 152.022 39.8715C154.712 42.1112 157.403 44.3508 160.094 46.5904C158.797 46.9433 157.293 47.6106 156.271 47.8688C141.065 51.6836 125.385 53.1153 109.746 52.327C106.664 52.1679 107.408 57.0798 108.013 58.6291C109.083 61.3556 111.406 63.8503 114.433 64.0013C124.685 64.5131 134.928 64.1051 145.091 62.6593C150.158 61.9258 155.198 60.9529 160.17 59.7264Z" fill="white"/>
</svg>
