<svg width="62" height="109" viewBox="0 0 62 109" fill="none" xmlns="http://www.w3.org/2000/svg">
<path d="M56.9802 95.1507C55.9954 98.0509 54.9904 100.997 53.7275 103.784C53.4794 104.341 53.1784 104.919 52.8359 105.467C52.7698 105.591 52.6946 105.711 52.6052 105.813C51.786 107.014 50.7071 108.011 49.2468 108.291C46.9295 108.726 44.8146 107.084 43.0741 105.806C40.6304 104.017 38.2283 102.16 35.878 100.259C31.0333 96.34 26.3796 92.1882 21.9485 87.8071C20.8008 86.6722 19.3261 84.3299 20.2998 82.6836C21.2736 81.0374 23.4975 82.2136 24.4807 83.1768C28.0778 86.7267 31.8029 90.1367 35.6682 93.3792C37.4725 94.8831 39.3154 96.3494 41.1878 97.7742C41.9895 98.3829 42.8004 98.9957 43.6103 99.5861C44.1563 99.9825 44.7023 100.379 45.2483 100.775C45.6266 101.327 45.9404 101.335 46.1854 100.809C46.2819 100.765 46.3692 100.716 46.4647 100.649C36.2845 67.0649 21.2225 35.0289 1.69111 5.85235C0.889773 4.6527 -0.339222 2.20085 1.21196 1.05249C2.67173 -0.0380537 4.90433 1.73316 5.68133 2.88913C24.4165 30.8793 39.3161 61.2885 49.8182 93.2646C50.4295 91.6211 51.0266 89.9604 51.5607 88.2936C53.1326 83.4108 54.3868 78.4303 55.3973 73.407C56.2326 69.269 62.2948 74.5843 61.6795 77.638C60.4907 83.5781 58.9212 89.4143 56.9802 95.1507Z" fill="#0D0E0F"/>
</svg>
