<svg width="56" height="14" viewBox="0 0 56 14" fill="none" xmlns="http://www.w3.org/2000/svg">
<path d="M55.1098 12.4829C54.0027 10.951 52.434 9.76308 51.0326 8.50906C49.5918 7.22559 48.1509 5.94211 46.7101 4.65864C46.2365 4.23345 44.4525 4.85814 45.011 5.49287C45.1048 5.59698 45.1953 5.69751 45.2854 5.80485C45.3501 5.87665 45.4362 5.92912 45.5367 5.96869C46.7783 7.07404 48.0231 8.18298 49.2647 9.28834C50.0879 10.0227 50.9671 10.7328 51.7747 11.5073C39.6907 4.86811 26.3182 -0.480924 12.2984 0.707653C8.48398 1.02827 4.73026 1.83382 1.14701 3.18145C0.81954 3.30728 0.364109 3.66535 0.614275 4.05117C0.861212 4.43341 1.56625 4.33816 1.91092 4.20983C14.733 -0.619864 28.8448 2.41875 40.9849 7.82438C44.1676 9.24267 47.2696 10.8377 50.3262 12.519C49.1223 12.4849 47.9216 12.4544 46.7212 12.4171C46.3358 12.4066 45.6812 12.6514 45.6045 13.0846C45.5153 13.5614 46.1185 13.6554 46.4458 13.6662C47.9602 13.7068 49.4711 13.7506 50.9855 13.7911C52.2952 13.8275 53.651 13.9655 54.8117 13.2389C55.0481 13.0911 55.3204 12.7744 55.1098 12.4829Z" fill="black"/>
</svg>
