<svg width="30" height="14" viewBox="0 0 30 14" fill="none" xmlns="http://www.w3.org/2000/svg">
<path d="M24.5742 3.06677C25.71 2.78085 25.1499 4.92742 24.3254 5.13785C16.2928 7.16449 8.46709 9.96002 0.966277 13.4787C0.461374 13.7163 0.273631 13.0521 0.307968 12.6977C0.363125 12.1445 0.718543 11.6407 1.2156 11.4089C8.7164 7.8902 16.5406 5.09594 24.5742 3.06677ZM27.5524 0.617376C28.1413 0.708449 29.0244 0.731861 29.4659 1.19638C30.6965 2.4928 28.518 4.26464 27.7105 5.06567C26.4143 6.351 25.1219 7.63533 23.8257 8.92065C23.5175 9.22401 23.0056 9.36093 22.8051 8.87238C22.6017 8.37696 22.9239 7.71217 23.2732 7.36646C24.3224 6.32661 25.3724 5.28385 26.4225 4.24147C26.8622 3.8053 27.3019 3.36921 27.7416 2.93304C27.5076 2.89085 27.2326 2.79681 27.0485 2.76705C24.31 2.32924 21.5242 2.31866 18.7803 2.6987C18.2404 2.77367 18.296 1.89767 18.3786 1.61512C18.5251 1.11814 18.8956 0.641992 19.4267 0.568674C21.2254 0.320444 23.0369 0.235057 24.85 0.333156C25.7542 0.384274 26.6574 0.477913 27.5524 0.617376Z" fill="black"/>
</svg>
