<svg width="512" height="512" viewBox="0 0 512 512" fill="none" xmlns="http://www.w3.org/2000/svg">
<path d="M312.639 28.3348C334.096 52.3668 354.697 62.6668 395.035 73.8248C404.475 77.2578 400.183 91.8488 389.885 89.2738C367.571 83.2658 350.405 76.3988 338.387 69.5328L354.697 90.9908C372.719 115.882 385.594 134.764 395.037 149.355C423.36 196.561 435.377 242.051 431.085 286.684C430.227 298.701 426.794 308.999 422.502 318.442C416.494 331.315 407.911 339.899 396.754 344.19C358.13 357.065 324.656 341.616 283.458 313.293L262.859 299.56C253.418 291.835 246.55 287.544 242.259 284.969L225.093 273.812C210.502 264.371 199.344 260.937 186.469 260.08C156.429 257.505 133.255 264.371 116.089 282.394C92.0573 307.286 90.3404 340.758 110.081 381.957C125.53 411.998 149.562 442.895 183.036 472.936C190.761 479.803 180.461 491.82 172.737 484.954C137.547 453.197 112.656 421.439 96.3484 388.825C72.3164 341.618 74.8903 302.137 104.073 272.096C125.531 250.637 152.996 241.196 188.186 244.629C201.919 245.487 215.651 249.779 231.959 259.221L251.7 271.239C255.992 273.813 263.715 278.964 273.157 286.688C282.598 293.553 289.465 297.844 292.04 300.419C330.663 327.885 360.704 339.042 391.603 328.743C398.469 326.168 404.478 321.017 408.769 311.577C412.204 303.851 414.778 295.269 415.635 284.97C419.07 244.629 407.91 201.714 381.303 157.941C372.72 144.208 359.846 125.325 341.823 100.435L318.649 69.5368C319.506 86.7028 315.214 115.885 307.491 156.225C304.917 166.525 289.467 163.091 292.042 152.792C292.042 151.934 292.9 147.642 293.759 141.634C297.192 128.759 296.334 130.476 298.908 119.318L300.625 108.16C302.342 85.8438 304.059 64.3868 300.625 42.9288L299.768 42.0708C298.91 40.3548 298.05 38.6378 298.91 36.0628V33.4878C298.91 30.9128 299.768 29.1958 301.485 27.4798C305.77 24.0428 309.205 24.0428 312.639 28.3348Z" fill="#2B70F9"/>
</svg>
