<svg width="56" height="76" viewBox="0 0 56 76" fill="none" xmlns="http://www.w3.org/2000/svg">
<path d="M53.4 65.4004C53.5 65.4004 53.5 65.4004 53.6 65.4004C53.4 63.6004 53.1 61.8004 52.9 59.9004C52.4 56.2004 52.5 51.7004 50.5 48.5004C49.7 47.2004 50.1 44.4004 50.2 42.9004C50.2 42.5004 50.7 39.2004 51 39.8004C52.2 41.5004 52.6 43.5004 52.9 45.6004C53.3 48.1004 53.6 50.6004 54 53.1004C54.8 58.6004 56 64.3004 55.7 69.9004C55.6 71.4004 55.8 74.9004 53.9 75.5004C52.1 76.2004 49.6 73.5004 48.4 72.5004C44.2 69.2004 40.1 65.9004 35.9 62.6004C34.9 61.8004 35.3 58.6004 35.3 57.5004C35.3 56.3004 35.4 55.1004 35.6 53.9004C35.6 53.8004 35.9 52.3004 36.1 52.4004C39.3 54.9004 42.5 57.4004 45.7 60.0004C46.1 60.3004 46.5 60.6004 46.9 60.9004C39 45.7004 28.4 32.1004 15.5 21.0004C10.9 17.0004 5.89996 13.3004 0.799965 10.0004C-3.51071e-05 9.50039 0.399963 6.00039 0.399963 5.20039C0.399963 4.80039 0.899962 0.400391 0.999962 0.400391C19.3 12.1004 34.6 28.4004 45.2 47.3004C48.3 52.8004 50.9 58.4004 53.1 64.3004C53.3 64.7004 53.4 65.0004 53.4 65.4004Z" fill="white"/>
</svg>
