<svg width="56" height="76" viewBox="0 0 56 76" fill="none" xmlns="http://www.w3.org/2000/svg">
<path d="M2.60004 65.4004C2.50004 65.4004 2.50004 65.4004 2.40004 65.4004C2.60004 63.6004 2.90004 61.8004 3.10004 59.9004C3.60004 56.2004 3.50004 51.7004 5.50004 48.5004C6.30004 47.2004 5.90004 44.4004 5.80004 42.9004C5.80004 42.5004 5.30004 39.2004 5.00004 39.8004C3.80004 41.5004 3.40004 43.5004 3.10004 45.6004C2.70004 48.1004 2.40004 50.6004 2.00004 53.1004C1.20004 58.6004 3.70629e-05 64.3004 0.300037 69.9004C0.400037 71.4004 0.200038 74.9004 2.10004 75.5004C3.90004 76.2004 6.40004 73.5004 7.60004 72.5004C11.8 69.2004 15.9 65.9004 20.1 62.6004C21.1 61.8004 20.7 58.6004 20.7 57.5004C20.7 56.3004 20.6 55.1004 20.4 53.9004C20.4 53.8004 20.1 52.3004 19.9 52.4004C16.7 54.9004 13.5 57.4004 10.3 60.0004C9.90004 60.3004 9.50004 60.6004 9.10004 60.9004C17 45.7004 27.6 32.1004 40.5 21.0004C45.1 17.0004 50.1 13.3004 55.2 10.0004C56 9.50039 55.6 6.00039 55.6 5.20039C55.6 4.80039 55.1 0.400391 55 0.400391C36.7 12.1004 21.4 28.4004 10.8 47.3004C7.70004 52.8004 5.10004 58.4004 2.90004 64.3004C2.70004 64.7004 2.60004 65.0004 2.60004 65.4004Z" fill="white"/>
</svg>
