<svg width="196" height="36" viewBox="0 0 196 36" fill="none" xmlns="http://www.w3.org/2000/svg">
<g clip-path="url(#clip0_2007_283)">
<path fill-rule="evenodd" clip-rule="evenodd" d="M113.226 12.8231C113.802 13.081 114.267 13.4358 114.619 13.8876L117.236 11.1051C116.484 10.4116 115.603 9.88726 114.595 9.53241C113.602 9.17755 112.626 9.00012 111.665 9.00012C110.865 9.00012 110.073 9.10504 109.288 9.31461C108.504 9.50824 107.799 9.82272 107.175 10.2583C106.55 10.6937 106.046 11.2504 105.662 11.9277C105.278 12.6053 105.086 13.4196 105.086 14.3713C105.086 15.1456 105.206 15.807 105.446 16.3554C105.702 16.8877 106.03 17.3475 106.43 17.7345C106.848 18.1067 107.318 18.4164 107.823 18.654C108.351 18.8958 108.888 19.1056 109.432 19.283C109.992 19.4604 110.489 19.6299 110.921 19.7911C111.369 19.9361 111.737 20.1056 112.025 20.2992C112.33 20.4767 112.562 20.6783 112.722 20.904C112.882 21.1298 112.962 21.4042 112.962 21.7269C112.962 22.0653 112.898 22.3559 112.77 22.5976C112.647 22.8341 112.465 23.0343 112.242 23.1785C112.034 23.3235 111.785 23.4284 111.497 23.4929C111.209 23.5572 110.913 23.5896 110.609 23.5896C109.936 23.5896 109.256 23.4204 108.568 23.0815C107.895 22.7267 107.351 22.2913 106.935 21.7752L104.245 24.5333C104.998 25.3235 105.942 25.9366 107.079 26.3722C108.209 26.7904 109.404 27.0034 110.609 27.0011C111.441 27.0011 112.25 26.8883 113.034 26.6625C113.818 26.4367 114.515 26.0898 115.123 25.6221C115.732 25.1541 116.212 24.5655 116.564 23.8558C116.932 23.1299 117.116 22.2751 117.116 21.291C117.116 20.4363 116.948 19.7266 116.612 19.1619C116.276 18.5813 115.851 18.0973 115.339 17.7103C114.82 17.3193 114.245 17.0093 113.634 16.7908C113.039 16.5594 112.439 16.3416 111.833 16.1376C111.433 16.0086 111.073 15.8877 110.753 15.7748C110.433 15.6457 110.152 15.5087 109.912 15.3634C109.688 15.2181 109.512 15.0489 109.384 14.8553C109.272 14.6616 109.216 14.4197 109.216 14.1294C109.216 13.7907 109.288 13.5166 109.432 13.3068C109.592 13.081 109.784 12.9036 110.008 12.7745C110.235 12.6284 110.488 12.5297 110.753 12.4842C111.03 12.4367 111.312 12.4124 111.593 12.4116C112.122 12.4116 112.666 12.5487 113.226 12.8231ZM130.782 18.6296L137.098 26.5172H142.453L134.697 17.2747L142.021 9.38712H136.882L130.806 16.3554H130.734V9.38712H126.7V26.5172H130.734V18.6296H130.782ZM157.359 17.7103C157.743 17.8878 158.047 18.1217 158.271 18.4118L160.552 15.7504C160.312 15.5087 160.024 15.2909 159.688 15.0972C159.368 14.8877 159.007 14.7182 158.607 14.5891C158.21 14.4403 157.8 14.327 157.383 14.2505C156.963 14.1695 156.537 14.1291 156.11 14.1296C155.181 14.1296 154.309 14.2826 153.492 14.5891C152.676 14.8797 151.964 15.3068 151.355 15.8715C150.763 16.42 150.291 17.0893 149.939 17.8798C149.602 18.67 149.434 19.5571 149.434 20.5412C149.434 21.5412 149.602 22.4363 149.939 23.2268C150.291 24.017 150.763 24.6946 151.355 25.259C151.964 25.8075 152.676 26.2269 153.492 26.5172C154.309 26.8075 155.189 26.9528 156.134 26.9528C157.014 26.9528 157.847 26.8155 158.631 26.5414C159.416 26.2673 160.056 25.8882 160.552 25.4043L158.367 22.7187C158.127 23.009 157.807 23.2348 157.407 23.396C157.031 23.5397 156.632 23.6135 156.23 23.6138C155.798 23.6138 155.405 23.5331 155.053 23.3721C154.719 23.2123 154.418 22.9906 154.165 22.7187C153.923 22.4245 153.735 22.0883 153.612 21.7266C153.484 21.3556 153.42 20.9604 153.42 20.5412C153.42 20.1218 153.484 19.7266 153.612 19.3555C153.757 18.9845 153.949 18.662 154.189 18.3876C154.424 18.101 154.719 17.8698 155.053 17.7103C155.389 17.5329 155.766 17.4442 156.182 17.4442C156.582 17.4442 156.974 17.5329 157.359 17.7103ZM174.791 20.4926C174.791 21.4767 174.614 22.3718 174.262 23.1782C173.91 23.9687 173.43 24.6462 172.821 25.2107C172.213 25.7591 171.509 26.1865 170.708 26.493C169.908 26.7995 169.051 26.9528 168.139 26.9528C167.243 26.9528 166.386 26.7995 165.57 26.493C164.769 26.1865 164.065 25.7591 163.456 25.2107C162.864 24.6462 162.392 23.9687 162.04 23.1782C161.687 22.3718 161.511 21.4767 161.511 20.4926C161.511 19.5088 161.687 18.6216 162.04 17.8312C162.392 17.041 162.864 16.3714 163.456 15.8229C164.065 15.2747 164.769 14.8553 165.57 14.5649C166.386 14.2744 167.243 14.1294 168.139 14.1294C169.051 14.1294 169.908 14.2746 170.708 14.5649C171.509 14.8555 172.213 15.2747 172.821 15.8232C173.43 16.3716 173.91 17.041 174.262 17.8314C174.614 18.6216 174.791 19.5085 174.791 20.4926ZM170.996 20.4926C170.996 20.1056 170.932 19.7263 170.804 19.3555C170.676 18.9845 170.492 18.662 170.252 18.3876C170.012 18.0973 169.716 17.8636 169.364 17.6861C169.011 17.5087 168.603 17.42 168.139 17.42C167.675 17.42 167.267 17.5087 166.914 17.6861C166.562 17.8636 166.266 18.0976 166.026 18.3876C165.802 18.662 165.626 18.9845 165.497 19.3555C165.386 19.7241 165.329 20.1073 165.329 20.4926C165.329 20.8799 165.385 21.2589 165.497 21.6299C165.624 21.9974 165.81 22.3409 166.05 22.6459C166.29 22.9365 166.586 23.1702 166.938 23.3477C167.29 23.5251 167.699 23.6138 168.163 23.6138C168.627 23.6138 169.035 23.5251 169.388 23.3477C169.74 23.1702 170.036 22.9362 170.276 22.6459C170.514 22.3437 170.693 21.9991 170.804 21.6299C170.932 21.2589 170.996 20.8799 170.996 20.4926ZM192.047 26.5655V19.9845C192.047 19.6458 192.023 19.3234 191.975 19.0169C191.927 18.6942 191.838 18.42 191.71 18.194C191.584 17.9713 191.401 17.7873 191.18 17.6617C190.971 17.5167 190.69 17.4442 190.336 17.4442C189.998 17.4442 189.701 17.5167 189.444 17.662C189.199 17.8112 188.986 18.0087 188.818 18.2426C188.657 18.4843 188.536 18.7667 188.456 19.0894C188.374 19.4054 188.334 19.7307 188.335 20.0573V26.5655H184.383V19.6942C184.383 19.0007 184.246 18.4522 183.973 18.049C183.7 17.6458 183.266 17.4442 182.671 17.4442C182.045 17.4442 181.555 17.6941 181.201 18.1943C180.863 18.6941 180.695 19.3072 180.695 20.0328V26.5655H176.718V14.5166H180.55V16.186H180.598C180.75 15.9186 180.927 15.6673 181.129 15.4359C181.354 15.1942 181.619 14.9844 181.924 14.8069C182.24 14.6087 182.58 14.454 182.936 14.3471C183.322 14.2343 183.74 14.178 184.19 14.178C185.057 14.178 185.789 14.3554 186.383 14.7102C186.994 15.0651 187.468 15.5729 187.805 16.2343C188.207 15.6054 188.721 15.1055 189.348 14.7344C189.974 14.3633 190.738 14.178 191.638 14.178C192.457 14.178 193.14 14.331 193.686 14.6375C194.249 14.928 194.699 15.315 195.036 15.799C195.373 16.2667 195.615 16.799 195.759 17.3958C195.92 17.9765 196 18.5491 196 19.1136V26.5655H192.047ZM148.382 24.1461C148.382 24.8373 148.145 25.4135 147.669 25.8743C147.209 26.3351 146.655 26.5655 146.005 26.5655C145.677 26.5667 145.354 26.4995 145.054 26.3681C144.771 26.2545 144.513 26.0868 144.293 25.8743C144.073 25.6635 143.896 25.4121 143.77 25.1338C143.643 24.8373 143.58 24.5166 143.58 24.1708C143.58 23.8416 143.643 23.5289 143.77 23.2327C143.891 22.9445 144.069 22.6841 144.293 22.4672C144.511 22.2398 144.769 22.0556 145.054 21.9241C145.354 21.7927 145.677 21.7255 146.005 21.7266C146.655 21.7266 147.209 21.957 147.669 22.4178C148.145 22.8786 148.382 23.4549 148.382 24.1461ZM119.569 26.5655V9.43572H123.699V26.5655H119.569ZM99.4691 26.5655L98.1433 23.2024H91.5378L90.2842 26.5655H85.7999L92.9601 9.43572H96.962L104.05 26.5655H99.4691ZM94.8887 14.0085L92.7189 19.8878H97.0102L94.8887 14.0085ZM74.521 9.43572V26.5655H85.2308V22.9604H78.6513V9.43547L74.521 9.43572Z" fill="#125FA4"/>
<path fill-rule="evenodd" clip-rule="evenodd" d="M61.25 17.9781C34.1132 56.7555 10.3625 20.8861 10.3625 20.8861C31.5611 42.933 50.9304 17.9781 50.9304 17.9781H61.25ZM0 18.0223C27.1368 -20.7554 50.8875 15.1143 50.8875 15.1143C29.6889 -6.93241 10.3196 18.0223 10.3196 18.0223H0Z" fill="#797D82"/>
<path fill-rule="evenodd" clip-rule="evenodd" d="M35.2 10.2704C35.7379 10.8384 36.0377 11.5934 36.0374 12.3785C36.0374 14.071 34.6751 15.4436 32.9953 15.4436C31.3152 15.4436 29.9532 14.071 29.9532 12.3785C29.9532 10.6957 31.2989 9.33081 32.9654 9.31435C32.2024 9.10594 31.4154 9.00027 30.6249 9.00012C25.6917 9.00012 21.6929 13.0301 21.6929 18.0004C21.6929 22.971 25.6917 27.0001 30.6249 27.0001C35.5578 27.0001 39.5575 22.9707 39.5575 18.0004C39.5575 14.7149 37.8093 11.8413 35.2 10.2704Z" fill="#125FA4"/>
</g>
<defs>
<clipPath id="clip0_2007_283">
<rect y="0.00012207" width="196" height="36" rx="18" fill="white"/>
</clipPath>
</defs>
</svg>
