<svg width="52" height="54" viewBox="0 0 52 54" fill="none" xmlns="http://www.w3.org/2000/svg">
<path d="M35.765 0C35.68 0.00194883 35.5972 0.0273562 35.5257 0.0734154C35.4543 0.119475 35.3969 0.184393 35.36 0.261C35.2475 0.49725 35.3375 0.7785 35.5738 0.891C36.7055 1.4535 36.6065 2.448 36.5143 2.8485C36.3343 3.6405 35.6345 4.47525 34.7143 4.47525C33.5398 4.47525 32.9773 3.8835 32.3473 2.79675C32.0368 2.26575 31.1705 0.97425 29.843 0.58725C29.1524 0.3813 28.4161 0.385353 27.7278 0.598895C27.0395 0.812437 26.4303 1.22582 25.9775 1.7865C25.5249 1.22625 24.916 0.813137 24.2282 0.599613C23.5403 0.386088 22.8046 0.381785 22.1143 0.58725C20.7868 0.97425 19.9205 2.26575 19.6078 2.79675C18.9778 3.8835 18.4153 4.47525 17.2633 4.47525H17.2475C16.8321 4.47759 16.4277 4.34184 16.0978 4.08933C15.7679 3.83683 15.5312 3.48187 15.425 3.08025C15.335 2.75175 15.146 1.63575 16.4195 0.87525C16.4723 0.843565 16.5184 0.801763 16.555 0.752241C16.5917 0.70272 16.6182 0.646453 16.633 0.586669C16.6478 0.526884 16.6507 0.464758 16.6415 0.403853C16.6323 0.342948 16.6111 0.284462 16.5793 0.23175C16.5476 0.178925 16.5058 0.132874 16.4562 0.0962394C16.4067 0.0596048 16.3505 0.0331068 16.2907 0.0182651C16.2309 0.0034235 16.1688 0.000530257 16.1079 0.00975133C16.047 0.0189724 15.9885 0.0401264 15.9358 0.072C14.4688 0.945 14.2415 2.3265 14.516 3.32775C14.849 4.56525 15.9493 5.4 17.2385 5.409H17.261C19.0318 5.409 19.8215 4.29975 20.42 3.267C20.618 2.92725 21.347 1.7865 22.3798 1.4895C23.6555 1.1205 25.0123 1.71225 25.5455 2.87325C25.5826 2.95154 25.6403 3.01825 25.7125 3.06621C25.7846 3.11418 25.8685 3.14159 25.955 3.1455H26.009C26.0956 3.14183 26.1796 3.11452 26.2518 3.06653C26.3239 3.01853 26.3816 2.95169 26.4185 2.87325C26.9495 1.71225 28.3085 1.11825 29.5843 1.49175C30.617 1.7955 31.346 2.92725 31.5418 3.26925C32.1425 4.30875 32.9323 5.40675 34.7233 5.40675C35.801 5.40675 37.0768 4.6035 37.4323 3.06225C37.7293 1.78875 37.1848 0.63225 35.9923 0.04725C35.9206 0.0137054 35.8418 -0.00174615 35.7628 0.00225L35.765 0ZM7.59726 0.20925C7.47233 0.209249 7.35249 0.258721 7.26394 0.346846C7.1754 0.43497 7.12535 0.554575 7.12476 0.6795C7.12476 0.93825 7.33176 1.152 7.59726 1.152H13.4225C13.5474 1.15141 13.667 1.10136 13.7552 1.01281C13.8433 0.924268 13.8928 0.804426 13.8928 0.6795C13.8928 0.554185 13.843 0.434003 13.7544 0.345392C13.6658 0.256781 13.5456 0.207 13.4203 0.207L7.59726 0.20925ZM38.789 0.20925C38.6645 0.209842 38.5452 0.259576 38.4571 0.347637C38.3691 0.435698 38.3193 0.554964 38.3188 0.6795C38.3188 0.93825 38.5325 1.152 38.7913 1.152H44.612C44.7373 1.152 44.8575 1.10222 44.9461 1.01361C45.0347 0.924997 45.0845 0.804815 45.0845 0.6795C45.0845 0.554185 45.0347 0.434003 44.9461 0.345392C44.8575 0.256781 44.7373 0.207 44.612 0.207L38.789 0.20925ZM5.53401 0.216C5.41026 0.218358 5.29238 0.269177 5.2057 0.357534C5.11903 0.445891 5.07049 0.564729 5.07051 0.6885C5.07169 0.813033 5.122 0.932063 5.21048 1.0197C5.29896 1.10734 5.41847 1.15651 5.54301 1.1565C5.66754 1.15591 5.78681 1.10617 5.87487 1.01811C5.96293 0.930052 6.01267 0.810786 6.01326 0.68625C6.01266 0.561326 5.96262 0.441721 5.87407 0.353596C5.78553 0.265471 5.66568 0.215999 5.54076 0.216C5.53851 0.215984 5.53626 0.215984 5.53401 0.216ZM46.574 0.216C46.4503 0.218358 46.3324 0.269177 46.2457 0.357534C46.159 0.445891 46.1105 0.564729 46.1105 0.6885C46.1117 0.812645 46.1617 0.931337 46.2497 1.01891C46.3377 1.10649 46.4566 1.15591 46.5808 1.1565C46.7057 1.1565 46.8255 1.10703 46.9141 1.0189C47.0026 0.93078 47.0527 0.811175 47.0533 0.68625C47.0527 0.561326 47.0026 0.441721 46.9141 0.353596C46.8255 0.265471 46.7057 0.215999 46.5808 0.216C46.5778 0.215971 46.577 0.215971 46.574 0.216ZM2.94651 0.216C2.82654 0.223474 2.71399 0.276605 2.63197 0.36448C2.54995 0.452355 2.5047 0.5683 2.50551 0.6885V5.6745C2.50551 5.93325 2.71026 6.147 2.96901 6.147C3.09432 6.147 3.21451 6.09722 3.30312 6.00861C3.39173 5.92 3.44151 5.79981 3.44151 5.6745V1.93275L5.72526 4.527C5.81054 4.60494 5.92152 4.64875 6.03704 4.65009C6.15256 4.65143 6.26453 4.6102 6.3516 4.53426C6.43866 4.45833 6.49472 4.353 6.50909 4.23837C6.52346 4.12374 6.49513 4.00783 6.42951 3.91275L3.32451 0.37575C3.27749 0.323255 3.21938 0.281886 3.15439 0.254643C3.0894 0.227401 3.01915 0.214969 2.94876 0.21825L2.94651 0.216ZM49.0985 0.216C49.0277 0.212217 48.957 0.224409 48.8916 0.251673C48.8261 0.278937 48.7677 0.320574 48.7205 0.3735L45.6155 3.906C45.5744 3.95188 45.5429 4.00552 45.5229 4.06377C45.5029 4.12201 45.4947 4.18367 45.4989 4.24512C45.5031 4.30656 45.5196 4.36655 45.5473 4.42153C45.5751 4.47651 45.6136 4.52538 45.6605 4.56525C45.7055 4.60675 45.7585 4.63862 45.8163 4.65891C45.8741 4.67921 45.9354 4.68751 45.9964 4.6833C46.0575 4.67908 46.1171 4.66245 46.1715 4.63442C46.226 4.60638 46.2741 4.56753 46.313 4.52025L48.6013 1.92375V5.67C48.6013 5.9265 48.815 6.14025 49.0738 6.14025C49.1987 6.13966 49.3183 6.08961 49.4064 6.00107C49.4945 5.91252 49.544 5.79268 49.544 5.66775V0.6885C49.5442 0.56855 49.4983 0.453115 49.4158 0.366026C49.3333 0.278937 49.2205 0.226843 49.1008 0.2205L49.0985 0.216ZM17.5288 1.1835C17.2776 1.18306 17.0319 1.25716 16.8229 1.39643C16.6139 1.5357 16.4509 1.73386 16.3545 1.96583C16.2582 2.19781 16.2329 2.45315 16.2818 2.69952C16.3307 2.94589 16.4516 3.17221 16.6292 3.34982C16.8068 3.52742 17.0331 3.64833 17.2795 3.69722C17.5259 3.74612 17.7812 3.7208 18.0132 3.62447C18.2451 3.52814 18.4433 3.36514 18.5826 3.15611C18.7218 2.94708 18.796 2.70143 18.7955 2.45025C18.7949 2.11447 18.6613 1.79261 18.4238 1.55518C18.1864 1.31775 17.8645 1.18409 17.5288 1.1835ZM34.6085 1.1835C34.2856 1.20275 33.9822 1.3446 33.7604 1.58005C33.5386 1.81549 33.415 2.12677 33.415 2.45025C33.415 2.77373 33.5386 3.08501 33.7604 3.32045C33.9822 3.5559 34.2856 3.69775 34.6085 3.717C34.926 3.69021 35.2219 3.54515 35.4376 3.31055C35.6532 3.07594 35.7729 2.76891 35.7729 2.45025C35.7729 2.13159 35.6532 1.82456 35.4376 1.58995C35.2219 1.35535 34.926 1.21029 34.6085 1.1835ZM42.686 1.6875C42.5758 1.6829 42.4674 1.71741 42.3801 1.78493C42.2929 1.85244 42.2323 1.94863 42.209 2.0565C42.0335 2.853 42.1325 3.48975 42.5105 3.96C43.0573 4.644 43.9393 4.6665 44.0383 4.6665C44.1427 4.66616 44.2441 4.63103 44.3264 4.56665C44.4087 4.50228 44.4673 4.41233 44.4928 4.311C44.6683 3.6585 44.5985 3.08025 44.2813 2.61C43.7728 1.8495 42.839 1.7055 42.731 1.692C42.7161 1.6898 42.7011 1.68829 42.686 1.6875ZM9.30726 1.6875C9.29151 1.6875 9.27801 1.6875 9.26226 1.692C9.15651 1.7055 8.22951 1.8495 7.71426 2.61C7.40151 3.08025 7.32726 3.6495 7.49376 4.31775C7.52021 4.41875 7.57892 4.50835 7.66095 4.57292C7.74299 4.6375 7.84387 4.67351 7.94826 4.6755C8.04726 4.6755 8.92701 4.653 9.47376 3.969C9.85401 3.4965 9.95301 2.853 9.77751 2.06325C9.75584 1.95531 9.69681 1.85847 9.61081 1.78974C9.5248 1.72102 9.41732 1.68482 9.30726 1.6875ZM17.5288 2.115C17.6171 2.11618 17.7015 2.15195 17.7637 2.21463C17.826 2.27731 17.8612 2.3619 17.8618 2.45025C17.8606 2.5382 17.8251 2.62223 17.7629 2.68443C17.7007 2.74663 17.6167 2.78208 17.5288 2.78325C17.4408 2.78208 17.3568 2.74663 17.2946 2.68443C17.2324 2.62223 17.1969 2.5382 17.1958 2.45025C17.1969 2.3623 17.2324 2.27827 17.2946 2.21607C17.3568 2.15387 17.4408 2.11617 17.5288 2.115ZM34.6085 2.115C34.6972 2.11559 34.7822 2.1511 34.8449 2.21384C34.9077 2.27659 34.9432 2.36152 34.9438 2.45025C34.9426 2.53859 34.9068 2.62295 34.8441 2.68521C34.7815 2.74747 34.6969 2.78267 34.6085 2.78325C34.5206 2.78208 34.4365 2.74663 34.3743 2.68443C34.3121 2.62223 34.2767 2.5382 34.2755 2.45025C34.2767 2.3623 34.3121 2.27827 34.3743 2.21607C34.4365 2.15387 34.5206 2.11617 34.6085 2.115ZM8.92251 2.7765C8.9358 2.99108 8.87372 3.20357 8.74701 3.37725C8.64128 3.50332 8.50264 3.59757 8.34651 3.6495C8.34254 3.46941 8.3927 3.29227 8.49051 3.141C8.60186 2.98538 8.75037 2.86008 8.92251 2.7765ZM43.0775 2.7765C43.235 2.853 43.4015 2.9745 43.5095 3.141C43.5995 3.285 43.6535 3.4515 43.6535 3.6495C43.4995 3.59592 43.3627 3.50188 43.2575 3.37725C43.1295 3.20399 43.0659 2.99158 43.0775 2.7765ZM28.2433 3.08025C27.9074 3.07565 27.5733 3.12893 27.2555 3.23775C27.198 3.259 27.1452 3.29146 27.1003 3.33326C27.0554 3.37506 27.0192 3.42536 26.9939 3.48124C26.9685 3.53713 26.9546 3.59748 26.9527 3.65881C26.9509 3.72013 26.9613 3.78121 26.9833 3.8385C27.0264 3.95436 27.1132 4.0487 27.2251 4.10127C27.337 4.15385 27.465 4.16049 27.5818 4.11975C27.6583 4.0905 29.4808 3.483 30.8758 5.65425C30.9658 5.78925 31.1188 5.86575 31.2718 5.86575C31.355 5.86575 31.445 5.84325 31.5215 5.78925C31.6256 5.7227 31.6991 5.61771 31.7261 5.49717C31.7531 5.37662 31.7313 5.2503 31.6655 5.14575C30.6193 3.52575 29.258 3.08025 28.2455 3.08025H28.2433ZM23.768 3.087C23.5708 3.08334 23.3736 3.09614 23.1785 3.12525C22.391 3.23775 21.2593 3.68775 20.3165 5.1525C20.2833 5.20427 20.2607 5.26211 20.2499 5.32268C20.2392 5.38325 20.2405 5.44535 20.2539 5.50539C20.2673 5.56543 20.2925 5.62222 20.3279 5.67249C20.3634 5.72275 20.4084 5.7655 20.4605 5.79825C20.5348 5.84882 20.6227 5.87551 20.7125 5.87475C20.7906 5.87409 20.8674 5.85425 20.936 5.81698C21.0047 5.77971 21.0631 5.72615 21.1063 5.661C22.4968 3.48975 24.317 4.09725 24.4003 4.12875C24.4582 4.14987 24.5197 4.15935 24.5812 4.15663C24.6428 4.15392 24.7032 4.13907 24.7591 4.11294C24.8149 4.0868 24.865 4.0499 24.9065 4.00435C24.948 3.9588 24.9801 3.9055 25.001 3.8475C25.0439 3.72962 25.0384 3.59957 24.9857 3.48574C24.933 3.37191 24.8374 3.28357 24.7198 3.24C24.668 3.222 24.3058 3.09375 23.768 3.087ZM25.964 3.4515C25.8407 3.45444 25.7233 3.50551 25.6372 3.59381C25.551 3.6821 25.5027 3.80061 25.5028 3.924C25.5034 4.04854 25.5531 4.1678 25.6411 4.25586C25.7292 4.34392 25.8485 4.39366 25.973 4.39425C26.0979 4.39366 26.2175 4.34361 26.3057 4.25506C26.3938 4.16652 26.4433 4.04668 26.4433 3.92175C26.4427 3.79683 26.3926 3.67722 26.3041 3.5891C26.2155 3.50097 26.0957 3.4515 25.9708 3.4515C25.9685 3.45148 25.9663 3.45148 25.964 3.4515ZM41.2168 4.13325C40.7668 4.1175 40.193 4.25025 39.4843 4.68225C39.0531 4.95086 38.6511 5.26381 38.285 5.616C37.1308 6.633 36.1678 6.6105 36.1138 6.6105C36.0061 6.60565 35.9001 6.63809 35.8136 6.70234C35.7271 6.76659 35.6655 6.85872 35.639 6.96317C35.6126 7.06762 35.623 7.17799 35.6685 7.27566C35.714 7.37332 35.7918 7.4523 35.8888 7.49925C36.6313 7.848 37.3063 7.98525 37.9138 7.98525C39.0748 7.98525 40.0018 7.47675 40.6475 6.9435C41.678 6.093 42.2113 5.02425 42.2338 4.97925C42.2863 4.87379 42.2967 4.75229 42.2628 4.63945C42.229 4.5266 42.1534 4.43088 42.0515 4.37175C41.7971 4.22296 41.5091 4.14092 41.2145 4.13325H41.2168ZM10.9903 4.13775C10.6963 4.14585 10.4088 4.22621 10.1533 4.37175C10.0514 4.43088 9.97581 4.5266 9.94196 4.63945C9.9081 4.75229 9.91849 4.87379 9.97101 4.97925C9.99351 5.02425 10.5245 6.093 11.5573 6.9435C12.203 7.47675 13.121 7.98525 14.2888 7.98525C14.9053 7.98525 15.5803 7.848 16.316 7.49925C16.4145 7.45288 16.4936 7.37347 16.5397 7.27483C16.5857 7.17618 16.5957 7.06452 16.568 6.95925C16.542 6.85348 16.4799 6.76011 16.3924 6.69521C16.3049 6.63032 16.1975 6.59798 16.0888 6.60375C16.0505 6.60375 15.0785 6.633 13.9243 5.61375C13.5582 5.26153 13.1562 4.94857 12.725 4.68C12.0163 4.2525 11.4425 4.122 10.9925 4.1355L10.9903 4.13775ZM26 4.7565C25.4083 4.7565 24.9448 5.37075 24.5893 6.183C20.816 6.3495 16.1248 8.78625 15.9268 8.88525C12.716 10.503 9.40626 7.44975 8.56251 6.5925C8.43426 6.4485 8.34426 6.36525 8.33751 6.3495C8.25124 6.26673 8.13657 6.22012 8.01703 6.21922C7.89748 6.21832 7.78212 6.2632 7.69462 6.34466C7.60712 6.42612 7.5541 6.53797 7.54646 6.65728C7.53882 6.77658 7.57712 6.89429 7.65351 6.98625L8.23851 7.64775C8.57826 8.073 9.01026 8.68725 9.37476 9.42525C10.286 11.2703 10.3018 12.9465 9.42876 14.4202C8.37135 15.7248 7.48376 17.1582 6.78726 18.6863C4.24476 19.5143 3.33351 17.9662 3.29526 17.8965C3.29526 17.8875 3.28851 17.8898 3.28851 17.8808C2.80926 17.0775 2.99826 15.9908 3.72726 15.3C4.28976 14.769 5.26851 14.724 5.57226 14.724H5.57901C6.59826 14.724 7.64451 14.5642 8.32176 13.3965C8.5742 12.9647 8.67666 12.4615 8.61316 11.9654C8.54967 11.4692 8.3238 11.0081 7.97076 10.6538C7.23501 9.90225 6.12576 9.774 5.14026 10.3207C5.08601 10.3501 5.03817 10.39 4.99954 10.4381C4.96091 10.4862 4.93227 10.5415 4.9153 10.6008C4.89833 10.6601 4.89336 10.7222 4.90069 10.7835C4.90803 10.8447 4.92751 10.9039 4.95801 10.9575C4.98737 11.0117 5.02727 11.0596 5.07536 11.0982C5.12346 11.1368 5.17877 11.1655 5.23808 11.1825C5.29738 11.1994 5.35948 11.2044 5.42072 11.1971C5.48197 11.1897 5.54114 11.1702 5.59476 11.1398C6.22476 10.7978 6.86376 10.8585 7.30476 11.3152C7.51106 11.525 7.64265 11.7968 7.67924 12.0888C7.71583 12.3807 7.6554 12.6766 7.50726 12.9308C7.09101 13.6508 6.52176 13.797 5.61051 13.797H5.57901C5.16276 13.797 4.19076 13.8577 3.41676 14.3595V7.50375C3.41676 7.37844 3.36698 7.25825 3.27837 7.16964C3.18976 7.08103 3.06957 7.03125 2.94426 7.03125C2.81973 7.03244 2.7007 7.08274 2.61306 7.17122C2.52542 7.25971 2.47625 7.37921 2.47626 7.50375V15.399C1.95876 16.326 1.92951 17.4555 2.46051 18.369C2.51226 18.4657 2.83851 19.0125 3.56751 19.422C3.98601 19.6582 4.58676 19.8788 5.38326 19.8788C5.67126 19.8788 5.99076 19.8473 6.33051 19.7798C5.51151 21.9803 5.10201 24.3472 5.08626 26.9302V27.0135C5.10041 31.7128 6.73062 36.2641 9.70326 39.9038C12.3505 43.1409 15.8935 45.5256 19.889 46.7595C18.3503 46.5308 16.7785 46.7218 15.3393 47.3123C13.9002 47.9028 12.6472 48.8708 11.7125 50.1143C11.5846 49.9455 11.4398 49.7902 11.2805 49.6507C11.5368 49.4976 11.7492 49.2808 11.897 49.0214C12.0448 48.762 12.1231 48.4688 12.1243 48.1703C12.1235 47.9013 12.0599 47.6363 11.9385 47.3963C11.8171 47.1563 11.6414 46.948 11.4252 46.788C11.209 46.628 10.9585 46.5207 10.6935 46.4748C10.4285 46.4288 10.1564 46.4454 9.89901 46.5233C9.87889 46.2385 9.81278 45.9589 9.70326 45.6953C8.97426 44.064 7.64451 43.7895 6.45201 43.6613C6.05826 43.6163 4.73076 43.4183 4.03101 42.5993C3.15126 41.6048 3.13551 40.1243 3.97926 39.168C4.02283 39.1227 4.05682 39.069 4.07919 39.0102C4.10156 38.9515 4.11186 38.8888 4.10946 38.8259C4.10707 38.7631 4.09204 38.7014 4.06527 38.6445C4.03849 38.5876 4.00052 38.5367 3.95363 38.4948C3.90674 38.4529 3.85188 38.4208 3.79234 38.4006C3.7328 38.3804 3.66979 38.3724 3.60707 38.377C3.54436 38.3817 3.48323 38.399 3.42734 38.4278C3.37145 38.4566 3.32193 38.4964 3.28176 38.5448C2.13426 39.8498 2.14101 41.8612 3.29526 43.2292C3.44601 43.4092 3.62151 43.5623 3.80376 43.6995C3.26771 43.8432 2.7684 44.0994 2.33901 44.451C1.22301 45.369 0.651508 46.9035 0.638008 48.9893C0.61955 49.0837 0.630087 49.1815 0.668235 49.2698C0.706383 49.3582 0.770358 49.4329 0.851759 49.4843C0.926009 49.5293 1.00926 49.5518 1.09251 49.5518C1.12401 49.5518 1.16001 49.545 1.19151 49.536H1.20051C1.21401 49.536 1.22301 49.5293 1.23876 49.5203C1.26458 49.5135 1.2895 49.5037 1.31301 49.491C1.32201 49.491 1.32201 49.4843 1.32876 49.4843C1.40568 49.4398 1.47057 49.3773 1.51776 49.302C1.70001 49.0658 2.45151 48.7688 3.07476 48.6405C5.51151 48.1095 6.02226 46.4625 5.94351 45.6705C5.93789 45.6092 5.92026 45.5496 5.89161 45.4951C5.86296 45.4406 5.82386 45.3923 5.77653 45.3529C5.72921 45.3135 5.6746 45.2838 5.6158 45.2656C5.55701 45.2473 5.49519 45.2408 5.43388 45.2464C5.37257 45.252 5.31297 45.2696 5.25847 45.2983C5.20398 45.3269 5.15566 45.366 5.11627 45.4133C5.07689 45.4607 5.04721 45.5153 5.02894 45.5741C5.01066 45.6329 5.00414 45.6947 5.00976 45.756C5.00976 45.7628 5.01876 45.9 4.97376 46.1047C4.85901 46.5772 4.44051 47.3872 2.87676 47.7292H2.86326C2.43784 47.82 2.02309 47.955 1.62576 48.132C1.76076 46.782 2.19501 45.792 2.93076 45.18C4.06251 44.2372 5.55651 44.505 5.57226 44.5118C5.61996 44.5194 5.66856 44.5194 5.71626 44.5118C5.92204 44.5556 6.13011 44.5879 6.33951 44.6085C7.59276 44.7458 8.35776 45.0202 8.83701 46.089C9.20826 46.9327 8.73126 47.9047 8.08551 48.3907C7.75926 48.6405 6.88626 49.1332 5.90751 48.33C5.81099 48.2613 5.69211 48.2316 5.57463 48.2468C5.45716 48.262 5.34974 48.321 5.27385 48.4119C5.19796 48.5029 5.1592 48.6191 5.1653 48.7374C5.1714 48.8557 5.22192 48.9673 5.30676 49.05C5.74776 49.4145 6.24051 49.6282 6.74901 49.689C6.2303 50.1239 5.79366 50.6482 5.45976 51.237C4.82076 52.3395 4.30551 52.929 3.44601 52.938V49.6507C3.44601 49.5258 3.39654 49.406 3.30841 49.3174C3.22029 49.2289 3.10068 49.1788 2.97576 49.1783C2.85083 49.1788 2.73123 49.2289 2.6431 49.3174C2.55498 49.406 2.50551 49.5258 2.50551 49.6507V53.4622C2.50551 53.6512 2.61801 53.811 2.78001 53.8875C2.86326 53.9483 2.96001 53.9932 3.06801 53.9932H13.9985C14.077 53.993 14.1542 53.9733 14.2233 53.936C14.2924 53.8987 14.3512 53.845 14.3945 53.7795C14.4589 53.718 14.5056 53.6403 14.5295 53.5545C14.7276 52.7828 15.1635 52.0931 15.7756 51.5831C16.3877 51.0731 17.1448 50.7688 17.9395 50.7133C18.7343 50.6578 19.5264 50.8539 20.2034 51.2738C20.8804 51.6937 21.4081 52.3161 21.7115 53.0528H20.7103C20.5069 52.5533 20.1591 52.1258 19.7113 51.8252C19.2636 51.5246 18.7363 51.3644 18.197 51.3653C16.9753 51.3653 15.8975 52.1932 15.5713 53.37C15.5387 53.4899 15.5546 53.6179 15.6157 53.7261C15.6768 53.8343 15.778 53.9141 15.8975 53.9482C16.0171 53.9802 16.1445 53.9639 16.2522 53.9029C16.3599 53.8418 16.4394 53.741 16.4735 53.622C16.5616 53.2968 16.7402 53.0034 16.9886 52.7757C17.2369 52.548 17.5447 52.3955 17.8763 52.3359C18.2079 52.2763 18.5496 52.312 18.8616 52.4389C19.1737 52.5658 19.4434 52.7787 19.6393 53.0528H19.367C19.2421 53.0527 19.1222 53.1022 19.0337 53.1903C18.9451 53.2785 18.8951 53.3981 18.8945 53.523C18.8945 53.7795 19.1083 53.9932 19.367 53.9932H20.3143L20.3683 54C20.3908 54 20.4133 54 20.429 53.9932H22.3123C22.4372 53.9927 22.5568 53.9426 22.6449 53.8541C22.733 53.7655 22.7825 53.6457 22.7825 53.5208C22.7825 53.4983 22.7825 53.4757 22.7735 53.4532C22.7824 53.3881 22.7801 53.3219 22.7668 53.2575C22.4973 52.2735 21.9175 51.4028 21.1136 50.7747C20.3096 50.1467 19.3244 49.7949 18.3045 49.7716C17.2846 49.7484 16.2844 50.0549 15.4526 50.6457C14.6209 51.2364 14.002 52.0798 13.688 53.0505H11.2355C11.4335 52.4205 11.699 51.8355 12.032 51.291C12.0545 51.2595 12.0703 51.2303 12.0928 51.201C12.6528 50.3222 13.3848 49.5657 14.2448 48.9772C15.1048 48.3886 16.075 47.9801 17.0969 47.7762C18.1189 47.5723 19.1716 47.5772 20.1916 47.7907C21.2116 48.0042 22.1778 48.4219 23.0323 49.0185C23.0666 49.043 23.1046 49.062 23.1448 49.0748C23.3428 49.3088 23.5408 49.5585 23.7298 49.8173L23.8603 49.9995C23.8153 50.9648 24.3373 51.9728 25.424 53.0055C25.4623 53.118 25.5005 53.2193 25.523 53.2935V53.3925C25.523 53.6512 25.7345 53.865 25.9933 53.865C26.0966 53.8658 26.1971 53.8315 26.2785 53.7677C26.3598 53.704 26.4171 53.6145 26.441 53.514C26.441 53.5073 26.5085 53.28 26.6458 52.8997C27.6245 51.9435 28.1105 51.0097 28.1038 50.1052C28.3713 49.7196 28.6574 49.3472 28.961 48.9893C30.2467 48.0955 31.776 47.6187 33.3418 47.6235C34.9887 47.6213 36.5928 48.1475 37.9184 49.1248C39.244 50.1021 40.2211 51.4789 40.706 53.0528H38.2535C37.9482 52.0971 37.3467 51.2634 36.5361 50.6724C35.7254 50.0814 34.7477 49.7638 33.7445 49.7655C31.6115 49.7655 29.735 51.1988 29.1748 53.2575C29.1526 53.3309 29.1526 53.4091 29.1748 53.4825V53.523C29.1754 53.6475 29.2251 53.7668 29.3131 53.8549C29.4012 53.9429 29.5205 53.9927 29.645 53.9932H33.758C33.8833 53.9932 34.0035 53.9435 34.0921 53.8549C34.1807 53.7662 34.2305 53.6461 34.2305 53.5208C34.2293 53.3962 34.179 53.2772 34.0905 53.1895C34.0021 53.1019 33.8825 53.0527 33.758 53.0528H32.264C32.461 52.7768 32.7327 52.5629 33.0471 52.4361C33.3615 52.3093 33.7056 52.275 34.0389 52.3372C34.3722 52.3993 34.6808 52.5554 34.9284 52.787C35.176 53.0186 35.3523 53.3161 35.4365 53.6445C35.4517 53.7039 35.4785 53.7598 35.5154 53.8088C35.5523 53.8578 35.5986 53.8989 35.6516 53.9299C35.7045 53.9609 35.7631 53.9811 35.8239 53.9892C35.8847 53.9974 35.9465 53.9934 36.0058 53.9775C36.1262 53.9467 36.2296 53.8696 36.2936 53.7631C36.3576 53.6565 36.3771 53.529 36.3478 53.4082C36.2038 52.8567 35.8903 52.3643 35.4516 52.0004C35.0128 51.6365 34.4709 51.4195 33.9023 51.38C33.3336 51.3405 32.7669 51.4804 32.2821 51.7801C31.7972 52.0798 31.4186 52.5242 31.1998 53.0505H30.2525C30.5575 52.3159 31.0855 51.6956 31.762 51.2773C32.4385 50.859 33.2294 50.6638 34.0228 50.7192C34.8163 50.7747 35.5723 51.078 36.1841 51.5863C36.7958 52.0947 37.2325 52.7824 37.4323 53.5523C37.4413 53.5905 37.4638 53.6287 37.4773 53.6647C37.5072 53.7605 37.567 53.8441 37.648 53.9033C37.7291 53.9624 37.8269 53.994 37.9273 53.9932H49.0648C49.1893 53.9921 49.3083 53.9418 49.396 53.8533C49.4836 53.7648 49.5328 53.6453 49.5328 53.5208V53.37C49.5418 53.325 49.5418 53.28 49.5418 53.235C49.5418 53.226 49.5418 53.217 49.5328 53.2103V49.6507C49.5328 49.5258 49.4833 49.406 49.3952 49.3174C49.307 49.2289 49.1874 49.1788 49.0625 49.1783C48.9376 49.1788 48.818 49.2289 48.7299 49.3174C48.6417 49.406 48.5923 49.5258 48.5923 49.6507V52.839C47.8048 52.7782 47.3098 52.1933 46.7023 51.147C46.3797 50.5913 45.9694 50.0913 45.4873 49.6665C45.9058 49.5765 46.3063 49.3762 46.6798 49.0657C46.7646 48.9831 46.8151 48.8715 46.8212 48.7532C46.8273 48.6349 46.7886 48.5186 46.7127 48.4277C46.6368 48.3367 46.5294 48.2778 46.4119 48.2626C46.2944 48.2474 46.1755 48.2771 46.079 48.3457C45.107 49.149 44.234 48.6562 43.901 48.4065C43.2553 47.9205 42.776 46.9395 43.1495 46.1047C43.6265 45.036 44.3938 44.7548 45.647 44.6243C45.8045 44.6108 46.0183 44.5793 46.2703 44.5275C46.3203 44.5343 46.371 44.5343 46.421 44.5275C46.4368 44.5275 47.9173 44.253 49.0535 45.1935C49.7983 45.81 50.2393 46.7955 50.3675 48.1545C49.9683 47.9745 49.5513 47.8373 49.1233 47.745H49.1075C47.5528 47.403 47.1275 46.5975 47.015 46.1272C46.9821 46.0141 46.9684 45.8962 46.9745 45.7785C46.9855 45.6547 46.9469 45.5315 46.8672 45.4362C46.7874 45.3408 46.6731 45.281 46.5493 45.27C46.4254 45.259 46.3023 45.2976 46.2069 45.3773C46.1116 45.4571 46.0518 45.5714 46.0408 45.6953C45.9665 46.4918 46.475 48.132 48.9208 48.6652C49.5508 48.8002 50.345 49.1107 50.4913 49.347C50.5145 49.3788 50.5401 49.4089 50.5678 49.437L50.5903 49.4528C50.6128 49.4685 50.6353 49.491 50.6578 49.4978C50.6645 49.5045 50.6803 49.5135 50.687 49.5135C50.7095 49.5293 50.732 49.536 50.7545 49.545L50.786 49.5518C50.8175 49.5585 50.8535 49.5675 50.8918 49.5675C50.9233 49.5675 50.9458 49.5675 50.975 49.5608C50.984 49.5608 50.9908 49.5608 50.9975 49.554C51.02 49.5473 51.0425 49.5382 51.074 49.5315H51.083C51.1055 49.5247 51.1213 49.509 51.1438 49.5L51.1505 49.4932C51.1663 49.4865 51.182 49.4707 51.1888 49.464C51.1955 49.4572 51.2113 49.4482 51.2203 49.4325L51.2495 49.4033C51.2563 49.3875 51.272 49.3808 51.2788 49.365L51.3013 49.3268L51.3238 49.2885C51.3328 49.2728 51.3328 49.257 51.3395 49.2435C51.3485 49.2277 51.3485 49.212 51.3553 49.1985C51.3553 49.1827 51.3643 49.167 51.3643 49.1603C51.3643 49.1445 51.371 49.1288 51.371 49.1063V49.0995C51.3643 46.9508 50.786 45.396 49.6543 44.4622C49.2274 44.1081 48.7282 43.8516 48.1918 43.7108C48.3718 43.5735 48.5473 43.4137 48.698 43.2382C49.8613 41.8725 49.868 39.8632 48.7138 38.556C48.6734 38.5095 48.6242 38.4716 48.569 38.4445C48.5137 38.4173 48.4536 38.4015 48.3922 38.3979C48.3308 38.3944 48.2692 38.4031 48.2112 38.4237C48.1532 38.4443 48.1 38.4763 48.0545 38.5177C48.008 38.5581 47.9701 38.6073 47.943 38.6626C47.9158 38.7178 47.9 38.7779 47.8964 38.8393C47.8929 38.9007 47.9016 38.9623 47.9222 39.0203C47.9428 39.0783 47.9748 39.1316 48.0163 39.177C48.8578 40.1355 48.842 41.6137 47.9848 42.633C47.2873 43.452 45.9598 43.65 45.5638 43.695C44.3713 43.8233 43.0348 44.0977 42.3148 45.729C42.2023 45.9787 42.1325 46.26 42.1168 46.5637C41.8581 46.4805 41.5834 46.4595 41.3151 46.5025C41.0468 46.5454 40.7924 46.6511 40.5727 46.811C40.353 46.9709 40.1741 47.1804 40.0507 47.4224C39.9272 47.6645 39.8626 47.9323 39.8623 48.204C39.8623 48.8565 40.2268 49.4257 40.7668 49.7137C40.6021 49.8615 40.4514 50.0242 40.3168 50.1998C39.3908 48.9517 38.1458 47.9759 36.7127 47.375C35.2795 46.774 33.711 46.5699 32.1718 46.7842C34.8348 45.9591 37.3087 44.6163 39.4517 42.8329C41.5946 41.0494 43.3643 38.8604 44.6593 36.3915C46.1682 33.5084 46.9528 30.3013 46.9453 27.0472V26.9483C46.9234 24.5014 46.4315 22.0815 45.4963 19.8203C45.8068 19.881 46.1038 19.9035 46.3693 19.9035C48.3335 19.9035 49.1998 18.5535 49.292 18.3938C49.4962 18.0392 49.6237 17.6457 49.6664 17.2388C49.709 16.8318 49.6658 16.4204 49.5395 16.0312C49.5485 16.0088 49.5485 15.9795 49.5485 15.948V7.3935C49.5485 7.26857 49.499 7.14873 49.4109 7.06019C49.3228 6.97164 49.2032 6.92159 49.0783 6.921C48.9529 6.921 48.8328 6.97078 48.7441 7.05939C48.6555 7.148 48.6058 7.26819 48.6058 7.3935V14.58C47.8115 13.8893 46.6573 13.815 46.178 13.815C45.2533 13.8217 44.675 13.6755 44.2498 12.9488C44.0993 12.6943 44.0377 12.397 44.0748 12.1037C44.1119 11.8104 44.2454 11.5378 44.4545 11.3287C44.9045 10.8742 45.5413 10.8158 46.1645 11.1555C46.2719 11.203 46.3931 11.2086 46.5043 11.1712C46.6156 11.1338 46.7089 11.0562 46.7658 10.9536C46.8228 10.851 46.8393 10.7307 46.8121 10.6166C46.785 10.5024 46.7161 10.4025 46.619 10.3365C45.6313 9.78975 44.5243 9.927 43.7863 10.6695C43.0595 11.4143 42.9223 12.5145 43.4375 13.41C44.1125 14.5733 45.1385 14.7375 46.1488 14.7375H46.187C46.4908 14.7375 47.4695 14.7848 48.032 15.3158C48.7588 16.0065 48.95 17.0933 48.4708 17.8965C48.4708 17.8965 48.464 17.9055 48.464 17.9122C48.4258 17.9797 47.5213 19.5142 45.0013 18.7087C44.3206 17.2734 43.4967 15.9104 42.542 14.6407L42.1708 14.922L42.542 14.634L42.3913 14.436C40.7735 11.7247 42.641 8.84025 43.613 7.6185L44.1598 6.99525C44.2361 6.90329 44.2745 6.78558 44.2668 6.66628C44.2592 6.54697 44.2061 6.43512 44.1186 6.35366C44.0311 6.2722 43.9158 6.22732 43.7962 6.22822C43.6767 6.22912 43.562 6.27573 43.4758 6.3585C43.3978 6.43742 43.322 6.51845 43.2485 6.6015C42.4048 7.45875 39.1108 10.494 35.9135 8.91L35.8235 8.84925L35.7785 8.81775C32.9165 7.2765 30.0928 6.38775 27.3973 6.16275C27.0485 5.364 26.5873 4.7565 26.0023 4.7565H26ZM6.85476 4.92975C6.7314 4.93269 6.61409 4.98376 6.5279 5.07206C6.44171 5.16035 6.39347 5.27886 6.39351 5.40225C6.3941 5.52679 6.44383 5.64605 6.53189 5.73411C6.61996 5.82217 6.73922 5.87191 6.86376 5.8725C6.98868 5.8719 7.10829 5.82186 7.19641 5.73332C7.28454 5.64477 7.33401 5.52493 7.33401 5.4C7.33341 5.27508 7.28337 5.15547 7.19482 5.06735C7.10628 4.97922 6.98643 4.92975 6.86151 4.92975C6.85926 4.92973 6.85701 4.92973 6.85476 4.92975ZM44.9023 4.92975C44.7785 4.93211 44.6606 4.98293 44.574 5.07128C44.4873 5.15964 44.4387 5.27848 44.4388 5.40225C44.4394 5.52717 44.4894 5.64678 44.5779 5.7349C44.6665 5.82303 44.7863 5.8725 44.9113 5.8725C45.0362 5.8719 45.1558 5.82186 45.2439 5.73332C45.332 5.64477 45.3815 5.52493 45.3815 5.4C45.3809 5.27508 45.3309 5.15547 45.2423 5.06735C45.1538 4.97922 45.0339 4.92975 44.909 4.92975C44.9068 4.92973 44.9045 4.92973 44.9023 4.92975ZM11.114 5.067C11.9015 5.10525 12.914 5.93325 13.2695 6.28875L13.292 6.31125C13.6498 6.63075 14.0075 6.867 14.3338 7.04025C12.6913 7.056 11.6068 5.80275 11.1163 5.067H11.114ZM41.093 5.067C40.8003 5.49564 40.4523 5.88374 40.058 6.22125C39.3763 6.78375 38.6473 7.05375 37.8755 7.04025C38.1905 6.87375 38.5505 6.63075 38.9128 6.31125L38.9353 6.28875C39.293 5.93325 40.3033 5.10525 41.093 5.067ZM25.9775 5.70375C26.396 5.8635 27.0418 7.83 27.2375 9.1665C27.2758 9.432 27.2983 9.675 27.2983 9.873C27.2983 10.2251 27.1584 10.5627 26.9094 10.8117C26.6605 11.0606 26.3228 11.2005 25.9708 11.2005C25.6187 11.2005 25.281 11.0606 25.0321 10.8117C24.7831 10.5627 24.6433 10.2251 24.6433 9.873C24.6533 9.63946 24.6758 9.40663 24.7108 9.1755C24.9133 7.7535 25.613 5.85675 25.9775 5.70375ZM6.08751 6.408L6.04251 6.41025C5.93676 6.426 5.00976 6.57 4.49451 7.32825C4.18401 7.80075 4.10751 8.37 4.27401 9.03825C4.30098 9.1392 4.3602 9.22856 4.44266 9.29274C4.52511 9.35691 4.62628 9.39239 4.73076 9.39375C4.82751 9.39375 5.70951 9.37125 6.25626 8.68725C6.63426 8.217 6.73326 7.57125 6.56001 6.78375C6.53912 6.675 6.47999 6.57733 6.39332 6.5084C6.30665 6.43948 6.19817 6.40386 6.08751 6.408ZM45.9733 6.408C45.8629 6.40276 45.7543 6.4367 45.6666 6.50381C45.5789 6.57093 45.5178 6.6669 45.494 6.77475C45.3208 7.57125 45.4198 8.21025 45.7978 8.6805C46.3603 9.3645 47.24 9.387 47.3323 9.39375C47.4367 9.39341 47.5381 9.35828 47.6204 9.2939C47.7027 9.22953 47.7613 9.13958 47.7868 9.03825C47.9555 8.37 47.8858 7.80075 47.5685 7.32825C47.06 6.57 46.1263 6.426 46.0183 6.41025C46.0033 6.40879 45.9883 6.40804 45.9733 6.408ZM27.7258 7.13925C30.1603 7.41375 32.7028 8.2485 35.2925 9.63675L35.3915 9.70425L35.4433 9.73575C36.1948 10.116 37.0003 10.305 37.835 10.305C38.717 10.305 39.635 10.0935 40.5598 9.66825L38.1298 12.438C37.8686 12.3154 37.5806 12.2609 37.2927 12.2793C37.0047 12.2978 36.7261 12.3888 36.4828 12.5437C34.041 10.7582 31.1828 9.62727 28.1803 9.25875C28.0786 8.54229 27.9259 7.834 27.7235 7.13925H27.7258ZM24.2248 7.155C23.9975 7.92 23.8445 8.71875 23.768 9.2655C20.721 9.64661 17.8251 10.8127 15.3643 12.6495C15.1236 12.5067 14.8513 12.4257 14.5718 12.4139C14.2922 12.4022 14.014 12.4599 13.7623 12.582L11.2153 9.675C12.149 10.0935 13.0603 10.305 13.94 10.305C14.7731 10.306 15.5947 10.111 16.3385 9.73575C16.3835 9.71325 20.717 7.45875 24.2248 7.155ZM5.70726 7.497C5.70726 7.7445 5.64876 7.94475 5.53401 8.0955C5.42796 8.22274 5.28846 8.31782 5.13126 8.37C5.13126 8.172 5.18526 7.9965 5.27751 7.8615C5.38886 7.70588 5.53737 7.58058 5.70951 7.497H5.70726ZM46.367 7.497C46.54 7.58027 46.6893 7.70559 46.8013 7.8615C46.8913 8.0055 46.9453 8.172 46.9453 8.37C46.791 8.31579 46.6542 8.22096 46.5493 8.0955C46.4218 7.92285 46.3559 7.71132 46.367 7.497ZM23.7545 10.2128C23.8188 10.6723 24.0245 11.1004 24.343 11.4378C24.6614 11.7752 25.077 12.0053 25.532 12.096V12.4222C22.262 12.5248 19.1217 13.7256 16.6175 15.831L15.9493 15.066C16.1164 14.8109 16.2122 14.5157 16.2268 14.2111C16.2415 13.9065 16.1744 13.6035 16.0325 13.3335C18.3048 11.6634 20.9599 10.5904 23.7545 10.2128ZM28.2163 10.2128C30.9776 10.5785 33.6048 11.6246 35.8618 13.257C35.7312 13.5213 35.6717 13.8151 35.689 14.1094C35.7064 14.4037 35.8 14.6884 35.9608 14.9355L32.1808 19.2465C32.1393 19.2924 32.1075 19.3462 32.0873 19.4047C32.0671 19.4631 32.0588 19.5251 32.063 19.5868C32.0672 19.6485 32.0838 19.7087 32.1118 19.7639C32.1397 19.8191 32.1785 19.8681 32.2258 19.908C32.3207 19.9898 32.4441 20.0309 32.5691 20.0225C32.6942 20.0141 32.8109 19.9568 32.894 19.863L36.6673 15.5587C36.9328 15.6902 37.2283 15.7497 37.524 15.7311C37.8198 15.7126 38.1055 15.6167 38.3525 15.453C40.7614 18.0287 42.3035 21.2939 42.7625 24.7905C42.3613 24.9032 41.9988 25.1244 41.715 25.4296C41.4312 25.7348 41.237 26.1124 41.1538 26.5207L40.6138 26.5432C40.5007 23.0721 39.1523 19.7554 36.8113 17.19C36.7261 17.1052 36.6115 17.0565 36.4913 17.0539C36.3712 17.0513 36.2546 17.095 36.1658 17.176C36.077 17.257 36.0228 17.369 36.0143 17.4889C36.0059 17.6088 36.0439 17.7274 36.1205 17.82C38.176 20.0721 39.4187 22.9473 39.6508 25.9875L34.6018 20.9565C34.5125 20.8782 34.3969 20.8367 34.2782 20.8405C34.1596 20.8442 34.0468 20.893 33.9627 20.9768C33.8786 21.0606 33.8295 21.1732 33.8253 21.2918C33.8212 21.4105 33.8623 21.5263 33.9403 21.6158L39.3628 27.036L26 40.3965L12.6395 27.036L18.0148 21.6607C18.0928 21.5713 18.1338 21.4555 18.1297 21.3368C18.1255 21.2182 18.0764 21.1056 17.9923 21.0218C17.9082 20.938 17.7954 20.8892 17.6768 20.8855C17.5581 20.8817 17.4425 20.9232 17.3533 21.0015L12.3673 25.9875C12.625 22.6339 14.1111 19.4932 16.541 17.1675L18.8945 19.854C18.9845 19.962 19.115 20.0138 19.2523 20.0138C19.3656 20.0131 19.4753 19.9734 19.5628 19.9013C19.6092 19.8608 19.6473 19.8116 19.6747 19.7565C19.7022 19.7013 19.7184 19.6413 19.7226 19.5798C19.7268 19.5184 19.7188 19.4567 19.6991 19.3983C19.6794 19.34 19.6483 19.2861 19.6078 19.2397L17.2475 16.5443C19.4267 14.7163 22.1243 13.6177 24.9605 13.4032L20.9533 17.37C20.8885 17.4357 20.8446 17.5191 20.8271 17.6096C20.8096 17.7002 20.8192 17.7939 20.8548 17.879C20.8904 17.9641 20.9503 18.0368 21.0271 18.088C21.1039 18.1391 21.194 18.1664 21.2863 18.1665C21.4078 18.1665 21.5225 18.1215 21.6215 18.0315L26.0225 13.6733L30.2975 17.9483C30.387 18.0263 30.5028 18.0673 30.6214 18.0632C30.7401 18.059 30.8527 18.0099 30.9365 17.9258C31.0203 17.8417 31.069 17.7289 31.0728 17.6103C31.0765 17.4916 31.0351 17.376 30.9568 17.2868L27.071 13.401C29.4729 13.5795 31.7841 14.3941 33.767 15.7613C33.8699 15.8308 33.9961 15.8571 34.1182 15.8344C34.2403 15.8116 34.3486 15.7417 34.4195 15.6398C34.4891 15.5369 34.5154 15.4107 34.4926 15.2886C34.4699 15.1665 34.4 15.0582 34.298 14.9872C31.9977 13.4017 29.2877 12.5156 26.495 12.4357V12.105C27.3725 11.8913 28.0813 11.1375 28.2163 10.2128ZM10.7788 10.5953L13.058 13.1962C12.8997 13.4369 12.8047 13.7136 12.7819 14.0007C12.7591 14.2879 12.8092 14.5761 12.9275 14.8387C10.3846 17.571 8.76472 21.0334 8.29701 24.7365C7.62201 24.8423 6.72651 25.1303 6.05151 25.5623C6.31701 21.5573 7.66026 18.0855 10.151 15.003L10.187 14.9512C10.9768 13.6462 11.1748 12.1568 10.781 10.593L10.7788 10.5953ZM41.0075 10.602C40.598 12.1657 40.796 13.6462 41.5858 14.958L41.7838 15.2235C43.505 17.5252 45.5255 21.0847 45.9125 25.5172C45.2348 25.0987 44.4766 24.8274 43.6873 24.7208C43.2125 20.9745 41.5595 17.4761 38.9668 14.7307C39.0952 14.4668 39.1524 14.1739 39.1327 13.881C39.113 13.5882 39.017 13.3056 38.8543 13.0612L41.0075 10.602ZM37.358 13.2278H37.4548C37.8058 13.2503 38.1005 13.5 38.177 13.8353C38.1838 13.8803 38.1928 13.9185 38.1928 13.9635C38.1838 13.9725 38.1928 13.986 38.1928 14.0018C38.1907 14.1662 38.1376 14.3259 38.0409 14.4589C37.9442 14.5919 37.8086 14.6916 37.6528 14.7442C37.5741 14.7694 37.4923 14.7831 37.4098 14.7848H37.3355C37.1418 14.7678 36.9615 14.6785 36.8306 14.5347C36.6997 14.3908 36.6277 14.203 36.629 14.0085C36.6285 13.8099 36.7036 13.6185 36.8389 13.4731C36.9743 13.3277 37.1598 13.2392 37.358 13.2255V13.2278ZM14.4395 13.356H14.4913C14.849 13.356 15.1528 13.599 15.2428 13.9342C15.2585 14.0017 15.2743 14.0692 15.2743 14.1367C15.2742 14.3329 15.1999 14.5217 15.0664 14.6652C14.9328 14.8088 14.7498 14.8965 14.5543 14.9107H14.4913C14.2865 14.909 14.0907 14.8269 13.9459 14.6821C13.8011 14.5373 13.719 14.3415 13.7173 14.1367C13.7173 14.1007 13.7173 14.0692 13.7263 14.0332C13.7263 14.0107 13.733 13.995 13.733 13.9725C13.7674 13.8068 13.8551 13.6568 13.9827 13.5455C14.1102 13.4342 14.2706 13.3677 14.4395 13.356ZM5.33826 15.4665C4.96739 15.4665 4.6117 15.6138 4.34946 15.8761C4.08721 16.1383 3.93988 16.494 3.93988 16.8649C3.93988 17.2357 4.08721 17.5914 4.34946 17.8537C4.6117 18.1159 4.96739 18.2632 5.33826 18.2632C5.70913 18.2632 6.06481 18.1159 6.32706 17.8537C6.5893 17.5914 6.73663 17.2357 6.73663 16.8649C6.73663 16.494 6.5893 16.1383 6.32706 15.8761C6.06481 15.6138 5.70913 15.4665 5.33826 15.4665ZM46.5043 15.4665C46.3206 15.4666 46.1388 15.503 45.9692 15.5734C45.7996 15.6438 45.6455 15.7469 45.5158 15.8769C45.386 16.0068 45.2832 16.1611 45.213 16.3308C45.1429 16.5005 45.1069 16.6824 45.107 16.866C45.1072 17.0496 45.1435 17.2314 45.2139 17.401C45.2843 17.5707 45.3874 17.7247 45.5174 17.8545C45.6473 17.9842 45.8016 18.0871 45.9713 18.1572C46.141 18.2274 46.3229 18.2634 46.5065 18.2632C46.8774 18.2632 47.2331 18.1159 47.4953 17.8537C47.7576 17.5914 47.9049 17.2357 47.9049 16.8649C47.9049 16.494 47.7576 16.1383 47.4953 15.8761C47.2331 15.6138 46.8751 15.4665 46.5043 15.4665ZM13.535 15.5655C13.7848 15.7287 14.0721 15.8255 14.3698 15.8467C14.6674 15.868 14.9655 15.813 15.236 15.687L15.911 16.461C13.1424 19.0968 11.5185 22.7138 11.3885 26.5343L11.006 26.5117C10.9177 26.0773 10.704 25.6782 10.3913 25.3639C10.0785 25.0495 9.68055 24.8338 9.24651 24.7432C9.70094 21.3166 11.1981 18.1125 13.535 15.5655ZM14.0368 16.3935C13.9754 16.3939 13.9148 16.4068 13.8587 16.4316C13.8026 16.4564 13.7521 16.4924 13.7105 16.5375C13.589 16.659 10.7945 19.5593 10.3175 23.6588C10.3049 23.7824 10.3415 23.9061 10.4194 24.003C10.4973 24.0998 10.6103 24.1621 10.7338 24.1762H10.7878C10.9034 24.1773 11.0153 24.1349 11.1011 24.0574C11.187 23.9799 11.2405 23.8729 11.2513 23.7578C11.6833 19.9845 14.3563 17.2125 14.3788 17.19C14.4645 17.1012 14.5117 16.982 14.5101 16.8585C14.5084 16.735 14.4579 16.6172 14.3698 16.5308C14.326 16.4873 14.274 16.453 14.2168 16.4298C14.1596 16.4067 14.0984 16.3951 14.0368 16.3958V16.3935ZM37.9993 16.398C37.9071 16.3976 37.8169 16.4245 37.7399 16.4751C37.6629 16.5258 37.6026 16.5981 37.5666 16.683C37.5305 16.7678 37.5203 16.8614 37.5373 16.952C37.5542 17.0426 37.5975 17.1262 37.6618 17.1922C37.691 17.2215 40.3618 19.9913 40.796 23.7645C40.8082 23.8791 40.8622 23.9851 40.9477 24.0624C41.0333 24.1396 41.1443 24.1825 41.2595 24.183H41.3113C41.3728 24.1758 41.4323 24.1564 41.4863 24.1261C41.5403 24.0958 41.5878 24.0552 41.6261 24.0064C41.6643 23.9577 41.6926 23.9019 41.7092 23.8423C41.7259 23.7826 41.7305 23.7202 41.723 23.6588C41.2505 19.5593 38.4493 16.659 38.3278 16.5375C38.2404 16.4502 38.1227 16.4002 37.9993 16.398ZM5.33826 16.4093C5.58576 16.4093 5.79276 16.6117 5.79276 16.8637C5.79276 16.9845 5.74495 17.1003 5.65978 17.1859C5.5746 17.2715 5.45901 17.3199 5.33826 17.3205C5.21712 17.3205 5.10094 17.2724 5.01529 17.1867C4.92963 17.1011 4.88151 16.9849 4.88151 16.8637C4.88151 16.614 5.08626 16.4093 5.33826 16.4093ZM46.5043 16.4093C46.7563 16.4093 46.961 16.6117 46.961 16.8637C46.961 16.9849 46.9129 17.1011 46.8272 17.1867C46.7416 17.2724 46.6254 17.3205 46.5043 17.3205C46.4441 17.3214 46.3844 17.3102 46.3287 17.2876C46.273 17.2649 46.2224 17.2313 46.18 17.1886C46.1376 17.146 46.1042 17.0953 46.0818 17.0394C46.0594 16.9836 46.0485 16.9239 46.0498 16.8637C46.0498 16.614 46.2523 16.4093 46.5043 16.4093ZM2.91726 20.3085C2.8536 20.3042 2.78974 20.313 2.72966 20.3345C2.66959 20.356 2.61459 20.3896 2.56813 20.4334C2.52166 20.4771 2.48472 20.5299 2.45962 20.5886C2.43452 20.6472 2.4218 20.7104 2.42226 20.7742V29.3287C2.42103 29.39 2.43219 29.4508 2.45505 29.5076C2.47791 29.5644 2.512 29.6159 2.55529 29.6592C2.59857 29.7025 2.65016 29.7366 2.70695 29.7595C2.76373 29.7823 2.82455 29.7935 2.88576 29.7923C3.01068 29.7917 3.13029 29.7416 3.21841 29.6531C3.30654 29.5645 3.35601 29.4447 3.35601 29.3198V21.663C4.11426 22.014 4.85901 21.9892 4.90401 21.9892C4.96557 21.9878 5.02622 21.9741 5.08239 21.9488C5.13855 21.9236 5.18909 21.8874 5.23103 21.8423C5.27297 21.7972 5.30546 21.7442 5.32658 21.6863C5.3477 21.6285 5.35703 21.567 5.35401 21.5055C5.3526 21.4435 5.33873 21.3825 5.31321 21.326C5.28769 21.2695 5.25105 21.2188 5.20547 21.1768C5.1599 21.1348 5.10633 21.1024 5.04796 21.0816C4.9896 21.0607 4.92763 21.0519 4.86576 21.0555C4.85901 21.0555 3.84201 21.078 3.22776 20.448C3.14484 20.3654 3.03419 20.3165 2.91726 20.3108V20.3085ZM49.0423 20.3085C48.9236 20.3143 48.8113 20.3641 48.7273 20.448C48.113 21.078 47.105 21.0555 47.0893 21.0555H47.0735C46.9528 21.0559 46.8367 21.1025 46.7493 21.1858C46.6618 21.2691 46.6096 21.3827 46.6033 21.5033C46.599 21.627 46.644 21.7474 46.7283 21.8381C46.8127 21.9288 46.9295 21.9823 47.0533 21.987C47.0983 21.987 47.8408 22.0095 48.599 21.6607V29.322C48.599 29.5785 48.8128 29.7923 49.0715 29.7923C49.1964 29.7917 49.316 29.7416 49.4042 29.6531C49.4923 29.5645 49.5418 29.4447 49.5418 29.3198V20.7765C49.5397 20.6831 49.5105 20.5923 49.4578 20.5152C49.4051 20.4381 49.331 20.378 49.2448 20.3423C49.1803 20.3175 49.1112 20.3067 49.0423 20.3108V20.3085ZM26.0158 22.1625C24.9133 22.1625 24.0268 22.527 23.3518 23.2493C22.7128 23.9243 22.3798 24.813 22.3415 25.9042L22.3348 26.1337L22.3415 28.2667H22.3348C22.3348 29.4727 22.6768 30.438 23.3518 31.158C24.0268 31.878 24.9155 32.2448 26.0158 32.2448C26.9428 32.2448 27.7078 32.0243 28.3243 31.5765C28.5926 31.3887 28.8203 31.1486 28.9935 30.8706C29.1667 30.5926 29.2819 30.2824 29.3323 29.9587L29.3548 27.5738C30.0478 27.4073 30.9883 27.0292 31.58 26.1337C31.6151 26.0907 31.6406 26.0406 31.6548 25.9868C31.6689 25.9331 31.6714 25.8769 31.662 25.8221C31.6526 25.7673 31.6316 25.7152 31.6004 25.6692C31.5692 25.6232 31.5285 25.5844 31.481 25.5555C31.3896 25.4944 31.2777 25.4719 31.1698 25.493C31.0619 25.514 30.9667 25.577 30.905 25.668C30.1535 26.802 28.5583 26.8605 28.475 26.8605H28.4368C26.4703 26.8605 25.7188 28.539 25.6895 28.6088C25.662 28.6721 25.6506 28.7413 25.6564 28.8102C25.6622 28.8791 25.6849 28.9454 25.7226 29.0033C25.7602 29.0613 25.8116 29.109 25.8722 29.1422C25.9328 29.1754 26.0007 29.1931 26.0698 29.1938C26.2273 29.1938 26.3803 29.1015 26.4478 28.9417C26.4568 28.926 26.972 27.7718 28.3018 27.6975V29.844C28.2799 30.0653 28.2092 30.2789 28.0948 30.4696C27.9805 30.6602 27.8252 30.8231 27.6403 30.9465C27.2375 31.2277 26.6998 31.3717 26.0383 31.3717C25.2508 31.3717 24.6028 31.0972 24.1258 30.5595C23.6398 30.0195 23.3968 29.2545 23.3968 28.2645L23.4035 25.8975C23.4418 25.0245 23.678 24.3337 24.1235 23.841C24.6118 23.301 25.2485 23.0287 26.0383 23.0287C26.6998 23.0287 27.2375 23.1727 27.6403 23.454C28.043 23.7352 28.2703 24.1223 28.3085 24.624V24.6758C28.3085 24.8148 28.3637 24.9481 28.4621 25.0465C28.5604 25.1448 28.6937 25.2 28.8328 25.2C28.9718 25.2 29.1051 25.1448 29.2035 25.0465C29.3018 24.9481 29.357 24.8148 29.357 24.6758V24.6217C29.3275 24.2653 29.2194 23.9198 29.0404 23.6101C28.8615 23.3005 28.6161 23.0343 28.322 22.8308C27.7078 22.3808 26.9428 22.1625 26.0158 22.1625ZM43.3543 25.632C43.4893 25.632 43.6355 25.6478 43.7795 25.6703C44.8033 25.8368 45.9575 26.5275 45.98 26.946V26.9685C45.9665 27.3938 44.8033 28.0845 43.7795 28.251C43.6389 28.2746 43.4968 28.2874 43.3543 28.2892C43.0025 28.2881 42.6656 28.1478 42.4169 27.8991C42.1682 27.6504 42.0279 27.3135 42.0268 26.9617C42.0273 26.6096 42.1673 26.2721 42.4161 26.0229C42.6649 25.7737 43.0022 25.6332 43.3543 25.632ZM8.79201 25.6388C9.14408 25.6388 9.48174 25.7786 9.73069 26.0276C9.97965 26.2765 10.1195 26.6142 10.1195 26.9662C10.1195 27.3185 9.97972 27.6564 9.73083 27.9057C9.48194 28.155 9.14429 28.2954 8.79201 28.296C8.61651 28.296 8.41851 28.2735 8.21376 28.2285C7.25076 28.0237 6.02901 27.4163 6.01326 26.9753V26.9528C6.02901 26.5118 7.25076 25.9042 8.21376 25.7085C8.42751 25.6635 8.62326 25.6388 8.79201 25.6388ZM10.9993 27.4545L11.3885 27.477C11.4512 29.579 11.9671 31.6427 12.9011 33.5269C13.835 35.411 15.1649 37.0713 16.7998 38.394C15.6086 38.1221 14.3922 37.9766 13.1705 37.9598C11.0383 35.4752 9.6749 32.4239 9.24651 29.178C9.67359 29.0894 10.0662 28.8798 10.3774 28.5742C10.6886 28.2686 10.903 27.8799 10.9993 27.4545ZM41.1538 27.4545C41.3338 28.2645 41.9503 28.917 42.7535 29.1398C42.3314 32.4002 40.9651 35.466 38.8228 37.9598C37.7833 37.9598 36.575 38.0812 35.2093 38.3782C36.8401 37.0564 38.1666 35.3982 39.0981 33.5168C40.0296 31.6355 40.5443 29.5754 40.607 27.477L41.1538 27.4545ZM12.3583 28.0755L24.9538 40.671C21.6976 40.4175 18.6391 39.0091 16.3296 36.6996C14.0202 34.3902 12.6118 31.3317 12.3583 28.0755ZM39.635 28.0755C39.4474 30.5116 38.6113 32.853 37.2135 34.857C35.8157 36.8609 33.9071 38.4543 31.6858 39.4717C31.382 39.5932 31.1683 39.69 31.0648 39.7372C29.8048 40.2367 28.4548 40.563 27.0418 40.671L39.635 28.0755ZM6.05826 28.35C6.73326 28.791 7.63776 29.079 8.30601 29.1847C8.70848 32.4075 9.9871 35.4581 12.0028 38.0048C11.2348 38.0717 10.4761 38.2195 9.73926 38.4457C7.57686 35.4992 6.29989 31.9969 6.05826 28.35ZM45.935 28.4018C45.7541 31.0378 45.0278 33.6076 43.802 35.9483C43.3475 36.8213 42.8233 37.6582 42.245 38.4615C41.5118 38.2311 40.756 38.0803 39.9905 38.0115C41.9984 35.4663 43.2762 32.4229 43.6873 29.2072C44.3398 29.1307 45.242 28.8518 45.935 28.4018ZM49.1008 30.3773C48.9758 30.3772 48.856 30.4267 48.7674 30.5148C48.6789 30.603 48.6288 30.7226 48.6283 30.8475C48.6283 30.9728 48.678 31.093 48.7666 31.1816C48.8553 31.2702 48.9754 31.32 49.1008 31.32C49.2261 31.32 49.3463 31.2702 49.4349 31.1816C49.5235 31.093 49.5733 30.9728 49.5733 30.8475C49.5733 30.7222 49.5235 30.602 49.4349 30.5134C49.3463 30.4248 49.2261 30.375 49.1008 30.375V30.3773ZM2.86326 30.3997C2.7399 30.4021 2.62235 30.4526 2.53574 30.5405C2.44913 30.6284 2.40032 30.7466 2.39976 30.87C2.39976 30.9949 2.44923 31.1148 2.53735 31.2033C2.62548 31.2919 2.74508 31.3419 2.87001 31.3425C2.99532 31.3425 3.11551 31.2927 3.20412 31.2041C3.29273 31.1155 3.34251 30.9953 3.34251 30.87C3.34251 30.7447 3.29273 30.6245 3.20412 30.5359C3.11551 30.4473 2.99532 30.3975 2.87001 30.3975C2.86701 30.3975 2.86401 30.3975 2.86101 30.3975L2.86326 30.3997ZM48.3943 31.7723C48.2693 31.7728 48.1497 31.8229 48.0616 31.9114C47.9735 32 47.924 32.1198 47.924 32.2448C47.924 32.5013 48.1378 32.715 48.3965 32.715H49.1458C49.2078 32.715 49.2692 32.7028 49.3266 32.679C49.3839 32.6553 49.436 32.6205 49.4799 32.5766C49.5237 32.5327 49.5585 32.4806 49.5823 32.4233C49.606 32.366 49.6183 32.3045 49.6183 32.2425C49.6171 32.118 49.5668 31.9989 49.4783 31.9113C49.3898 31.8237 49.2703 31.7745 49.1458 31.7745L48.3943 31.7723ZM2.82501 31.7902C2.69969 31.7902 2.57951 31.84 2.4909 31.9286C2.40229 32.0173 2.35251 32.1374 2.35251 32.2627C2.35251 32.5192 2.56626 32.733 2.82501 32.733H3.57651C3.70143 32.7324 3.82104 32.6824 3.90916 32.5938C3.99729 32.5053 4.04676 32.3854 4.04676 32.2605C4.04616 32.1356 3.99612 32.016 3.90757 31.9278C3.81903 31.8397 3.69918 31.7902 3.57426 31.7902H2.82501ZM47.9915 33.1177C47.8666 33.1183 47.747 33.1684 47.6589 33.2569C47.5707 33.3455 47.5213 33.4653 47.5213 33.5902C47.5219 33.7152 47.5719 33.8348 47.6604 33.9229C47.749 34.011 47.8688 34.0605 47.9938 34.0605H49.1458C49.2078 34.0605 49.2692 34.0483 49.3266 34.0245C49.3839 34.0008 49.436 33.966 49.4799 33.9221C49.5237 33.8782 49.5585 33.8261 49.5823 33.7688C49.606 33.7115 49.6183 33.6501 49.6183 33.588C49.6171 33.4635 49.5668 33.3444 49.4783 33.2568C49.3898 33.1692 49.2703 33.12 49.1458 33.12L47.9915 33.1177ZM2.82501 33.1267C2.76296 33.1267 2.70152 33.139 2.64419 33.1627C2.58686 33.1865 2.53478 33.2213 2.4909 33.2651C2.44702 33.309 2.41222 33.3611 2.38848 33.4184C2.36473 33.4758 2.35251 33.5372 2.35251 33.5992C2.35251 33.8625 2.56626 34.0672 2.82501 34.0672H3.97926C4.10379 34.0667 4.22306 34.0169 4.31112 33.9289C4.39918 33.8408 4.44892 33.7215 4.44951 33.597C4.44891 33.4721 4.39887 33.3525 4.31032 33.2643C4.22178 33.1762 4.10193 33.1267 3.97701 33.1267H2.82501ZM47.4538 34.4542C47.3917 34.4542 47.3303 34.4665 47.2729 34.4902C47.2156 34.514 47.1635 34.5488 47.1196 34.5926C47.0758 34.6365 47.041 34.6886 47.0172 34.7459C46.9935 34.8033 46.9813 34.8647 46.9813 34.9267C46.9813 35.1832 47.195 35.397 47.4538 35.397H49.1458C49.2078 35.397 49.2692 35.3848 49.3266 35.361C49.3839 35.3373 49.436 35.3025 49.4799 35.2586C49.5237 35.2147 49.5585 35.1626 49.5823 35.1053C49.606 35.048 49.6183 34.9866 49.6183 34.9245C49.6177 34.7996 49.5676 34.68 49.4791 34.5918C49.3905 34.5037 49.2707 34.4542 49.1458 34.4542H47.4538ZM2.82501 34.47C2.69969 34.47 2.57951 34.5198 2.4909 34.6084C2.40229 34.697 2.35251 34.8172 2.35251 34.9425C2.35251 35.199 2.56626 35.4128 2.82501 35.4128H4.51701C4.64232 35.4128 4.76251 35.363 4.85112 35.2744C4.93973 35.1857 4.98951 35.0656 4.98951 34.9403C4.98891 34.8153 4.93887 34.6957 4.85032 34.6076C4.76178 34.5195 4.64193 34.47 4.51701 34.47H2.82501ZM46.7855 35.7975C46.6602 35.7975 46.54 35.8473 46.4514 35.9359C46.3628 36.0245 46.313 36.1447 46.313 36.27C46.313 36.5265 46.5268 36.7403 46.7855 36.7403H49.148C49.2729 36.7397 49.3925 36.6896 49.4807 36.6011C49.5688 36.5125 49.6183 36.3927 49.6183 36.2677C49.6171 36.1432 49.5668 36.0242 49.4783 35.9365C49.3898 35.8489 49.2703 35.7997 49.1458 35.7998L46.7855 35.7975ZM2.82501 35.8132C2.69969 35.8132 2.57951 35.863 2.4909 35.9516C2.40229 36.0403 2.35251 36.1604 2.35251 36.2858C2.35251 36.5423 2.56626 36.756 2.82501 36.756H5.18751C5.31204 36.7548 5.43107 36.7045 5.51871 36.616C5.60635 36.5275 5.65551 36.408 5.65551 36.2835C5.65492 36.159 5.60518 36.0397 5.51712 35.9516C5.42906 35.8636 5.30979 35.8138 5.18526 35.8132H2.82501ZM46.1105 37.134C45.9852 37.134 45.865 37.1838 45.7764 37.2724C45.6878 37.361 45.638 37.4812 45.638 37.6065C45.638 37.863 45.8518 38.0768 46.1105 38.0768H49.148C49.21 38.0771 49.2715 38.065 49.3288 38.0413C49.3862 38.0177 49.4382 37.9829 49.482 37.9389C49.5257 37.8949 49.5603 37.8427 49.5837 37.7853C49.6071 37.7278 49.6189 37.6663 49.6183 37.6042C49.6177 37.4793 49.5676 37.3597 49.4791 37.2716C49.3905 37.1835 49.2707 37.134 49.1458 37.134H46.1105ZM2.82501 37.1475C2.76296 37.1475 2.70152 37.1597 2.64419 37.1835C2.58686 37.2072 2.53478 37.242 2.4909 37.2859C2.44702 37.3298 2.41222 37.3819 2.38848 37.4392C2.36473 37.4965 2.35251 37.5579 2.35251 37.62C2.35251 37.8832 2.56626 38.088 2.82501 38.088H5.86251C5.98704 38.0874 6.10631 38.0377 6.19437 37.9496C6.28243 37.8616 6.33217 37.7423 6.33276 37.6177C6.33216 37.4928 6.28212 37.3732 6.19357 37.2851C6.10503 37.197 5.98518 37.1475 5.86026 37.1475H2.82501ZM45.2983 38.4615C45.1733 38.4615 45.0535 38.511 44.9649 38.5991C44.8764 38.6872 44.8264 38.8068 44.8258 38.9317C44.8258 39.1905 45.0395 39.4043 45.2983 39.4043H46.4683C46.5932 39.4037 46.7128 39.3536 46.8009 39.2651C46.889 39.1765 46.9385 39.0567 46.9385 38.9317C46.9385 38.8064 46.8887 38.6863 46.8001 38.5976C46.7115 38.509 46.5913 38.4593 46.466 38.4593L45.2983 38.4615ZM5.50476 38.484C5.37944 38.484 5.25926 38.5338 5.17065 38.6224C5.08204 38.711 5.03226 38.8312 5.03226 38.9565C5.03344 39.081 5.08375 39.2001 5.17223 39.2877C5.26071 39.3753 5.38022 39.4245 5.50476 39.4245H6.67476C6.79929 39.4239 6.91856 39.3742 7.00662 39.2861C7.09468 39.1981 7.14442 39.0788 7.14501 38.9542C7.14441 38.8293 7.09437 38.7097 7.00582 38.6216C6.91728 38.5335 6.79743 38.484 6.67251 38.484H5.50476ZM39.0095 38.8823C39.878 38.8935 40.7645 38.9947 41.624 39.2355C41.2308 39.72 40.8149 40.1855 40.3775 40.6305C39.7408 40.4573 38.1163 40.1242 35.9225 40.3605C33.5375 40.617 30.032 41.634 26.45 44.9438V44.1158C26.4494 43.9908 26.3994 43.8712 26.3108 43.7831C26.2223 43.695 26.1024 43.6455 25.9775 43.6455C25.8526 43.6461 25.733 43.6961 25.6449 43.7847C25.5567 43.8732 25.5073 43.9931 25.5073 44.118V44.8987C21.9478 41.6272 18.4558 40.617 16.0865 40.3583C13.8388 40.1153 12.194 40.4798 11.5933 40.6463C11.1837 40.2217 10.7912 39.7811 10.4165 39.3255C10.394 39.2963 10.3715 39.2737 10.349 39.2422C12.6328 38.6122 15.1303 38.9475 16.883 39.3638C19.0025 39.8723 20.5505 40.6103 20.5663 40.617L20.573 40.6013C24.0453 41.9868 27.9164 41.99 31.391 40.6102L31.436 40.5877C31.634 40.5022 31.8388 40.419 32.0278 40.329C33.0141 39.9284 34.0296 39.6035 35.0653 39.357C36.3556 39.0376 37.6803 38.8782 39.0095 38.8823ZM44.234 39.798C44.1095 39.7986 43.9902 39.8483 43.9021 39.9364C43.8141 40.0244 43.7643 40.1437 43.7638 40.2682C43.7644 40.3932 43.8144 40.5128 43.9029 40.6009C43.9915 40.689 44.1113 40.7385 44.2363 40.7385H47.1343C47.393 40.7385 47.6068 40.5337 47.6068 40.266C47.6056 40.1415 47.5553 40.0224 47.4668 39.9348C47.3783 39.8472 47.2588 39.798 47.1343 39.798H44.234ZM4.83651 39.8205C4.71158 39.8205 4.59174 39.87 4.50319 39.9581C4.41465 40.0462 4.3646 40.1658 4.36401 40.2907C4.36401 40.5495 4.57776 40.7633 4.83651 40.7633H7.73676C7.86168 40.7627 7.98129 40.7126 8.06941 40.6241C8.15754 40.5355 8.20701 40.4157 8.20701 40.2907C8.20761 40.2285 8.1958 40.1668 8.17227 40.1092C8.14873 40.0516 8.11395 39.9993 8.06996 39.9553C8.02596 39.9113 7.97363 39.8765 7.91604 39.853C7.85844 39.8295 7.79673 39.8176 7.73451 39.8183L4.83651 39.8205ZM43.028 41.1412C42.9031 41.1412 42.7832 41.1907 42.6947 41.2788C42.6061 41.367 42.5561 41.4866 42.5555 41.6115C42.5555 41.8702 42.7693 42.084 43.028 42.084H45.2983C45.4232 42.0834 45.5428 42.0334 45.6309 41.9448C45.719 41.8563 45.7685 41.7364 45.7685 41.6115C45.7685 41.4862 45.7187 41.366 45.6301 41.2774C45.5415 41.1888 45.4213 41.139 45.296 41.139L43.028 41.1412ZM47.2018 41.1412C47.0788 41.1442 46.9618 41.1949 46.8757 41.2828C46.7896 41.3706 46.7411 41.4885 46.7405 41.6115C46.7405 41.7364 46.79 41.8563 46.8781 41.9448C46.9662 42.0334 47.0858 42.0834 47.2108 42.084C47.2728 42.084 47.3342 42.0718 47.3916 42.048C47.4489 42.0243 47.501 41.9895 47.5449 41.9456C47.5887 41.9017 47.6235 41.8496 47.6473 41.7923C47.671 41.735 47.6833 41.6735 47.6833 41.6115C47.6833 41.4862 47.6335 41.366 47.5449 41.2774C47.4563 41.1888 47.3361 41.139 47.2108 41.139C47.2078 41.139 47.2048 41.1412 47.2018 41.1412ZM4.76676 41.157C4.64222 41.1576 4.52296 41.2073 4.4349 41.2954C4.34683 41.3834 4.2971 41.5027 4.29651 41.6272C4.2971 41.7522 4.34715 41.8718 4.43569 41.9599C4.52424 42.048 4.64408 42.0975 4.76901 42.0975C4.89393 42.0969 5.01354 42.0469 5.10166 41.9583C5.18979 41.8698 5.23926 41.7499 5.23926 41.625C5.23807 41.5005 5.18777 41.3814 5.09929 41.2938C5.0108 41.2062 4.8913 41.157 4.76676 41.157ZM6.67251 41.157C6.54797 41.1576 6.42871 41.2073 6.34065 41.2954C6.25258 41.3834 6.20285 41.5027 6.20226 41.6272C6.20226 41.8837 6.41601 42.0975 6.67476 42.0975H8.94276C9.06807 42.0975 9.18826 42.0477 9.27687 41.9591C9.36548 41.8705 9.41526 41.7503 9.41526 41.625C9.41407 41.5005 9.36377 41.3814 9.27528 41.2938C9.1868 41.2062 9.0673 41.157 8.94276 41.157H6.67251ZM14.6533 41.2313C15.0853 41.2335 15.5555 41.2582 16.055 41.3145C20.2693 41.787 23.5025 44.1945 25.5298 46.2127V47.5853C25.4512 47.6286 25.3753 47.6767 25.3025 47.7292C24.7179 46.9774 24.0649 46.2814 23.3518 45.6502C21.4393 43.956 18.2195 42.0435 13.7713 42.5745V42.5835C13.3012 42.2217 12.8478 41.8388 12.4123 41.436C13.1507 41.2945 13.9014 41.2244 14.6533 41.2313ZM37.3693 41.2357C38.3053 41.2312 39.068 41.3303 39.59 41.4293C39.1587 41.8312 38.7073 42.2112 38.2378 42.5678C33.8053 42.0503 30.6013 43.9582 28.6888 45.6435C27.9648 46.2844 27.3033 46.9926 26.7133 47.7585C26.6233 47.7 26.54 47.6393 26.4658 47.601V46.2645C30.0545 42.66 33.6208 41.5822 35.99 41.3145C36.4828 41.2605 36.944 41.238 37.3693 41.2357ZM41.5543 42.4845C41.4293 42.4851 41.3097 42.5351 41.2216 42.6237C41.1335 42.7122 41.084 42.8321 41.084 42.957C41.0852 43.0815 41.1355 43.2006 41.224 43.2882C41.3125 43.3758 41.432 43.425 41.5565 43.425H42.8458C42.9707 43.425 43.0905 43.3755 43.1791 43.2874C43.2676 43.1993 43.3177 43.0797 43.3183 42.9547C43.3177 42.8298 43.2676 42.7102 43.1791 42.6221C43.0905 42.534 42.9707 42.4845 42.8458 42.4845H41.5543ZM44.189 42.4845C44.0641 42.4851 43.9445 42.5351 43.8564 42.6237C43.7682 42.7122 43.7188 42.8321 43.7188 42.957C43.7199 43.0815 43.7702 43.2006 43.8587 43.2882C43.9472 43.3758 44.0667 43.425 44.1913 43.425C44.3154 43.4238 44.4341 43.3738 44.5217 43.2858C44.6092 43.1978 44.6587 43.0789 44.6593 42.9547C44.6587 42.8302 44.6089 42.7109 44.5209 42.6229C44.4328 42.5348 44.3135 42.4851 44.189 42.4845ZM7.78176 42.5002C7.6584 42.5026 7.54085 42.5531 7.45424 42.641C7.36763 42.7289 7.31882 42.8471 7.31826 42.9705C7.31826 43.0325 7.33048 43.094 7.35423 43.1513C7.37797 43.2086 7.41277 43.2607 7.45665 43.3046C7.50053 43.3485 7.55261 43.3833 7.60994 43.407C7.66727 43.4308 7.72871 43.443 7.79076 43.443C7.91529 43.4418 8.03432 43.3915 8.12196 43.303C8.2096 43.2145 8.25876 43.095 8.25876 42.9705C8.25876 42.8456 8.20929 42.7257 8.12116 42.6372C8.03304 42.5486 7.91343 42.4986 7.78851 42.498C7.78626 42.498 7.78401 42.5002 7.78176 42.5002ZM9.12501 42.5002C9.00008 42.5002 8.88024 42.5497 8.79169 42.6378C8.70315 42.726 8.6531 42.8456 8.65251 42.9705C8.65251 43.2292 8.86626 43.443 9.12501 43.443H10.4165C10.5414 43.4424 10.661 43.3924 10.7492 43.3038C10.8373 43.2153 10.8868 43.0954 10.8868 42.9705C10.8868 42.8452 10.837 42.725 10.7484 42.6364C10.6598 42.5478 10.5396 42.498 10.4143 42.498L9.12501 42.5002ZM15.2225 43.4227C17.9788 43.4047 20.4853 44.3768 22.706 46.3253C23.4935 47.016 24.119 47.7292 24.5893 48.3457C24.4407 48.5077 24.3109 48.6858 24.2023 48.8767C23.4071 47.8488 22.4505 46.9567 21.3695 46.2352L21.3785 46.2127C21.357 46.204 21.3342 46.1987 21.311 46.197C19.937 45.3027 18.3844 44.7191 16.7615 44.487C16.1409 44.1653 15.5378 43.8108 14.9548 43.425L15.2248 43.4205L15.2225 43.4227ZM36.7798 43.4227L37.0453 43.425C36.457 43.8138 35.8487 44.1713 35.2228 44.496C32.5421 44.8966 30.0942 46.2458 28.3243 48.2985C28.1434 48.5015 27.9708 48.7117 27.8068 48.9285C27.6976 48.7373 27.5711 48.5565 27.4288 48.3885C27.899 47.7765 28.5358 47.0385 29.3413 46.3343C31.5463 44.3925 34.0438 43.4182 36.7798 43.4227ZM10.394 47.4053C10.4999 47.3996 10.6059 47.4155 10.7054 47.4521C10.8049 47.4887 10.896 47.5452 10.973 47.6182C11.0499 47.6911 11.1113 47.779 11.1532 47.8764C11.195 47.9739 11.2167 48.0788 11.2167 48.1849C11.2167 48.2909 11.195 48.3959 11.1532 48.4933C11.1113 48.5907 11.0499 48.6786 10.973 48.7516C10.896 48.8245 10.8049 48.881 10.7054 48.9176C10.6059 48.9542 10.4999 48.9702 10.394 48.9645C10.1869 48.9645 9.98835 48.8822 9.84194 48.7358C9.69552 48.5894 9.61326 48.3908 9.61326 48.1838C9.61326 47.9767 9.69552 47.7781 9.84194 47.6317C9.98835 47.4853 10.1869 47.4053 10.394 47.4053ZM41.57 47.4053C41.6759 47.3994 41.7819 47.4152 41.8815 47.4517C41.9811 47.4881 42.0722 47.5445 42.1493 47.6174C42.2263 47.6902 42.2878 47.778 42.3298 47.8753C42.3719 47.9727 42.3936 48.0776 42.3938 48.1837C42.3939 48.2897 42.3725 48.3947 42.3307 48.4922C42.2889 48.5897 42.2278 48.6777 42.1509 48.7507C42.074 48.8238 41.9831 48.8804 41.8836 48.9172C41.7841 48.9539 41.6782 48.97 41.5723 48.9645C41.3652 48.9645 41.1666 48.8822 41.0202 48.7358C40.8738 48.5894 40.7915 48.3908 40.7915 48.1838C40.7915 47.9767 40.8738 47.7781 41.0202 47.6317C41.1666 47.4853 41.3652 47.403 41.5723 47.403L41.57 47.4053ZM25.9775 48.4065H25.9865C26.0383 48.4357 26.0923 48.474 26.1598 48.519C26.4288 48.6951 26.663 48.9193 26.8505 49.1805C27.009 49.3931 27.116 49.6396 27.1633 49.9005C27.2465 50.4562 27.0103 51.0638 26.4725 51.723C26.3226 51.9016 26.1626 52.0713 25.9933 52.2315L25.9865 52.2382L25.9775 52.245V52.2292C25.9618 52.2135 25.9393 52.2 25.9235 52.1775C25.7819 52.0404 25.6482 51.8954 25.523 51.7432C24.9673 51.084 24.7243 50.4675 24.8098 49.9072C24.8165 49.8622 24.8233 49.8173 24.839 49.77C24.899 49.5392 25.0045 49.3226 25.1495 49.1332C25.2643 48.9802 25.3925 48.852 25.523 48.7372C25.6355 48.6382 25.748 48.5572 25.8493 48.4875C25.8943 48.456 25.9325 48.4335 25.9708 48.411C25.9708 48.411 25.9775 48.4132 25.9775 48.4065ZM25.9865 52.2382C25.9933 52.2315 25.9865 52.2315 25.9865 52.2225V52.2382ZM43.1428 49.7272C43.406 49.7272 43.676 49.7632 43.9393 49.8397C44.972 50.1435 45.701 51.2752 45.8968 51.6172C46.1398 52.0425 46.466 52.6028 46.9453 53.0438H41.7005C41.5068 52.3409 41.2256 51.6651 40.8635 51.0322C41.3135 50.2267 42.2023 49.734 43.1428 49.7272ZM9.11151 49.8127C9.96876 49.824 10.7158 50.2402 11.1365 50.9647C10.7595 51.6184 10.4662 52.3169 10.2635 53.0438H5.32251C5.69091 52.6428 6.00693 52.1968 6.26301 51.7163C6.46101 51.3743 7.19001 50.2357 8.22051 49.9387C8.52651 49.8487 8.82351 49.8082 9.11151 49.8127Z" fill="white"/>
</svg>
