<svg viewBox="0 0 512 512" fill="none" xmlns="http://www.w3.org/2000/svg">
<path d="M173.32 411.53C213.186 432.666 259.628 437.747 303.12 425.73C304.157 425.448 305.126 424.958 305.968 424.291C306.81 423.623 307.507 422.791 308.018 421.846C308.529 420.9 308.842 419.861 308.938 418.791C309.035 417.72 308.913 416.642 308.58 415.62L307 410.89C306.359 408.955 304.995 407.342 303.193 406.388C301.392 405.434 299.291 405.213 297.33 405.77C259.126 416.246 218.366 411.788 183.33 393.3C182.235 392.728 180.96 392.604 179.775 392.955C178.59 393.305 177.587 394.103 176.98 395.18L171.43 404.93C171.112 405.485 170.909 406.099 170.832 406.734C170.755 407.369 170.806 408.014 170.982 408.629C171.158 409.244 171.456 409.818 171.857 410.316C172.259 410.814 172.756 411.227 173.32 411.53Z" fill="white"/>
<path d="M421.25 317C421.561 316.144 421.697 315.235 421.648 314.325C421.6 313.416 421.368 312.526 420.968 311.708C420.567 310.89 420.006 310.161 419.317 309.565C418.628 308.97 417.827 308.519 416.96 308.24L410.08 306C408.414 305.464 406.606 305.592 405.033 306.358C403.46 307.124 402.244 308.468 401.64 310.11C390.275 340.704 369.543 366.93 342.4 385.05L319.22 350.05C314.94 343.6 304.89 347.79 306.47 355.37C307.398 359.802 308.838 364.11 310.76 368.21L355.15 462.64C356.604 465.742 358.913 468.364 361.805 470.199C364.698 472.035 368.054 473.006 371.48 473H377.05C379.344 472.998 381.595 472.375 383.563 471.196C385.532 470.018 387.144 468.328 388.229 466.307C389.314 464.285 389.832 462.007 389.726 459.716C389.621 457.424 388.896 455.203 387.63 453.29L353.88 402.35C384.795 381.738 408.382 351.857 421.25 317Z" fill="white"/>
<path d="M168.85 336L139.85 359.13C118.22 334.762 104.796 304.211 101.476 271.798C98.1567 239.384 105.109 206.747 121.35 178.5C122.74 176.11 123.167 173.28 122.545 170.587C121.923 167.893 120.297 165.537 118 164L114.63 161.76C113.945 161.302 113.176 160.987 112.367 160.833C111.559 160.68 110.727 160.69 109.923 160.865C109.118 161.039 108.357 161.374 107.685 161.849C107.013 162.324 106.443 162.93 106.01 163.63C86.276 195.701 77.3366 233.251 80.5022 270.774C83.6677 308.297 98.7718 343.818 123.6 372.13L28.2597 448.26C25.3359 450.591 22.9751 453.551 21.3529 456.92C19.7307 460.289 18.8887 463.981 18.8896 467.72V468.21C18.8902 473.323 20.464 478.312 23.3974 482.499C26.3308 486.687 30.4818 489.87 35.2868 491.618C40.0919 493.365 45.3182 493.591 50.2563 492.266C55.1944 490.941 59.6051 488.128 62.8896 484.21L178.37 345.74C183.64 339.41 175.29 330.88 168.85 336Z" fill="white"/>
<path d="M432.11 256C432.279 212.57 416.232 170.64 387.11 138.42L452.32 75.7302C453.709 74.397 454.817 72.8 455.581 71.033C456.345 69.2659 456.748 67.3642 456.768 65.4393C456.787 63.5144 456.423 61.6049 455.695 59.8227C454.967 58.0405 453.891 56.4214 452.53 55.0602L442.21 44.7202C440.722 43.2379 438.929 42.0971 436.956 41.3769C434.983 40.6567 432.877 40.3744 430.784 40.5494C428.691 40.7245 426.661 41.3527 424.836 42.3907C423.01 43.4286 421.431 44.8513 420.21 46.5602L330.55 172.35C329.503 173.862 329.052 175.708 329.286 177.532C329.519 179.356 330.42 181.029 331.814 182.228C333.208 183.427 334.997 184.068 336.836 184.026C338.674 183.983 340.432 183.262 341.77 182L372.13 152.81C397.523 181.167 411.491 217.936 411.33 256C411.33 258.55 411.24 261.1 411.12 263.65H400.26C391.91 263.65 390.69 275.65 398.88 277.36L493.11 296.53V263.65H431.93C432 261.1 432.11 258.54 432.11 256Z" fill="white"/>
<path d="M296.939 110.56C304.757 109.291 310.066 101.925 308.797 94.1073C307.528 86.2899 300.162 80.9813 292.344 82.2502C284.527 83.5192 279.218 90.8851 280.487 98.7026C281.756 106.52 289.122 111.829 296.939 110.56Z" fill="white"/>
<path d="M370.07 260.3L332.69 253C332.239 241.727 329.31 230.693 324.11 220.681C318.91 210.67 311.568 201.927 302.606 195.075C293.644 188.223 283.282 183.43 272.258 181.037C261.233 178.644 249.817 178.71 238.82 181.23C236.486 181.765 234.443 183.172 233.111 185.162C231.778 187.153 231.256 189.577 231.65 191.94L236.45 220.62C236.611 221.595 236.432 222.596 235.942 223.455C235.453 224.314 234.683 224.979 233.761 225.338C232.84 225.696 231.823 225.727 230.882 225.425C229.94 225.124 229.131 224.507 228.59 223.68L209.8 194.7L164.11 127.5C173.26 117.5 181.45 109.36 195.52 99.4996C196.17 99.0738 196.697 98.4849 197.048 97.7917C197.399 97.0986 197.562 96.3255 197.52 95.5497C197.464 94.8913 197.253 94.2555 196.906 93.6933C196.559 93.1311 196.085 92.6582 195.522 92.3129C194.958 91.9675 194.322 91.7592 193.663 91.7048C193.005 91.6504 192.343 91.7514 191.73 91.9996C178.332 97.2536 165.635 104.146 153.93 112.52L99.5103 32.5196C96.6731 28.3257 92.8518 24.8906 88.3804 22.5146C83.909 20.1386 78.9237 18.894 73.8603 18.8896H61.2903C59.0707 18.8995 56.8994 19.5389 55.0287 20.7336C53.1581 21.9283 51.6648 23.6292 50.7223 25.6388C49.7798 27.6484 49.4268 29.8841 49.7044 32.0863C49.9819 34.2885 50.8786 36.3668 52.2903 38.0797L194.3 210.33C184.224 223.901 178.931 240.43 179.25 257.33C179.93 297.77 212.56 331.15 252.98 332.71C267.535 333.284 281.952 329.705 294.548 322.39C307.143 315.075 317.397 304.326 324.11 291.4C324.954 289.761 325.173 287.873 324.728 286.085C324.283 284.297 323.203 282.731 321.69 281.68L311.74 274.73C311.081 274.269 310.585 273.611 310.326 272.85C310.066 272.089 310.056 271.265 310.297 270.497C310.538 269.73 311.017 269.06 311.665 268.584C312.313 268.107 313.096 267.85 313.9 267.85L368.9 269.76C374.83 270.07 375.89 261.44 370.07 260.3Z" fill="white"/>
</svg>
