<svg width="18" height="12" viewBox="0 0 18 12" fill="none" xmlns="http://www.w3.org/2000/svg">
<path fill-rule="evenodd" clip-rule="evenodd" d="M18 1.02392L11.968 5.99988L18 10.9758V1.02392ZM17.6986 11.7506C17.5305 11.9049 17.3059 12 17.0611 12H0.938931C0.6949 12 0.471079 11.9057 0.303813 11.753L6.65747 6.51163L7.62793 7.3126C8.01014 7.62756 8.5103 7.78423 9.00807 7.78184C9.505 7.77944 10.006 7.61957 10.3906 7.30141L11.3482 6.51163L17.6986 11.7506ZM0 10.98L6.03779 5.99996L0 1.01991V10.98ZM0.303834 0.246997C0.471097 0.0935189 0.69492 0 0.938951 0H17.0611C17.3067 0 17.5314 0.0951234 17.6986 0.249412L11.0994 5.69378L11.0905 5.70098L9.88333 6.69698C9.64416 6.89443 9.32579 6.99355 9.0058 6.99514C8.68661 6.99674 8.37068 6.90082 8.13635 6.70818L6.91622 5.70177L6.90571 5.69298L0.303834 0.246997Z" fill="black"/>
</svg>
