<svg width="34" height="35" viewBox="0 0 34 35" fill="none" xmlns="http://www.w3.org/2000/svg">
<path d="M16.0762 1.95093C16.6936 1.95095 17.2861 2.196 17.7227 2.63257C18.1592 3.06915 18.4043 3.66165 18.4043 4.27905C18.4043 4.89646 18.1592 5.48896 17.7227 5.92554C17.2861 6.3621 16.6936 6.60716 16.0762 6.60718C13.7626 6.60626 11.5003 7.29113 9.57617 8.57593C7.65214 9.86072 6.15239 11.6877 5.2666 13.825C4.38084 15.9622 4.14946 18.3146 4.60059 20.5837C5.05175 22.8527 6.16504 24.9372 7.80078 26.573C9.43675 28.209 11.5218 29.323 13.791 29.7742C16.0602 30.2253 18.4125 29.993 20.5498 29.1072C22.6869 28.2213 24.5131 26.7216 25.7979 24.7976C27.0826 22.8736 27.7684 20.6121 27.7676 18.2986C27.7676 17.6812 28.0126 17.0887 28.4492 16.6521C28.8858 16.2155 29.4783 15.9705 30.0957 15.9705C30.7129 15.9706 31.3047 16.2157 31.7412 16.6521C32.1778 17.0887 32.4229 17.6812 32.4229 18.2986C32.4191 22.6333 30.6965 26.7897 27.6318 29.8552C24.5671 32.9208 20.411 34.6452 16.0762 34.6501C11.7879 34.5778 7.69944 32.8235 4.69238 29.7654C1.68531 26.7071 5.31098e-06 22.5895 0 18.3005C0 14.0116 1.68531 9.89394 4.69238 6.83569C7.69944 3.77754 11.7879 2.0233 16.0762 1.95093ZM33.3766 8.10258C33.2666 9.37649 31.7179 9.94068 30.8143 9.03602C30.2271 8.44816 29.2745 8.44786 28.687 9.03535L19.6025 18.119C18.6781 19.0434 17.1794 19.0434 16.255 18.119C15.3305 17.1945 15.3305 15.6957 16.255 14.7712L25.339 5.68796C25.9267 5.10036 25.9264 4.14752 25.3383 3.56033C24.4335 2.6568 24.9975 1.10792 26.2715 0.99784L30.1313 0.664339C32.1762 0.487645 33.8863 2.19757 33.7098 4.24256L33.3766 8.10258Z" fill="white"/>
</svg>
