<svg width="40" height="58" viewBox="0 0 40 58" fill="none" xmlns="http://www.w3.org/2000/svg">
<path d="M10.5827 58C15.9187 58 20.2493 53.6693 20.2493 48.3333V38.6667H10.5827C5.24668 38.6667 0.916016 42.9973 0.916016 48.3333C0.916016 53.6693 5.24668 58 10.5827 58Z" fill="#797B78"/>
<path d="M0.916016 29C0.916016 23.664 5.24668 19.3333 10.5827 19.3333H20.2493V38.6667H10.5827C5.24668 38.6667 0.916016 34.336 0.916016 29Z" fill="#D2D2D2"/>
<path d="M0.916016 9.66667C0.916016 4.33067 5.24668 0 10.5827 0H20.2493V19.3333H10.5827C5.24668 19.3333 0.916016 15.0027 0.916016 9.66667Z" fill="#ACACAC"/>
<path d="M20.2493 0H29.916C35.252 0 39.5827 4.33067 39.5827 9.66667C39.5827 15.0027 35.252 19.3333 29.916 19.3333H20.2493V0Z" fill="#D2D2D2"/>
<path d="M39.5827 29C39.5827 34.336 35.252 38.6667 29.916 38.6667C24.58 38.6667 20.2493 34.336 20.2493 29C20.2493 23.664 24.58 19.3333 29.916 19.3333C35.252 19.3333 39.5827 23.664 39.5827 29Z" fill="#ACACAC"/>
</svg>
