<svg width="21" height="20" viewBox="0 0 21 20" fill="none" xmlns="http://www.w3.org/2000/svg">
<path d="M7.20894 20C7.53352 19.8635 7.76087 19.5481 7.76087 19.181V16.7722C7.76087 16.6844 7.76817 16.5929 7.77959 16.5001C7.7732 16.5019 7.76726 16.5033 7.76087 16.5046C7.76087 16.5046 6.3913 16.5046 6.11739 16.5046C5.43261 16.5046 4.83913 16.237 4.56522 15.7017C4.24565 15.1218 4.1087 14.1404 3.28696 13.6051C3.15 13.5159 3.2413 13.3821 3.51522 13.3821C3.78913 13.4267 4.38261 13.7836 4.74783 14.2742C5.1587 14.7649 5.56957 15.1664 6.3 15.1664C7.43537 15.1664 8.04391 15.1106 8.41004 14.9188C8.83644 14.2992 9.42672 13.8282 10.0435 13.8282V13.817C7.45591 13.7358 5.80285 12.8954 5.03315 11.5978C3.36 11.6166 1.90324 11.7785 1.07191 11.9132C1.04543 11.7673 1.02261 11.6206 1.00298 11.4729C1.82335 11.3409 3.21391 11.1843 4.81265 11.1544C4.76152 11.0313 4.71724 10.9051 4.6798 10.7757C3.07696 10.6963 1.6937 10.7583 0.942261 10.819C0.933131 10.6709 0.920804 10.5232 0.918978 10.3734C1.67178 10.3131 3.01761 10.2529 4.57937 10.3238C4.5433 10.1008 4.52002 9.87287 4.52002 9.63556C4.52002 8.87724 4.79393 8.07432 5.29611 7.40521C5.06785 6.64689 4.74828 5.04104 5.38741 4.46115C6.62002 4.46115 7.48741 5.04104 7.89828 5.39789C8.67391 5.0852 9.5413 4.90677 10.5 4.90677C11.4587 4.90677 12.3261 5.0852 13.0565 5.39745C13.4674 5.04059 14.3348 4.4607 15.5674 4.4607C16.2522 5.0852 15.887 6.69105 15.6587 7.40476C16.1609 8.07387 16.4348 8.83219 16.3891 9.63511C16.3891 9.85101 16.3686 10.0593 16.3389 10.2636C17.9363 10.1869 19.3186 10.2485 20.0842 10.3091C20.0833 10.4595 20.0692 10.6062 20.0609 10.7548C19.2981 10.6932 17.881 10.6299 16.2449 10.7151C16.2042 10.8649 16.1549 11.0108 16.0965 11.1522C17.7153 11.1727 19.1392 11.3257 19.9988 11.4595C19.9792 11.6076 19.9564 11.7544 19.9299 11.8998C19.057 11.7633 17.5692 11.6036 15.8765 11.5956C15.1163 12.8794 13.4934 13.7167 10.9565 13.8143V13.8282C12.1435 13.8282 13.2391 15.5678 13.2391 16.7722V19.181C13.2391 19.5481 13.4665 19.8635 13.7911 20C17.9733 18.6475 21 14.7935 21 10.2596C21 4.60255 16.2901 0 10.5 0C4.70994 0 0 4.60255 0 10.2596C0 14.7935 3.02674 18.6475 7.20894 20Z" fill="black"/>
</svg>
