<svg width="58" height="58" viewBox="0 0 58 58" fill="none" xmlns="http://www.w3.org/2000/svg">
<path d="M39.4883 0C39.397 0.00209319 39.308 0.0293826 39.2313 0.0788536C39.1545 0.128325 39.0929 0.198052 39.0533 0.280333C38.9324 0.534083 39.0291 0.836167 39.2828 0.957C40.4984 1.56117 40.3921 2.62933 40.293 3.0595C40.0997 3.91017 39.3481 4.80675 38.3597 4.80675C37.0982 4.80675 36.494 4.17117 35.8174 3.00392C35.4839 2.43358 34.5534 1.04642 33.1276 0.63075C32.3858 0.409544 31.595 0.413898 30.8558 0.643258C30.1165 0.872617 29.4621 1.31662 28.9758 1.91883C28.4896 1.31709 27.8357 0.87337 27.0969 0.644029C26.3581 0.414687 25.5678 0.410066 24.8264 0.63075C23.4005 1.04642 22.4701 2.43358 22.1342 3.00392C21.4575 4.17117 20.8534 4.80675 19.616 4.80675H19.5991C19.1529 4.80926 18.7185 4.66346 18.3642 4.39225C18.0099 4.12104 17.7557 3.73979 17.6416 3.30842C17.5449 2.95558 17.3419 1.75692 18.7098 0.940083C18.7665 0.906051 18.816 0.861153 18.8553 0.807963C18.8947 0.754773 18.9231 0.694339 18.9391 0.630126C18.955 0.565913 18.9581 0.499184 18.9482 0.433768C18.9383 0.368351 18.9156 0.305533 18.8814 0.248917C18.8473 0.192178 18.8024 0.142717 18.7492 0.103368C18.696 0.0640199 18.6356 0.0355591 18.5714 0.0196181C18.5072 0.00367709 18.4405 0.000569535 18.375 0.0104736C18.3096 0.0203778 18.2468 0.0430987 18.1902 0.0773333C16.6145 1.015 16.3704 2.49883 16.6653 3.57425C17.0229 4.90342 18.2047 5.8 19.5894 5.80967H19.6136C21.5155 5.80967 22.3638 4.61825 23.0066 3.509C23.2193 3.14408 24.0023 1.91883 25.1115 1.59983C26.4818 1.2035 27.939 1.83908 28.5118 3.08608C28.5516 3.17017 28.6136 3.24182 28.6911 3.29334C28.7686 3.34485 28.8586 3.3743 28.9516 3.3785H29.0096C29.1026 3.37456 29.1928 3.34522 29.2703 3.29368C29.3479 3.24213 29.4098 3.17033 29.4494 3.08608C30.0198 1.83908 31.4794 1.20108 32.8497 1.60225C33.9589 1.9285 34.7419 3.14408 34.9522 3.51142C35.5974 4.62792 36.4457 5.80725 38.3694 5.80725C39.5269 5.80725 40.8972 4.9445 41.279 3.28908C41.598 1.92125 41.0132 0.679083 39.7324 0.05075C39.6554 0.0147206 39.5707 -0.00187549 39.4859 0.00241667L39.4883 0ZM9.23402 0.22475C9.09984 0.224748 8.97112 0.277885 8.87601 0.372538C8.78091 0.467191 8.72716 0.595655 8.72652 0.729833C8.72652 1.00775 8.94885 1.23733 9.23402 1.23733H15.4908C15.6249 1.23669 15.7534 1.18294 15.8481 1.08784C15.9427 0.992733 15.9959 0.864013 15.9959 0.729833C15.9959 0.595236 15.9424 0.466151 15.8472 0.370977C15.752 0.275802 15.623 0.222333 15.4884 0.222333L9.23402 0.22475ZM42.7363 0.22475C42.6025 0.225385 42.4744 0.278803 42.3798 0.373388C42.2852 0.467972 42.2318 0.596073 42.2312 0.729833C42.2312 1.00775 42.4608 1.23733 42.7387 1.23733H48.9906C49.1252 1.23733 49.2543 1.18386 49.3495 1.08869C49.4446 0.993515 49.4981 0.864431 49.4981 0.729833C49.4981 0.595236 49.4446 0.466151 49.3495 0.370977C49.2543 0.275802 49.1252 0.222333 48.9906 0.222333L42.7363 0.22475ZM7.01794 0.232C6.88502 0.234532 6.75841 0.289117 6.66531 0.384018C6.57222 0.47892 6.52008 0.606561 6.5201 0.7395C6.52138 0.873258 6.57541 1.0011 6.67044 1.09524C6.76548 1.18937 6.89384 1.24217 7.0276 1.24217C7.16136 1.24153 7.28946 1.18811 7.38405 1.09353C7.47863 0.998945 7.53205 0.870844 7.53269 0.737083C7.53205 0.602905 7.4783 0.474441 7.38319 0.379788C7.28809 0.285135 7.15937 0.231998 7.02519 0.232C7.02277 0.231983 7.02035 0.231983 7.01794 0.232ZM51.0979 0.232C50.965 0.234532 50.8384 0.289117 50.7453 0.384018C50.6522 0.47892 50.6001 0.606561 50.6001 0.7395C50.6014 0.872841 50.6551 1.00032 50.7496 1.09439C50.8441 1.18845 50.9718 1.24154 51.1052 1.24217C51.2394 1.24217 51.3681 1.18903 51.4632 1.09438C51.5583 0.999726 51.612 0.871262 51.6127 0.737083C51.612 0.602905 51.5583 0.474441 51.4632 0.379788C51.3681 0.285135 51.2394 0.231998 51.1052 0.232C51.102 0.231969 51.1012 0.231969 51.0979 0.232ZM4.23877 0.232C4.10991 0.240028 3.98902 0.297095 3.90093 0.391478C3.81284 0.485862 3.76424 0.610397 3.7651 0.7395V6.09483C3.7651 6.37275 3.98502 6.60233 4.26294 6.60233C4.39753 6.60233 4.52662 6.54886 4.62179 6.45369C4.71697 6.35852 4.77044 6.22943 4.77044 6.09483V2.07592L7.22335 4.86233C7.31495 4.94604 7.43415 4.99311 7.55823 4.99454C7.68231 4.99598 7.80257 4.9517 7.89608 4.87014C7.9896 4.78857 8.04981 4.67544 8.06525 4.55232C8.08068 4.4292 8.05026 4.3047 7.97977 4.20258L4.64477 0.403583C4.59427 0.3472 4.53185 0.302766 4.46205 0.273506C4.39224 0.244245 4.3168 0.230893 4.24119 0.234417L4.23877 0.232ZM53.8094 0.232C53.7334 0.227936 53.6574 0.241032 53.5872 0.270315C53.5169 0.299599 53.4541 0.34432 53.4034 0.401167L50.0684 4.19533C50.0243 4.24461 49.9905 4.30223 49.969 4.36479C49.9475 4.42734 49.9387 4.49357 49.9432 4.55957C49.9477 4.62557 49.9654 4.68999 49.9952 4.74905C50.025 4.8081 50.0664 4.86059 50.1168 4.90342C50.1651 4.94799 50.2221 4.98222 50.2841 5.00402C50.3461 5.02582 50.412 5.03473 50.4776 5.03021C50.5432 5.02568 50.6072 5.00782 50.6657 4.97771C50.7241 4.94759 50.7758 4.90587 50.8176 4.85508L53.2753 2.06625V6.09C53.2753 6.3655 53.5049 6.59508 53.7828 6.59508C53.917 6.59444 54.0455 6.54069 54.1401 6.44559C54.2348 6.35048 54.2879 6.22176 54.2879 6.08758V0.7395C54.2881 0.610665 54.2388 0.486679 54.1502 0.393139C54.0616 0.299599 53.9405 0.243647 53.8118 0.236833L53.8094 0.232ZM19.9012 1.27117C19.6314 1.27069 19.3676 1.35028 19.143 1.49987C18.9185 1.64945 18.7434 1.8623 18.64 2.11145C18.5365 2.36061 18.5093 2.63486 18.5618 2.89948C18.6144 3.1641 18.7442 3.40719 18.935 3.59795C19.1257 3.78872 19.3688 3.91858 19.6335 3.97109C19.8981 4.02361 20.1723 3.99641 20.4215 3.89295C20.6706 3.78949 20.8835 3.61441 21.0331 3.3899C21.1827 3.16539 21.2622 2.90153 21.2618 2.63175C21.2611 2.2711 21.1176 1.9254 20.8626 1.67038C20.6075 1.41536 20.2618 1.27181 19.9012 1.27117ZM38.2461 1.27117C37.8993 1.29185 37.5734 1.4442 37.3352 1.69709C37.0969 1.94997 36.9642 2.2843 36.9642 2.63175C36.9642 2.9792 37.0969 3.31353 37.3352 3.56641C37.5734 3.8193 37.8993 3.97165 38.2461 3.99233C38.5872 3.96356 38.905 3.80775 39.1366 3.55577C39.3682 3.30379 39.4967 2.97401 39.4967 2.63175C39.4967 2.28949 39.3682 1.95971 39.1366 1.70773C38.905 1.45575 38.5872 1.29994 38.2461 1.27117ZM46.9219 1.8125C46.8035 1.80756 46.6872 1.84462 46.5934 1.91714C46.4997 1.98966 46.4346 2.09297 46.4096 2.20883C46.2211 3.06433 46.3274 3.74825 46.7334 4.25333C47.3207 4.988 48.268 5.01217 48.3743 5.01217C48.4866 5.0118 48.5955 4.97407 48.6839 4.90492C48.7723 4.83578 48.8351 4.73917 48.8625 4.63033C49.051 3.9295 48.9761 3.30842 48.6353 2.80333C48.0892 1.9865 47.0863 1.83183 46.9703 1.81733C46.9542 1.81497 46.9381 1.81335 46.9219 1.8125ZM11.0707 1.8125C11.0538 1.8125 11.0393 1.8125 11.0224 1.81733C10.9088 1.83183 9.9131 1.9865 9.35969 2.80333C9.02377 3.30842 8.94402 3.91983 9.12285 4.63758C9.15126 4.74606 9.21432 4.8423 9.30243 4.91166C9.39055 4.98101 9.4989 5.0197 9.61102 5.02183C9.71735 5.02183 10.6623 4.99767 11.2495 4.263C11.6579 3.7555 11.7643 3.06433 11.5758 2.21608C11.5525 2.10015 11.4891 1.99613 11.3967 1.92232C11.3043 1.8485 11.1889 1.80962 11.0707 1.8125ZM19.9012 2.27167C19.9961 2.27293 20.0867 2.31135 20.1535 2.37867C20.2204 2.446 20.2582 2.53686 20.2589 2.63175C20.2576 2.72622 20.2195 2.81647 20.1527 2.88327C20.0859 2.95008 19.9957 2.98817 19.9012 2.98942C19.8067 2.98817 19.7165 2.95008 19.6497 2.88327C19.5829 2.81647 19.5448 2.72622 19.5435 2.63175C19.5448 2.53728 19.5829 2.44703 19.6497 2.38023C19.7165 2.31342 19.8067 2.27292 19.9012 2.27167ZM38.2461 2.27167C38.3414 2.2723 38.4326 2.31044 38.5 2.37783C38.5674 2.44522 38.6056 2.53645 38.6062 2.63175C38.6049 2.72663 38.5665 2.81724 38.4992 2.88411C38.4319 2.95099 38.341 2.98879 38.2461 2.98942C38.1516 2.98817 38.0614 2.95008 37.9946 2.88327C37.9278 2.81647 37.8897 2.72622 37.8884 2.63175C37.8897 2.53728 37.9278 2.44703 37.9946 2.38023C38.0614 2.31342 38.1516 2.27292 38.2461 2.27167ZM10.6574 2.98217C10.6717 3.21264 10.605 3.44087 10.4689 3.62742C10.3554 3.76283 10.2065 3.86406 10.0388 3.91983C10.0345 3.7264 10.0884 3.53614 10.1934 3.37367C10.313 3.20652 10.4725 3.07194 10.6574 2.98217ZM47.3424 2.98217C47.5116 3.06433 47.6904 3.19483 47.8064 3.37367C47.9031 3.52833 47.9611 3.70717 47.9611 3.91983C47.7957 3.86228 47.6487 3.76128 47.5358 3.62742C47.3983 3.44133 47.33 3.21318 47.3424 2.98217ZM31.4094 3.30842C31.0486 3.30347 30.6897 3.3607 30.3484 3.47758C30.2866 3.50041 30.2299 3.53528 30.1817 3.58017C30.1335 3.62506 30.0946 3.67909 30.0674 3.73911C30.0402 3.79914 30.0252 3.86396 30.0232 3.92983C30.0213 3.9957 30.0324 4.0613 30.056 4.12283C30.1023 4.24727 30.1956 4.3486 30.3158 4.40507C30.436 4.46155 30.5735 4.46867 30.6989 4.42492C30.781 4.3935 32.7385 3.741 34.2369 6.07308C34.3335 6.21808 34.4979 6.30025 34.6622 6.30025C34.7516 6.30025 34.8483 6.27608 34.9304 6.21808C35.0422 6.14661 35.1212 6.03384 35.1502 5.90437C35.1791 5.77489 35.1558 5.63922 35.0851 5.52692C33.9614 3.78692 32.4993 3.30842 31.4118 3.30842H31.4094ZM26.6026 3.31567C26.3908 3.31174 26.179 3.32548 25.9694 3.35675C25.1236 3.47758 23.908 3.96092 22.8954 5.53417C22.8598 5.58977 22.8354 5.6519 22.8239 5.71696C22.8124 5.78201 22.8138 5.84871 22.8282 5.91319C22.8426 5.97768 22.8696 6.03868 22.9077 6.09267C22.9458 6.14666 22.9942 6.19257 23.0501 6.22775C23.1299 6.28207 23.2243 6.31074 23.3208 6.30992C23.4047 6.30921 23.4871 6.2879 23.5609 6.24787C23.6346 6.20784 23.6974 6.15031 23.7437 6.08033C25.2372 3.74825 27.1923 4.40075 27.2817 4.43458C27.3439 4.45727 27.4099 4.46745 27.4761 4.46453C27.5422 4.46162 27.6071 4.44567 27.6671 4.4176C27.727 4.38953 27.7808 4.3499 27.8254 4.30097C27.87 4.25204 27.9045 4.19479 27.9269 4.1325C27.973 4.00589 27.9671 3.8662 27.9105 3.74394C27.8539 3.62168 27.7512 3.52679 27.6249 3.48C27.5693 3.46067 27.1802 3.32292 26.6026 3.31567ZM28.9613 3.70717C28.8288 3.71032 28.7028 3.76518 28.6102 3.86002C28.5176 3.95485 28.4658 4.08214 28.4659 4.21467C28.4665 4.34843 28.5199 4.47653 28.6145 4.57111C28.7091 4.6657 28.8372 4.71911 28.9709 4.71975C29.1051 4.71911 29.2336 4.66536 29.3282 4.57026C29.4229 4.47515 29.476 4.34643 29.476 4.21225C29.4754 4.07807 29.4216 3.94961 29.3265 3.85495C29.2314 3.7603 29.1027 3.70717 28.9685 3.70717C28.9661 3.70715 28.9637 3.70715 28.9613 3.70717ZM45.3438 4.43942C44.8605 4.4225 44.2443 4.56508 43.483 5.02908C43.0199 5.31759 42.5882 5.65373 42.1949 6.032C40.9552 7.12433 39.9209 7.10017 39.8629 7.10017C39.7472 7.09496 39.6334 7.1298 39.5405 7.19881C39.4476 7.26782 39.3813 7.36677 39.3529 7.47896C39.3245 7.59114 39.3357 7.70969 39.3846 7.81459C39.4335 7.91949 39.517 8.00432 39.6212 8.05475C40.4187 8.42933 41.1437 8.57675 41.7962 8.57675C43.0432 8.57675 44.0388 8.03058 44.7324 7.45783C45.8393 6.54433 46.412 5.39642 46.4362 5.34808C46.4926 5.23481 46.5037 5.10431 46.4674 4.98311C46.431 4.86191 46.3499 4.7591 46.2404 4.69558C45.9672 4.53578 45.6579 4.44766 45.3414 4.43942H45.3438ZM12.8784 4.44425C12.5626 4.45295 12.2538 4.53927 11.9794 4.69558C11.8699 4.7591 11.7888 4.86191 11.7524 4.98311C11.716 5.10431 11.7272 5.23481 11.7836 5.34808C11.8078 5.39642 12.3781 6.54433 13.4874 7.45783C14.1809 8.03058 15.1669 8.57675 16.4212 8.57675C17.0834 8.57675 17.8084 8.42933 18.5986 8.05475C18.7044 8.00494 18.7894 7.91966 18.8388 7.8137C18.8883 7.70775 18.899 7.58782 18.8693 7.47475C18.8413 7.36115 18.7746 7.26086 18.6806 7.19116C18.5867 7.12146 18.4713 7.08671 18.3545 7.09292C18.3134 7.09292 17.2694 7.12433 16.0297 6.02958C15.6365 5.65127 15.2048 5.31513 14.7416 5.02667C13.9804 4.5675 13.3641 4.42733 12.8808 4.44183L12.8784 4.44425ZM28.9999 5.10883C28.3644 5.10883 27.8665 5.76858 27.4847 6.641C23.4319 6.81983 18.3932 9.43708 18.1805 9.54342C14.7319 11.281 11.177 8.00158 10.2708 7.08083C10.133 6.92617 10.0364 6.83675 10.0291 6.81983C9.93645 6.73094 9.81328 6.68087 9.68488 6.6799C9.55648 6.67893 9.43258 6.72714 9.33859 6.81463C9.24461 6.90213 9.18767 7.02227 9.17946 7.15041C9.17125 7.27855 9.21239 7.40498 9.29444 7.50375L9.92277 8.21425C10.2877 8.671 10.7517 9.33075 11.1432 10.1234C12.1219 12.1051 12.1389 13.9055 11.2012 15.4884C10.0655 16.8896 9.11212 18.4292 8.36402 20.0704C5.63319 20.9598 4.65444 19.2971 4.61335 19.2222C4.61335 19.2125 4.6061 19.2149 4.6061 19.2053C4.09135 18.3425 4.29435 17.1753 5.07735 16.4333C5.68152 15.863 6.73277 15.8147 7.05902 15.8147H7.06627C8.16102 15.8147 9.28477 15.6431 10.0122 14.3888C10.2833 13.925 10.3934 13.3846 10.3252 12.8517C10.257 12.3188 10.0144 11.8235 9.63519 11.4429C8.84494 10.6358 7.65352 10.498 6.59502 11.0853C6.53675 11.1168 6.48537 11.1596 6.44388 11.2113C6.40239 11.263 6.37163 11.3224 6.3534 11.3861C6.33517 11.4498 6.32983 11.5165 6.33771 11.5822C6.34559 11.648 6.36652 11.7116 6.39927 11.7692C6.43081 11.8274 6.47366 11.8788 6.52532 11.9203C6.57697 11.9618 6.63639 11.9926 6.70008 12.0108C6.76378 12.029 6.83048 12.0344 6.89626 12.0265C6.96204 12.0186 7.02559 11.9977 7.08319 11.9649C7.75985 11.5976 8.44619 11.6628 8.91985 12.1534C9.14143 12.3787 9.28277 12.6707 9.32207 12.9842C9.36138 13.2978 9.29647 13.6156 9.13735 13.8886C8.69027 14.6619 8.07885 14.819 7.1001 14.819H7.06627C6.61919 14.819 5.57519 14.8843 4.74385 15.4232V8.05958C4.74385 7.92499 4.69038 7.7959 4.59521 7.70073C4.50004 7.60555 4.37095 7.55208 4.23635 7.55208C4.1026 7.55336 3.97475 7.60739 3.88062 7.70243C3.78649 7.79746 3.73368 7.92582 3.73369 8.05958V16.5397C3.17785 17.5353 3.14644 18.7485 3.71677 19.7297C3.77235 19.8336 4.12277 20.4208 4.90577 20.8607C5.35527 21.1144 6.00052 21.3513 6.85602 21.3513C7.16535 21.3513 7.50852 21.3174 7.87344 21.2449C6.99377 23.6084 6.55394 26.1508 6.53702 28.9251V29.0145C6.55222 34.0619 8.30318 38.9504 11.496 42.8596C14.3393 46.3365 18.1448 48.8979 22.4363 50.2232C20.7836 49.9776 19.0953 50.1827 17.5496 50.8169C16.0039 51.4511 14.658 52.4909 13.6541 53.8264C13.5167 53.6452 13.3612 53.4784 13.1901 53.3286C13.4654 53.1641 13.6935 52.9312 13.8522 52.6526C14.011 52.374 14.0951 52.0591 14.0964 51.7384C14.0955 51.4496 14.0272 51.1649 13.8969 50.9071C13.7665 50.6494 13.5777 50.4256 13.3455 50.2538C13.1133 50.0819 12.8442 49.9667 12.5596 49.9174C12.275 49.868 11.9828 49.8858 11.7063 49.9694C11.6847 49.6636 11.6137 49.3632 11.496 49.0801C10.713 47.328 9.28477 47.0332 8.00394 46.8954C7.58102 46.8471 6.15519 46.6344 5.4036 45.7548C4.45869 44.6866 4.44177 43.0964 5.34802 42.0693C5.39482 42.0206 5.43132 41.963 5.45535 41.8999C5.47938 41.8367 5.49044 41.7694 5.48787 41.7019C5.4853 41.6344 5.46915 41.5682 5.4404 41.507C5.41164 41.4459 5.37086 41.3912 5.32049 41.3462C5.27013 41.3012 5.21121 41.2668 5.14726 41.2451C5.0833 41.2234 5.01562 41.2148 4.94827 41.2198C4.88091 41.2248 4.81525 41.2433 4.75522 41.2743C4.69518 41.3052 4.642 41.348 4.59885 41.3999C3.36635 42.8016 3.3736 44.9621 4.61335 46.4314C4.77527 46.6247 4.96377 46.7891 5.15952 46.9365C4.58377 47.0909 4.04747 47.366 3.58627 47.7437C2.3876 48.7297 1.77377 50.3778 1.75927 52.6181C1.73944 52.7195 1.75076 52.8246 1.79174 52.9195C1.83271 53.0144 1.90142 53.0946 1.98885 53.1498C2.0686 53.1981 2.15802 53.2223 2.24744 53.2223C2.28127 53.2223 2.31994 53.215 2.35377 53.2053H2.36344C2.37794 53.2053 2.3876 53.1981 2.40452 53.1884C2.43225 53.1811 2.45902 53.1706 2.48427 53.157C2.49394 53.157 2.49394 53.1498 2.50119 53.1498C2.58381 53.102 2.6535 53.0348 2.70419 52.954C2.89994 52.7003 3.7071 52.3813 4.37652 52.2435C6.99377 51.6732 7.54235 49.9042 7.45777 49.0535C7.45174 48.9876 7.4328 48.9236 7.40203 48.8651C7.37125 48.8066 7.32926 48.7547 7.27843 48.7124C7.2276 48.6701 7.16894 48.6382 7.10579 48.6186C7.04264 48.5989 6.97625 48.5919 6.91039 48.598C6.84454 48.604 6.78052 48.6229 6.72199 48.6537C6.66346 48.6845 6.61156 48.7265 6.56926 48.7773C6.52696 48.8281 6.49508 48.8868 6.47545 48.9499C6.45582 49.0131 6.44882 49.0795 6.45485 49.1453C6.45485 49.1526 6.46452 49.3 6.41619 49.5199C6.29294 50.0274 5.84344 50.8974 4.16385 51.2648H4.14935C3.69243 51.3622 3.24695 51.5072 2.82019 51.6973C2.96519 50.2473 3.4316 49.184 4.22185 48.5267C5.43744 47.5141 7.0421 47.8017 7.05902 47.8089C7.11025 47.8171 7.16245 47.8171 7.21369 47.8089C7.43471 47.8561 7.6582 47.8907 7.8831 47.9128C9.22919 48.0603 10.0509 48.3551 10.5656 49.503C10.9644 50.4092 10.452 51.4533 9.75844 51.9753C9.40802 52.2435 8.47035 52.7728 7.4191 51.91C7.31543 51.8363 7.18775 51.8043 7.06157 51.8207C6.93539 51.837 6.82002 51.9003 6.73851 51.998C6.657 52.0957 6.61536 52.2205 6.62191 52.3476C6.62847 52.4746 6.68273 52.5945 6.77385 52.6833C7.24752 53.0748 7.77677 53.3044 8.32294 53.3697C7.76581 53.8368 7.29682 54.3999 6.93819 55.0323C6.25185 56.2165 5.69844 56.8497 4.77527 56.8593V53.3286C4.77527 53.1944 4.72213 53.0657 4.62748 52.9706C4.53283 52.8755 4.40436 52.8217 4.27019 52.8211C4.13601 52.8217 4.00754 52.8755 3.91289 52.9706C3.81824 53.0657 3.7651 53.1944 3.7651 53.3286V57.4224C3.7651 57.6254 3.88594 57.797 4.05994 57.8792C4.14935 57.9444 4.25327 57.9928 4.36927 57.9928H16.1094C16.1937 57.9924 16.2767 57.9713 16.3509 57.9313C16.4251 57.8912 16.4882 57.8335 16.5348 57.7632C16.604 57.6971 16.6541 57.6136 16.6798 57.5215C16.8925 56.6927 17.3608 55.9518 18.0182 55.4041C18.6756 54.8563 19.4888 54.5295 20.3424 54.4698C21.196 54.4102 22.0467 54.6208 22.7739 55.0718C23.5011 55.5229 24.0679 56.1914 24.3938 56.9826H23.3184C23.0999 56.4461 22.7263 55.987 22.2454 55.6641C21.7645 55.3412 21.1982 55.1692 20.6189 55.1701C19.3067 55.1701 18.1491 56.0594 17.7987 57.3233C17.7637 57.4521 17.7808 57.5895 17.8464 57.7058C17.912 57.822 18.0208 57.9078 18.1491 57.9444C18.2776 57.9787 18.4144 57.9612 18.5301 57.8957C18.6458 57.8301 18.7311 57.7218 18.7678 57.594C18.8624 57.2448 19.0543 56.9296 19.321 56.685C19.5877 56.4405 19.9183 56.2767 20.2745 56.2127C20.6306 56.1486 20.9976 56.187 21.3328 56.3233C21.668 56.4596 21.9576 56.6882 22.168 56.9826H21.8756C21.7414 56.9826 21.6127 57.0357 21.5176 57.1304C21.4225 57.225 21.3687 57.3535 21.3681 57.4877C21.3681 57.7632 21.5977 57.9928 21.8756 57.9928H22.893L22.951 58C22.9752 58 22.9994 58 23.0163 57.9928H25.039C25.1732 57.9921 25.3017 57.9384 25.3963 57.8433C25.491 57.7482 25.5441 57.6194 25.5441 57.4853C25.5441 57.4611 25.5441 57.4369 25.5344 57.4128C25.544 57.3428 25.5415 57.2717 25.5272 57.2025C25.2378 56.1456 24.6151 55.2104 23.7515 54.5358C22.888 53.8613 21.8299 53.4834 20.7344 53.4584C19.6389 53.4335 18.5646 53.7627 17.6713 54.3972C16.7779 55.0317 16.1132 55.9376 15.7759 56.9802H13.1418C13.3544 56.3035 13.6396 55.6752 13.9973 55.0903C14.0214 55.0565 14.0384 55.0251 14.0625 54.9937C14.6641 54.0497 15.4503 53.2373 16.374 52.6051C17.2977 51.9729 18.3397 51.5342 19.4374 51.3152C20.5351 51.0962 21.6657 51.1015 22.7612 51.3308C23.8568 51.5601 24.8947 52.0087 25.8124 52.6495C25.8492 52.6758 25.89 52.6962 25.9332 52.7099C26.1459 52.9613 26.3585 53.2295 26.5615 53.5074L26.7017 53.7032C26.6534 54.7399 27.214 55.8226 28.3813 56.9318C28.4224 57.0527 28.4634 57.1614 28.4876 57.2412V57.3475C28.4876 57.6254 28.7148 57.855 28.9927 57.855C29.1037 57.8558 29.2117 57.819 29.299 57.7505C29.3864 57.682 29.4479 57.586 29.4736 57.478C29.4736 57.4708 29.5461 57.2267 29.6935 56.8183C30.7448 55.7912 31.2668 54.7882 31.2595 53.8167C31.5469 53.4025 31.8541 53.0025 32.1803 52.6181C33.5611 51.6582 35.2038 51.1461 36.8855 51.1512C38.6544 51.1488 40.3774 51.714 41.8012 52.7637C43.225 53.8133 44.2744 55.2921 44.7953 56.9826H42.1611C41.8332 55.9562 41.1872 55.0607 40.3165 54.4259C39.4458 53.7912 38.3956 53.45 37.3181 53.4518C35.0271 53.4518 33.0116 54.9913 32.4099 57.2025C32.3861 57.2813 32.3861 57.3654 32.4099 57.4442V57.4877C32.4105 57.6214 32.4639 57.7495 32.5585 57.8441C32.6531 57.9387 32.7812 57.9921 32.9149 57.9928H37.3326C37.4672 57.9928 37.5963 57.9393 37.6915 57.8441C37.7866 57.7489 37.8401 57.6199 37.8401 57.4853C37.8388 57.3515 37.7848 57.2236 37.6898 57.1295C37.5947 57.0354 37.4664 56.9826 37.3326 56.9826H35.7279C35.9395 56.6862 36.2313 56.4564 36.569 56.3203C36.9068 56.1841 37.2764 56.1472 37.6343 56.214C37.9923 56.2808 38.3237 56.4484 38.5897 56.6972C38.8556 56.9459 39.045 57.2654 39.1354 57.6182C39.1517 57.682 39.1805 57.742 39.2202 57.7946C39.2598 57.8472 39.3095 57.8915 39.3664 57.9247C39.4233 57.958 39.4862 57.9797 39.5515 57.9884C39.6168 57.9972 39.6832 57.9929 39.7469 57.9758C39.8762 57.9427 39.9873 57.86 40.056 57.7455C40.1248 57.6311 40.1457 57.4942 40.1142 57.3644C39.9595 56.772 39.6229 56.2431 39.1516 55.8523C38.6804 55.4614 38.0983 55.2283 37.4876 55.1859C36.8768 55.1435 36.2681 55.2938 35.7473 55.6157C35.2266 55.9376 34.8199 56.4149 34.5849 56.9802H33.5674C33.895 56.1911 34.4621 55.5249 35.1887 55.0756C35.9154 54.6263 36.7648 54.4166 37.617 54.4762C38.4693 54.5358 39.2813 54.8615 39.9384 55.4075C40.5955 55.9535 41.0644 56.6922 41.279 57.5191C41.2887 57.5602 41.3128 57.6013 41.3273 57.6399C41.3595 57.7428 41.4238 57.8326 41.5108 57.8961C41.5978 57.9596 41.7029 57.9935 41.8107 57.9928H53.7732C53.9069 57.9915 54.0348 57.9374 54.1289 57.8424C54.223 57.7474 54.2759 57.619 54.2758 57.4853V57.3233C54.2855 57.275 54.2855 57.2267 54.2855 57.1783C54.2855 57.1687 54.2855 57.159 54.2758 57.1518V53.3286C54.2758 53.1944 54.2227 53.0657 54.1281 52.9706C54.0334 52.8755 53.9049 52.8217 53.7708 52.8211C53.6366 52.8217 53.5081 52.8755 53.4135 52.9706C53.3188 53.0657 53.2657 53.1944 53.2657 53.3286V56.753C52.4198 56.6878 51.8882 56.0594 51.2357 54.9357C50.8892 54.3388 50.4485 53.8018 49.9307 53.3455C50.3802 53.2488 50.8103 53.0337 51.2115 52.7002C51.3026 52.6115 51.3569 52.4916 51.3635 52.3645C51.37 52.2374 51.3284 52.1126 51.2469 52.0149C51.1654 51.9172 51.05 51.8539 50.9238 51.8376C50.7976 51.8213 50.6699 51.8532 50.5663 51.9269C49.5223 52.7897 48.5846 52.2604 48.2269 51.9922C47.5333 51.4702 47.0186 50.4165 47.4198 49.5199C47.9321 48.372 48.7562 48.0699 50.1023 47.9298C50.2714 47.9153 50.501 47.8814 50.7717 47.8258C50.8254 47.8331 50.8799 47.8331 50.9336 47.8258C50.9505 47.8258 52.5407 47.531 53.7611 48.5412C54.561 49.2033 55.0347 50.2618 55.1724 51.7215C54.7437 51.5282 54.2957 51.3808 53.836 51.2817H53.8191C52.1492 50.9143 51.6924 50.0492 51.5716 49.5441C51.5362 49.4225 51.5215 49.2959 51.5281 49.1695C51.54 49.0365 51.4985 48.9042 51.4128 48.8018C51.3272 48.6994 51.2043 48.6352 51.0713 48.6233C50.9384 48.6115 50.8061 48.6529 50.7037 48.7386C50.6012 48.8243 50.537 48.9471 50.5252 49.0801C50.4454 49.9356 50.9916 51.6973 53.6185 52.2701C54.2952 52.4151 55.1483 52.7486 55.3053 53.0023C55.3303 53.0365 55.3578 53.0688 55.3875 53.099L55.4117 53.1159C55.4359 53.1328 55.46 53.157 55.4842 53.1643C55.4914 53.1715 55.5083 53.1812 55.5156 53.1812C55.5398 53.1981 55.5639 53.2053 55.5881 53.215L55.6219 53.2223C55.6558 53.2295 55.6944 53.2392 55.7355 53.2392C55.7693 53.2392 55.7935 53.2392 55.8249 53.2319C55.8346 53.2319 55.8418 53.2319 55.8491 53.2247C55.8733 53.2174 55.8974 53.2078 55.9313 53.2005H55.9409C55.9651 53.1933 55.982 53.1763 56.0062 53.1667L56.0134 53.1594C56.0303 53.1522 56.0473 53.1352 56.0545 53.128C56.0618 53.1207 56.0787 53.1111 56.0883 53.0942L56.1198 53.0628C56.127 53.0458 56.1439 53.0386 56.1512 53.0217L56.1753 52.9806L56.1995 52.9395C56.2092 52.9226 56.2092 52.9057 56.2164 52.8912C56.2261 52.8743 56.2261 52.8573 56.2333 52.8428C56.2333 52.8259 56.243 52.809 56.243 52.8018C56.243 52.7848 56.2503 52.7679 56.2503 52.7438V52.7365C56.243 50.4286 55.6219 48.7587 54.4063 47.7558C53.9479 47.3754 53.4117 47.0999 52.8355 46.9486C53.0289 46.8012 53.2173 46.6296 53.3793 46.4411C54.6287 44.9742 54.6359 42.8161 53.3962 41.412C53.3528 41.3621 53.3 41.3214 53.2406 41.2922C53.1813 41.263 53.1168 41.2461 53.0508 41.2422C52.9848 41.2384 52.9187 41.2478 52.8564 41.2699C52.7941 41.292 52.7369 41.3264 52.6881 41.3709C52.6382 41.4143 52.5975 41.4671 52.5683 41.5265C52.5391 41.5858 52.5222 41.6503 52.5183 41.7163C52.5145 41.7823 52.5239 41.8484 52.546 41.9107C52.5681 41.9729 52.6025 42.0302 52.647 42.079C53.5508 43.1085 53.5339 44.6963 52.6132 45.791C51.864 46.6707 50.4382 46.8833 50.0128 46.9317C48.732 47.0694 47.2965 47.3643 46.5232 49.1163C46.4023 49.3846 46.3274 49.6867 46.3105 50.0129C46.0327 49.9235 45.7377 49.9009 45.4495 49.9471C45.1613 49.9932 44.8881 50.1068 44.6521 50.2785C44.4161 50.4502 44.224 50.6752 44.0914 50.9352C43.9588 51.1952 43.8894 51.4828 43.889 51.7747C43.889 52.4755 44.2805 53.0869 44.8605 53.3963C44.6836 53.5549 44.5218 53.7297 44.3772 53.9183C43.3826 52.5777 42.0454 51.5297 40.5061 50.8842C38.9668 50.2387 37.2821 50.0196 35.6289 50.2497C38.4892 49.3635 41.1464 47.9212 43.448 46.0057C45.7496 44.0901 47.6504 41.739 49.0413 39.0872C50.662 35.9905 51.5047 32.5459 51.4967 29.0508V28.9444C51.4732 26.3163 50.9449 23.7171 49.9404 21.2884C50.2739 21.3537 50.5928 21.3778 50.878 21.3778C52.9878 21.3778 53.9182 19.9278 54.0173 19.7563C54.2366 19.3754 54.3736 18.9528 54.4194 18.5157C54.4652 18.0786 54.4187 17.6368 54.2831 17.2188C54.2928 17.1946 54.2928 17.1632 54.2928 17.1293V7.94117C54.2928 7.80699 54.2396 7.67827 54.145 7.58316C54.0503 7.48806 53.9219 7.43431 53.7877 7.43367C53.6531 7.43367 53.524 7.48714 53.4288 7.58231C53.3336 7.67749 53.2802 7.80657 53.2802 7.94117V15.66C52.4271 14.9181 51.1873 14.8383 50.6726 14.8383C49.6793 14.8456 49.0583 14.6885 48.6015 13.9079C48.4399 13.6346 48.3738 13.3153 48.4136 13.0003C48.4534 12.6852 48.5969 12.3924 48.8214 12.1679C49.3048 11.6797 49.9887 11.6169 50.6581 11.9818C50.7734 12.0328 50.9036 12.0388 51.0231 11.9987C51.1426 11.9586 51.2428 11.8752 51.3039 11.765C51.3651 11.6547 51.3829 11.5256 51.3537 11.403C51.3245 11.2803 51.2505 11.173 51.1463 11.1022C50.0853 10.5149 48.8964 10.6623 48.1037 11.4598C47.3231 12.2598 47.1757 13.4415 47.7291 14.4033C48.4541 15.6528 49.5561 15.8292 50.6412 15.8292H50.6823C51.0085 15.8292 52.0598 15.8799 52.6639 16.4503C53.4445 17.1922 53.6499 18.3594 53.1352 19.2222C53.1352 19.2222 53.1279 19.2318 53.1279 19.2391C53.0868 19.3116 52.1153 20.9597 49.4087 20.0946C48.6776 18.5529 47.7927 17.089 46.7673 15.7253L46.3685 16.0273L46.7673 15.718L46.6053 15.5053C44.8678 12.5933 46.8736 9.49508 47.9176 8.18283L48.5048 7.51342C48.5869 7.41465 48.628 7.28822 48.6198 7.16008C48.6116 7.03193 48.5547 6.91179 48.4607 6.8243C48.3667 6.73681 48.2428 6.6886 48.1144 6.68957C47.986 6.69053 47.8628 6.7406 47.7702 6.8295C47.6865 6.91426 47.6051 7.0013 47.5261 7.0905C46.6198 8.01125 43.0819 11.2713 39.6478 9.57L39.5511 9.50475L39.5028 9.47092C36.4288 7.8155 33.3959 6.86092 30.5007 6.61925C30.1261 5.76133 29.6307 5.10883 29.0024 5.10883H28.9999ZM8.43652 5.29492C8.30403 5.29807 8.17803 5.35293 8.08545 5.44777C7.99287 5.5426 7.94107 5.66989 7.9411 5.80242C7.94174 5.93618 7.99516 6.06428 8.08974 6.15886C8.18432 6.25345 8.31243 6.30686 8.44619 6.3075C8.58036 6.30686 8.70883 6.25311 8.80348 6.15801C8.89813 6.0629 8.95127 5.93418 8.95127 5.8C8.95063 5.66582 8.89688 5.53736 8.80177 5.4427C8.70667 5.34805 8.57795 5.29492 8.44377 5.29492C8.44135 5.2949 8.43894 5.2949 8.43652 5.29492ZM49.3023 5.29492C49.1694 5.29745 49.0428 5.35203 48.9497 5.44694C48.8566 5.54184 48.8045 5.66948 48.8045 5.80242C48.8052 5.9366 48.8589 6.06506 48.954 6.15971C49.0491 6.25437 49.1778 6.3075 49.312 6.3075C49.4462 6.30686 49.5747 6.25311 49.6693 6.15801C49.764 6.0629 49.8171 5.93418 49.8171 5.8C49.8165 5.66582 49.7627 5.53736 49.6676 5.4427C49.5725 5.34805 49.4438 5.29492 49.3096 5.29492C49.3072 5.2949 49.3048 5.2949 49.3023 5.29492ZM13.0113 5.44233C13.8571 5.48342 14.9446 6.37275 15.3264 6.75458L15.3506 6.77875C15.7349 7.12192 16.1191 7.37567 16.4695 7.56175C14.7054 7.57867 13.5405 6.23258 13.0137 5.44233H13.0113ZM45.2109 5.44233C44.8966 5.90272 44.5228 6.31957 44.0993 6.68208C43.367 7.28625 42.584 7.57625 41.7551 7.56175C42.0934 7.38292 42.4801 7.12192 42.8692 6.77875L42.8934 6.75458C43.2776 6.37275 44.3627 5.48342 45.2109 5.44233ZM28.9758 6.12625C29.4253 6.29783 30.1189 8.41 30.3291 9.8455C30.3702 10.1307 30.3944 10.3917 30.3944 10.6043C30.3944 10.9825 30.2441 11.3452 29.9767 11.6126C29.7093 11.8799 29.3467 12.0302 28.9685 12.0302C28.5904 12.0302 28.2277 11.8799 27.9603 11.6126C27.6929 11.3452 27.5427 10.9825 27.5427 10.6043C27.5535 10.3535 27.5777 10.1034 27.6152 9.85517C27.8327 8.32783 28.5843 6.29058 28.9758 6.12625ZM7.61244 6.88267L7.5641 6.88508C7.45052 6.902 6.45485 7.05667 5.90144 7.87108C5.56794 8.37858 5.48577 8.99 5.6646 9.70775C5.69357 9.81617 5.75718 9.91216 5.84574 9.98109C5.93431 10.05 6.04297 10.0881 6.15519 10.0896C6.2591 10.0896 7.20644 10.0654 7.79369 9.33075C8.19969 8.82567 8.30602 8.13208 8.11994 7.28625C8.0975 7.16945 8.03399 7.06454 7.9409 6.99051C7.84781 6.91648 7.73129 6.87822 7.61244 6.88267ZM50.4527 6.88267C50.3342 6.87704 50.2175 6.91349 50.1233 6.98558C50.0291 7.05766 49.9635 7.16074 49.9379 7.27658C49.7518 8.13208 49.8582 8.81842 50.2642 9.3235C50.8683 10.0582 51.8133 10.0823 51.9124 10.0896C52.0246 10.0892 52.1335 10.0515 52.2219 9.98234C52.3103 9.9132 52.3731 9.81659 52.4005 9.70775C52.5818 8.99 52.5068 8.37858 52.1661 7.87108C51.6199 7.05667 50.617 6.902 50.501 6.88508C50.4849 6.88352 50.4688 6.88271 50.4527 6.88267ZM30.8535 7.66808C33.4684 7.96292 36.1992 8.8595 38.9808 10.3506L39.0871 10.4231L39.1427 10.4569C39.9499 10.8653 40.815 11.0683 41.7116 11.0683C42.6589 11.0683 43.6449 10.8412 44.6382 10.3844L42.0282 13.3593C41.7476 13.2277 41.4384 13.1691 41.1291 13.1889C40.8198 13.2088 40.5206 13.3065 40.2592 13.4729C37.6365 11.5551 34.5666 10.3404 31.3417 9.94458C31.2325 9.17505 31.0685 8.41429 30.8511 7.66808H30.8535ZM27.0932 7.685C26.8491 8.50667 26.6848 9.36458 26.6026 9.95183C23.3298 10.3612 20.2195 11.6136 17.5764 13.5865C17.3179 13.4331 17.0254 13.3461 16.7252 13.3335C16.4249 13.3208 16.1261 13.3829 15.8557 13.514L13.12 10.3917C14.1229 10.8412 15.1017 11.0683 16.0466 11.0683C16.9414 11.0694 17.8239 10.86 18.6228 10.4569C18.6711 10.4328 23.3256 8.01125 27.0932 7.685ZM7.20402 8.05233C7.20402 8.31817 7.14119 8.53325 7.01794 8.69517C6.90403 8.83184 6.7542 8.93395 6.58535 8.99C6.58535 8.77733 6.64335 8.58883 6.74244 8.44383C6.86204 8.27669 7.02155 8.1421 7.20644 8.05233H7.20402ZM50.8756 8.05233C51.0614 8.14177 51.2217 8.27638 51.342 8.44383C51.4387 8.5985 51.4967 8.77733 51.4967 8.99C51.331 8.93177 51.184 8.82992 51.0713 8.69517C50.9344 8.50973 50.8637 8.28253 50.8756 8.05233ZM26.5881 10.9693C26.6572 11.4628 26.8781 11.9226 27.2201 12.2851C27.5622 12.6475 28.0085 12.8945 28.4973 12.992V13.3424C24.985 13.4526 21.6121 14.7423 18.9224 17.0037L18.2047 16.182C18.3842 15.908 18.4871 15.591 18.5028 15.2638C18.5186 14.9366 18.4465 14.6111 18.2941 14.3212C20.7347 12.5273 23.5865 11.3748 26.5881 10.9693ZM31.3804 10.9693C34.3462 11.3621 37.168 12.4856 39.5922 14.239C39.4519 14.5229 39.388 14.8384 39.4067 15.1545C39.4253 15.4706 39.5259 15.7764 39.6985 16.0418L35.6385 20.6722C35.594 20.7215 35.5599 20.7793 35.5382 20.8421C35.5164 20.9049 35.5076 20.9714 35.5121 21.0377C35.5166 21.104 35.5344 21.1687 35.5644 21.2279C35.5944 21.2872 35.6361 21.3398 35.6869 21.3827C35.7888 21.4705 35.9213 21.5147 36.0556 21.5057C36.1899 21.4966 36.3153 21.4351 36.4046 21.3343L40.4573 16.7113C40.7426 16.8525 41.0599 16.9163 41.3776 16.8964C41.6952 16.8765 42.0021 16.7735 42.2674 16.5977C44.8547 19.3642 46.5111 22.8712 47.0041 26.6268C46.5731 26.7479 46.1839 26.9854 45.879 27.3133C45.5742 27.6411 45.3656 28.0466 45.2762 28.4853L44.6962 28.5094C44.5747 24.7812 43.1264 21.2187 40.612 18.4633C40.5205 18.3723 40.3975 18.3199 40.2684 18.3171C40.1393 18.3143 40.0141 18.3613 39.9188 18.4483C39.8234 18.5353 39.7651 18.6556 39.7561 18.7844C39.747 18.9132 39.7878 19.0405 39.8701 19.14C42.0778 21.5589 43.4126 24.6471 43.6618 27.9125L38.2389 22.5088C38.143 22.4247 38.0188 22.3802 37.8914 22.3842C37.7639 22.3883 37.6428 22.4406 37.5525 22.5306C37.4621 22.6206 37.4094 22.7416 37.4049 22.869C37.4005 22.9964 37.4446 23.1208 37.5284 23.2169L43.3525 29.0387L28.9999 43.3888L14.6498 29.0387L20.4232 23.2653C20.507 23.1691 20.5511 23.0448 20.5466 22.9173C20.5421 22.7899 20.4894 22.6689 20.3991 22.5789C20.3088 22.4889 20.1876 22.4366 20.0602 22.4326C19.9327 22.4285 19.8085 22.4731 19.7127 22.5572L14.3574 27.9125C14.6341 24.3104 16.2304 20.9372 18.8403 18.4392L21.3681 21.3247C21.4648 21.4407 21.6049 21.4963 21.7524 21.4963C21.8741 21.4955 21.9919 21.4529 22.0859 21.3754C22.1358 21.332 22.1766 21.2792 22.2061 21.2199C22.2356 21.1607 22.253 21.0962 22.2575 21.0302C22.262 20.9642 22.2534 20.8979 22.2323 20.8353C22.2111 20.7726 22.1778 20.7147 22.1342 20.6649L19.5991 17.7698C21.9397 15.8064 24.8371 14.6264 27.8834 14.3961L23.5794 18.6567C23.5098 18.7272 23.4627 18.8168 23.4439 18.914C23.425 19.0113 23.4354 19.112 23.4736 19.2034C23.5118 19.2948 23.5762 19.3729 23.6587 19.4278C23.7411 19.4828 23.8379 19.5121 23.937 19.5122C24.0675 19.5122 24.1908 19.4638 24.2971 19.3672L29.0241 14.6861L33.6158 19.2778C33.7119 19.3615 33.8363 19.4056 33.9637 19.4012C34.0911 19.3967 34.2121 19.344 34.3021 19.2536C34.3921 19.1633 34.4444 19.0422 34.4485 18.9147C34.4525 18.7873 34.408 18.6631 34.3239 18.5673L30.1503 14.3937C32.7301 14.5853 35.2125 15.4603 37.3423 16.9288C37.4528 17.0035 37.5883 17.0317 37.7195 17.0073C37.8506 16.9828 37.9669 16.9078 38.0431 16.7983C38.1178 16.6877 38.146 16.5522 38.1216 16.4211C38.0972 16.2899 38.0221 16.1736 37.9126 16.0974C35.4419 14.3944 32.5312 13.4427 29.5316 13.3569V13.0017C30.4741 12.7721 31.2354 11.9625 31.3804 10.9693ZM12.6512 11.3801L15.0993 14.1737C14.9292 14.4322 14.8272 14.7294 14.8027 15.0378C14.7782 15.3462 14.832 15.6559 14.9591 15.9379C12.2278 18.8725 10.488 22.5914 9.9856 26.5688C9.2606 26.6824 8.29877 26.9918 7.57377 27.4558C7.85894 23.1541 9.30169 19.4252 11.9769 16.1143L12.0156 16.0588C12.8639 14.6571 13.0765 13.0573 12.6536 11.3777L12.6512 11.3801ZM45.1191 11.3873C44.6793 13.0669 44.8919 14.6571 45.7402 16.066L45.9528 16.3512C47.8016 18.8234 49.9718 22.6466 50.3874 27.4074C49.6595 26.9579 48.8452 26.6665 47.9973 26.5519C47.4875 22.5282 45.712 18.7707 42.9272 15.8219C43.0652 15.5384 43.1266 15.2238 43.1054 14.9093C43.0842 14.5947 42.9811 14.2912 42.8063 14.0288L45.1191 11.3873ZM41.1993 14.2076H41.3032C41.6802 14.2318 41.9968 14.5 42.0789 14.8601C42.0862 14.9084 42.0959 14.9495 42.0959 14.9978C42.0862 15.0075 42.0959 15.022 42.0959 15.0389C42.0936 15.2155 42.0366 15.3871 41.9328 15.53C41.8289 15.6728 41.6832 15.7799 41.5159 15.8364C41.4314 15.8634 41.3435 15.8781 41.2548 15.8799H41.1751C40.967 15.8617 40.7734 15.7658 40.6328 15.6113C40.4922 15.4568 40.4149 15.2551 40.4163 15.0462C40.4158 14.8328 40.4964 14.6272 40.6417 14.4711C40.7871 14.3149 40.9864 14.2199 41.1993 14.2052V14.2076ZM16.5831 14.3453H16.6387C17.0229 14.3453 17.3492 14.6063 17.4459 14.9664C17.4628 15.0389 17.4797 15.1114 17.4797 15.1839C17.4796 15.3945 17.3999 15.5973 17.2564 15.7516C17.1129 15.9058 16.9164 16 16.7064 16.0153H16.6387C16.4188 16.0134 16.2084 15.9252 16.0529 15.7697C15.8974 15.6142 15.8092 15.4038 15.8074 15.1839C15.8074 15.1453 15.8074 15.1114 15.817 15.0728C15.817 15.0486 15.8243 15.0317 15.8243 15.0075C15.8613 14.8295 15.9554 14.6684 16.0924 14.5489C16.2294 14.4294 16.4017 14.3579 16.5831 14.3453ZM6.80769 16.6122C6.40934 16.6122 6.02731 16.7704 5.74564 17.0521C5.46397 17.3338 5.30573 17.7158 5.30573 18.1141C5.30573 18.5125 5.46397 18.8945 5.74564 19.1762C6.02731 19.4578 6.40934 19.6161 6.80769 19.6161C7.20603 19.6161 7.58806 19.4578 7.86973 19.1762C8.1514 18.8945 8.30964 18.5125 8.30964 18.1141C8.30964 17.7158 8.1514 17.3338 7.86973 17.0521C7.58806 16.7704 7.20603 16.6122 6.80769 16.6122ZM51.023 16.6122C50.8258 16.6123 50.6305 16.6513 50.4483 16.727C50.2662 16.8026 50.1007 16.9134 49.9613 17.0529C49.822 17.1925 49.7115 17.3582 49.6361 17.5405C49.5608 17.7228 49.5221 17.9181 49.5223 18.1153C49.5224 18.3126 49.5614 18.5079 49.6371 18.69C49.7127 18.8722 49.8235 19.0377 49.963 19.177C50.1026 19.3164 50.2683 19.4269 50.4506 19.5022C50.6328 19.5776 50.8282 19.6162 51.0254 19.6161C51.4238 19.6161 51.8058 19.4578 52.0875 19.1762C52.3691 18.8945 52.5274 18.5125 52.5274 18.1141C52.5274 17.7158 52.3691 17.3338 52.0875 17.0521C51.8058 16.7704 51.4214 16.6122 51.023 16.6122ZM15.6116 16.7185C15.8799 16.8938 16.1885 16.9977 16.5082 17.0206C16.8279 17.0434 17.1481 16.9844 17.4386 16.849L18.1636 17.6803C15.1899 20.5114 13.4457 24.3963 13.3061 28.4998L12.8953 28.4756C12.8004 28.0089 12.5709 27.5803 12.235 27.2427C11.8991 26.9051 11.4716 26.6733 11.0054 26.5761C11.4935 22.8956 13.1016 19.4542 15.6116 16.7185ZM16.1505 17.6078C16.0846 17.6082 16.0195 17.6222 15.9592 17.6488C15.899 17.6754 15.8448 17.7141 15.8001 17.7625C15.6696 17.893 12.6681 21.0081 12.1558 25.4113C12.1422 25.5441 12.1815 25.6769 12.2652 25.781C12.3489 25.885 12.4702 25.9519 12.6029 25.9671H12.6609C12.7851 25.9682 12.9052 25.9227 12.9974 25.8394C13.0896 25.7561 13.1472 25.6413 13.1587 25.5176C13.6227 21.4648 16.4937 18.4875 16.5179 18.4633C16.61 18.3679 16.6607 18.2399 16.6589 18.1073C16.6571 17.9747 16.6029 17.8481 16.5082 17.7553C16.4611 17.7086 16.4053 17.6718 16.3439 17.6469C16.2825 17.622 16.2168 17.6095 16.1505 17.6103V17.6078ZM41.888 17.6127C41.789 17.6123 41.6921 17.6411 41.6094 17.6955C41.5267 17.75 41.462 17.8276 41.4233 17.9187C41.3846 18.0099 41.3736 18.1104 41.3918 18.2077C41.41 18.305 41.4565 18.3948 41.5255 18.4658C41.5569 18.4972 44.4255 21.4721 44.8919 25.5248C44.905 25.6479 44.9631 25.7618 45.0549 25.8448C45.1468 25.9277 45.266 25.9738 45.3898 25.9743H45.4453C45.5114 25.9666 45.5753 25.9458 45.6333 25.9132C45.6914 25.8807 45.7424 25.837 45.7835 25.7847C45.8246 25.7324 45.8549 25.6724 45.8728 25.6084C45.8907 25.5443 45.8957 25.4773 45.8876 25.4113C45.3801 21.0081 42.3713 17.893 42.2408 17.7625C42.1471 17.6688 42.0206 17.6151 41.888 17.6127ZM6.80769 17.6248C7.07352 17.6248 7.29585 17.8423 7.29585 18.1129C7.29585 18.2426 7.2445 18.367 7.15302 18.459C7.06154 18.5509 6.93738 18.6029 6.80769 18.6035C6.67758 18.6035 6.55279 18.5518 6.46079 18.4598C6.36879 18.3678 6.3171 18.243 6.3171 18.1129C6.3171 17.8447 6.53702 17.6248 6.80769 17.6248ZM51.023 17.6248C51.2937 17.6248 51.5136 17.8423 51.5136 18.1129C51.5136 18.243 51.4619 18.3678 51.3699 18.4598C51.2779 18.5518 51.1531 18.6035 51.023 18.6035C50.9584 18.6045 50.8943 18.5925 50.8345 18.5681C50.7746 18.5438 50.7203 18.5076 50.6748 18.4619C50.6292 18.4161 50.5933 18.3616 50.5693 18.3016C50.5453 18.2417 50.5335 18.1775 50.5348 18.1129C50.5348 17.8447 50.7524 17.6248 51.023 17.6248ZM4.20735 21.8128C4.13898 21.8082 4.07039 21.8177 4.00586 21.8408C3.94134 21.8638 3.88227 21.9 3.83236 21.9469C3.78245 21.9939 3.74278 22.0507 3.71582 22.1137C3.68886 22.1767 3.6752 22.2446 3.67569 22.3131V31.5013C3.67437 31.567 3.68635 31.6323 3.7109 31.6933C3.73546 31.7543 3.77208 31.8097 3.81857 31.8562C3.86506 31.9027 3.92047 31.9393 3.98146 31.9639C4.04246 31.9884 4.10778 32.0004 4.17352 31.9991C4.3077 31.9984 4.43616 31.9447 4.53082 31.8496C4.62547 31.7545 4.6786 31.6258 4.6786 31.4916V23.2677C5.49302 23.6447 6.29294 23.6181 6.34127 23.6181C6.40739 23.6166 6.47253 23.6018 6.53286 23.5747C6.59319 23.5476 6.64747 23.5087 6.69252 23.4602C6.73757 23.4118 6.77246 23.3549 6.79515 23.2927C6.81783 23.2306 6.82785 23.1646 6.8246 23.0985C6.82309 23.0319 6.80819 22.9664 6.78078 22.9057C6.75337 22.8451 6.71401 22.7905 6.66507 22.7454C6.61612 22.7003 6.55858 22.6655 6.49589 22.6432C6.4332 22.6208 6.36664 22.6113 6.30019 22.6152C6.29294 22.6152 5.2006 22.6393 4.54085 21.9627C4.45179 21.8739 4.33294 21.8214 4.20735 21.8153V21.8128ZM53.749 21.8128C53.6216 21.8191 53.501 21.8725 53.4107 21.9627C52.7509 22.6393 51.6683 22.6152 51.6513 22.6152H51.6344C51.5047 22.6156 51.3801 22.6657 51.2862 22.7551C51.1923 22.8446 51.1361 22.9666 51.1293 23.0961C51.1248 23.229 51.1731 23.3583 51.2637 23.4557C51.3543 23.5531 51.4798 23.6106 51.6127 23.6157C51.661 23.6157 52.4585 23.6398 53.2729 23.2653V31.494C53.2729 31.7695 53.5025 31.9991 53.7804 31.9991C53.9146 31.9984 54.0431 31.9447 54.1377 31.8496C54.2324 31.7545 54.2855 31.6258 54.2855 31.4916V22.3155C54.2833 22.2152 54.252 22.1177 54.1953 22.0349C54.1387 21.9521 54.0592 21.8875 53.9665 21.8491C53.8972 21.8225 53.8231 21.8109 53.749 21.8153V21.8128ZM29.0169 23.8042C27.8327 23.8042 26.8805 24.1957 26.1555 24.9714C25.4692 25.6964 25.1115 26.651 25.0704 27.8231L25.0632 28.0696L25.0704 30.3606H25.0632C25.0632 31.6559 25.4305 32.6927 26.1555 33.466C26.8805 34.2393 27.8351 34.6333 29.0169 34.6333C30.0125 34.6333 30.8342 34.3964 31.4964 33.9155C31.7846 33.7138 32.0291 33.4559 32.2152 33.1573C32.4012 32.8587 32.525 32.5256 32.579 32.1779L32.6032 29.6163C33.3475 29.4374 34.3577 29.0314 34.9933 28.0696C35.031 28.0233 35.0584 27.9695 35.0735 27.9118C35.0887 27.854 35.0914 27.7937 35.0813 27.7349C35.0712 27.676 35.0487 27.62 35.0151 27.5706C34.9816 27.5212 34.9379 27.4796 34.8869 27.4485C34.7888 27.3828 34.6686 27.3587 34.5527 27.3813C34.4368 27.404 34.3345 27.4716 34.2683 27.5693C33.4611 28.7873 31.7477 28.8502 31.6583 28.8502H31.6172C29.505 28.8502 28.6979 30.653 28.6664 30.7279C28.6369 30.796 28.6247 30.8703 28.6309 30.9443C28.6371 31.0182 28.6615 31.0895 28.7019 31.1517C28.7424 31.214 28.7976 31.2652 28.8627 31.3009C28.9277 31.3366 29.0006 31.3556 29.0749 31.3563C29.244 31.3563 29.4084 31.2572 29.4809 31.0856C29.4905 31.0687 30.0439 29.8289 31.4722 29.7492V32.0547C31.4487 32.2923 31.3728 32.5218 31.2499 32.7266C31.1271 32.9313 30.9603 33.1063 30.7617 33.2388C30.3291 33.5409 29.7515 33.6956 29.041 33.6956C28.1952 33.6956 27.4992 33.4008 26.9869 32.8232C26.4649 32.2432 26.2039 31.4215 26.2039 30.3582L26.2111 27.8158C26.2522 26.8782 26.5059 26.1363 26.9844 25.607C27.5089 25.027 28.1928 24.7346 29.041 24.7346C29.7515 24.7346 30.3291 24.8893 30.7617 25.1913C31.1943 25.4934 31.4384 25.9091 31.4794 26.448V26.5036C31.4794 26.6529 31.5388 26.7961 31.6444 26.9017C31.75 27.0073 31.8932 27.0667 32.0425 27.0667C32.1919 27.0667 32.3351 27.0073 32.4407 26.9017C32.5463 26.7961 32.6056 26.6529 32.6056 26.5036V26.4456C32.5739 26.0627 32.4578 25.6917 32.2656 25.359C32.0733 25.0264 31.8098 24.7405 31.4939 24.5219C30.8342 24.0386 30.0125 23.8042 29.0169 23.8042ZM47.6397 27.5307C47.7847 27.5307 47.9418 27.5476 48.0964 27.5718C49.196 27.7506 50.4358 28.4925 50.4599 28.942V28.9662C50.4454 29.4229 49.196 30.1648 48.0964 30.3437C47.9455 30.369 47.7928 30.3827 47.6397 30.3848C47.2619 30.3835 46.9 30.2328 46.6329 29.9657C46.3658 29.6986 46.2151 29.3367 46.2138 28.9589C46.2145 28.5807 46.3648 28.2182 46.632 27.9505C46.8992 27.6829 47.2615 27.5319 47.6397 27.5307ZM10.5173 27.5379C10.8954 27.5379 11.2581 27.6881 11.5255 27.9555C11.7929 28.2229 11.9431 28.5856 11.9431 28.9638C11.9431 29.3421 11.793 29.705 11.5256 29.9728C11.2583 30.2406 10.8956 30.3914 10.5173 30.392C10.3288 30.392 10.1161 30.3678 9.89619 30.3195C8.86185 30.0996 7.5496 29.4471 7.53269 28.9734V28.9493C7.5496 28.4756 8.86185 27.8231 9.89619 27.6128C10.1258 27.5645 10.336 27.5379 10.5173 27.5379ZM12.888 29.4882L13.3061 29.5123C13.3734 31.77 13.9276 33.9866 14.9307 36.0103C15.9338 38.0341 17.3622 39.8173 19.1182 41.238C17.8388 40.946 16.5322 40.7897 15.2201 40.7716C12.9299 38.1029 11.4656 34.8257 11.0054 31.3393C11.4642 31.2442 11.8858 31.0191 12.22 30.6908C12.5543 30.3626 12.7846 29.9451 12.888 29.4882ZM45.2762 29.4882C45.4695 30.3582 46.1317 31.059 46.9944 31.2983C46.541 34.8002 45.0735 38.0931 42.7725 40.7716C41.656 40.7716 40.3583 40.9021 38.8914 41.2211C40.643 39.8013 42.0677 38.0202 43.0683 35.9996C44.0688 33.9789 44.6216 31.7661 44.6889 29.5123L45.2762 29.4882ZM14.3477 30.1552L27.8762 43.6837C24.3788 43.4114 21.0937 41.8986 18.6132 39.4181C16.1327 36.9376 14.62 33.6525 14.3477 30.1552ZM43.6449 30.1552C43.4434 32.7717 42.5454 35.2866 41.044 37.439C39.5427 39.5913 37.4927 41.3027 35.1069 42.3956C34.7806 42.5261 34.551 42.63 34.4399 42.6807C33.0865 43.2172 31.6365 43.5677 30.1189 43.6837L43.6449 30.1552ZM7.58102 30.45C8.30602 30.9237 9.27752 31.233 9.99527 31.3466C10.4275 34.8081 11.8009 38.0847 13.9659 40.8199C13.1411 40.8918 12.3261 41.0506 11.5347 41.2936C9.21211 38.1288 7.84055 34.367 7.58102 30.45ZM50.4116 30.5056C50.2173 33.3369 49.4372 36.097 48.1206 38.6111C47.6324 39.5488 47.0693 40.4478 46.4483 41.3105C45.6608 41.0631 44.8489 40.901 44.0268 40.8272C46.1834 38.0934 47.5559 34.8246 47.9973 31.3708C48.6982 31.2886 49.6673 30.9889 50.4116 30.5056ZM53.8118 32.6274C53.6777 32.6274 53.5489 32.6806 53.4538 32.7752C53.3587 32.8699 53.305 32.9983 53.3043 33.1325C53.3043 33.2671 53.3578 33.3962 53.453 33.4914C53.5482 33.5865 53.6773 33.64 53.8118 33.64C53.9464 33.64 54.0755 33.5865 54.1707 33.4914C54.2659 33.3962 54.3193 33.2671 54.3193 33.1325C54.3193 32.9979 54.2659 32.8688 54.1707 32.7736C54.0755 32.6785 53.9464 32.625 53.8118 32.625V32.6274ZM4.14935 32.6516C4.01686 32.6541 3.8906 32.7084 3.79757 32.8027C3.70455 32.8971 3.65213 33.0241 3.65152 33.1567C3.65152 33.2908 3.70466 33.4196 3.79931 33.5147C3.89396 33.6098 4.02243 33.6635 4.1566 33.6642C4.2912 33.6642 4.42029 33.6107 4.51546 33.5155C4.61063 33.4203 4.6641 33.2913 4.6641 33.1567C4.6641 33.0221 4.61063 32.893 4.51546 32.7978C4.42029 32.7026 4.2912 32.6492 4.1566 32.6492C4.15338 32.6491 4.15016 32.6491 4.14694 32.6492L4.14935 32.6516ZM53.053 34.1258C52.9188 34.1264 52.7904 34.1801 52.6957 34.2752C52.6011 34.3704 52.5479 34.4991 52.5479 34.6333C52.5479 34.9088 52.7775 35.1383 53.0554 35.1383H53.8602C53.9268 35.1383 53.9928 35.1252 54.0544 35.0997C54.116 35.0742 54.1719 35.0368 54.219 34.9897C54.2662 34.9426 54.3035 34.8866 54.329 34.825C54.3546 34.7635 54.3677 34.6975 54.3677 34.6308C54.3664 34.4971 54.3124 34.3692 54.2173 34.2751C54.1223 34.181 53.9939 34.1282 53.8602 34.1282L53.053 34.1258ZM4.10827 34.1451C3.97367 34.1451 3.84459 34.1986 3.74941 34.2937C3.65424 34.3889 3.60077 34.518 3.60077 34.6526C3.60077 34.9281 3.83035 35.1577 4.10827 35.1577H4.91544C5.04961 35.157 5.17808 35.1033 5.27273 35.0082C5.36738 34.9131 5.42052 34.7843 5.42052 34.6502C5.41988 34.516 5.36613 34.3875 5.27102 34.2929C5.17592 34.1982 5.0472 34.1451 4.91302 34.1451H4.10827ZM52.6204 35.5709C52.4863 35.5716 52.3578 35.6253 52.2631 35.7204C52.1685 35.8155 52.1153 35.9442 52.1153 36.0784C52.116 36.2126 52.1697 36.3411 52.2648 36.4357C52.3599 36.5304 52.4887 36.5835 52.6228 36.5835H53.8602C53.9268 36.5835 53.9928 36.5704 54.0544 36.5449C54.116 36.5194 54.1719 36.482 54.219 36.4349C54.2662 36.3877 54.3035 36.3318 54.329 36.2702C54.3546 36.2086 54.3677 36.1426 54.3677 36.076C54.3664 35.9422 54.3124 35.8144 54.2173 35.7203C54.1223 35.6261 53.9939 35.5733 53.8602 35.5733L52.6204 35.5709ZM4.10827 35.5806C4.04162 35.5806 3.97563 35.5937 3.91406 35.6192C3.85249 35.6447 3.79654 35.6821 3.74941 35.7292C3.70229 35.7764 3.66491 35.8323 3.6394 35.8939C3.6139 35.9554 3.60077 36.0214 3.60077 36.0881C3.60077 36.3708 3.83035 36.5908 4.10827 36.5908H5.34802C5.48178 36.5901 5.60988 36.5367 5.70447 36.4421C5.79905 36.3475 5.85247 36.2194 5.8531 36.0857C5.85246 35.9515 5.79871 35.823 5.70361 35.7284C5.6085 35.6337 5.47978 35.5806 5.3456 35.5806H4.10827ZM52.0428 37.0064C51.9762 37.0064 51.9102 37.0195 51.8486 37.045C51.7871 37.0706 51.7311 37.1079 51.684 37.1551C51.6369 37.2022 51.5995 37.2581 51.574 37.3197C51.5485 37.3813 51.5354 37.4473 51.5354 37.5139C51.5354 37.7894 51.7649 38.019 52.0428 38.019H53.8602C53.9268 38.019 53.9928 38.0059 54.0544 37.9804C54.116 37.9549 54.1719 37.9175 54.219 37.8704C54.2662 37.8232 54.3035 37.7673 54.329 37.7057C54.3546 37.6441 54.3677 37.5781 54.3677 37.5115C54.367 37.3773 54.3133 37.2489 54.2182 37.1542C54.1231 37.0596 53.9944 37.0064 53.8602 37.0064H52.0428ZM4.10827 37.0233C3.97367 37.0233 3.84459 37.0768 3.74941 37.172C3.65424 37.2672 3.60077 37.3962 3.60077 37.5308C3.60077 37.8063 3.83035 38.0359 4.10827 38.0359H5.9256C6.0602 38.0359 6.18929 37.9824 6.28446 37.8873C6.37963 37.7921 6.4331 37.663 6.4331 37.5284C6.43246 37.3942 6.37871 37.2658 6.28361 37.1711C6.1885 37.0765 6.05978 37.0233 5.9256 37.0233H4.10827ZM51.3251 38.4492C51.1905 38.4492 51.0614 38.5026 50.9662 38.5978C50.8711 38.693 50.8176 38.8221 50.8176 38.9567C50.8176 39.2322 51.0472 39.4618 51.3251 39.4618H53.8626C53.9968 39.4611 54.1252 39.4074 54.2199 39.3123C54.3145 39.2171 54.3677 39.0884 54.3677 38.9543C54.3664 38.8205 54.3124 38.6926 54.2173 38.5985C54.1223 38.5044 53.9939 38.4516 53.8602 38.4516L51.3251 38.4492ZM4.10827 38.4661C3.97367 38.4661 3.84459 38.5196 3.74941 38.6147C3.65424 38.7099 3.60077 38.839 3.60077 38.9736C3.60077 39.2491 3.83035 39.4787 4.10827 39.4787H6.64577C6.77953 39.4774 6.90737 39.4234 7.00151 39.3283C7.09564 39.2333 7.14844 39.1049 7.14844 38.9712C7.1478 38.8374 7.09438 38.7093 6.9998 38.6147C6.90521 38.5201 6.77711 38.4667 6.64335 38.4661H4.10827ZM50.6001 39.8847C50.4655 39.8847 50.3364 39.9381 50.2412 40.0333C50.1461 40.1285 50.0926 40.2576 50.0926 40.3922C50.0926 40.6677 50.3222 40.8973 50.6001 40.8973H53.8626C53.9292 40.8976 53.9952 40.8846 54.0568 40.8592C54.1184 40.8338 54.1743 40.7964 54.2213 40.7492C54.2683 40.702 54.3055 40.6459 54.3306 40.5842C54.3557 40.5225 54.3683 40.4564 54.3677 40.3897C54.367 40.2556 54.3133 40.1271 54.2182 40.0325C54.1231 39.9378 53.9944 39.8847 53.8602 39.8847H50.6001ZM4.10827 39.8992C4.04162 39.8992 3.97563 39.9123 3.91406 39.9378C3.85249 39.9633 3.79654 40.0007 3.74941 40.0478C3.70229 40.0949 3.66491 40.1509 3.6394 40.2125C3.6139 40.274 3.60077 40.34 3.60077 40.4067C3.60077 40.6894 3.83035 40.9093 4.10827 40.9093H7.37077C7.50453 40.9087 7.63263 40.8553 7.72722 40.7607C7.8218 40.6661 7.87522 40.538 7.87585 40.4043C7.87521 40.2701 7.82146 40.1416 7.72636 40.047C7.63125 39.9523 7.50253 39.8992 7.36835 39.8992H4.10827ZM49.7277 41.3105C49.5935 41.3105 49.4648 41.3636 49.3697 41.4583C49.2746 41.5529 49.2208 41.6814 49.2202 41.8156C49.2202 42.0935 49.4498 42.3231 49.7277 42.3231H50.9843C51.1185 42.3224 51.247 42.2687 51.3416 42.1736C51.4363 42.0785 51.4894 41.9498 51.4894 41.8156C51.4894 41.681 51.436 41.5519 51.3408 41.4567C51.2456 41.3616 51.1165 41.3081 50.9819 41.3081L49.7277 41.3105ZM6.98652 41.3347C6.85192 41.3347 6.72284 41.3881 6.62766 41.4833C6.53249 41.5785 6.47902 41.7076 6.47902 41.8422C6.48029 41.9759 6.53432 42.1038 6.62936 42.1979C6.7244 42.292 6.85276 42.3448 6.98652 42.3448H8.24319C8.37695 42.3442 8.50505 42.2908 8.59963 42.1962C8.69422 42.1016 8.74763 41.9735 8.74827 41.8398C8.74763 41.7056 8.69388 41.5771 8.59877 41.4825C8.50367 41.3878 8.37495 41.3347 8.24077 41.3347H6.98652ZM42.9731 41.7624C43.9059 41.7745 44.8581 41.8833 45.7813 42.1418C45.359 42.6622 44.9122 43.1622 44.4424 43.6402C43.7585 43.4541 42.0137 43.0964 39.6574 43.3502C37.0958 43.6257 33.3306 44.718 29.4833 48.2729V47.3836C29.4826 47.2494 29.4289 47.1209 29.3338 47.0263C29.2387 46.9316 29.1099 46.8785 28.9758 46.8785C28.8416 46.8791 28.7131 46.9329 28.6185 47.028C28.5238 47.1231 28.4707 47.2518 28.4707 47.386V48.2246C24.6475 44.7108 20.8969 43.6257 18.3521 43.3478C15.9379 43.0868 14.1713 43.4783 13.526 43.6571C13.0862 43.2011 12.6645 42.7279 12.2621 42.2385C12.2379 42.2071 12.2138 42.1829 12.1896 42.1491C14.6425 41.4724 17.325 41.8325 19.2076 42.2796C21.4841 42.8258 23.1468 43.6184 23.1637 43.6257L23.1709 43.6088C26.9004 45.097 31.0583 45.1004 34.7903 43.6184L34.8386 43.5943C35.0513 43.5024 35.2712 43.413 35.4742 43.3163C36.5336 42.8861 37.6243 42.5371 38.7367 42.2723C40.1226 41.9293 41.5454 41.758 42.9731 41.7624ZM48.5846 42.746C48.4508 42.7466 48.3227 42.8001 48.2282 42.8946C48.1336 42.9892 48.0802 43.1173 48.0795 43.2511C48.0802 43.3853 48.1339 43.5137 48.229 43.6084C48.3241 43.703 48.4528 43.7562 48.587 43.7562H51.6997C51.9776 43.7562 52.2072 43.5363 52.2072 43.2487C52.2059 43.1149 52.1519 42.9871 52.0568 42.8929C51.9618 42.7988 51.8334 42.746 51.6997 42.746H48.5846ZM6.26877 42.7702C6.13459 42.7702 6.00587 42.8233 5.91076 42.918C5.81566 43.0126 5.76191 43.1411 5.76127 43.2753C5.76127 43.5532 5.99085 43.7828 6.26877 43.7828H9.38385C9.51803 43.7821 9.6465 43.7284 9.74115 43.6333C9.8358 43.5381 9.88894 43.4094 9.88894 43.2753C9.88958 43.2084 9.8769 43.1421 9.85162 43.0803C9.82634 43.0184 9.78899 42.9622 9.74173 42.915C9.69448 42.8677 9.63827 42.8303 9.57641 42.8051C9.51455 42.7798 9.44826 42.7671 9.38144 42.7678L6.26877 42.7702ZM47.2893 44.1888C47.1551 44.1887 47.0264 44.2419 46.9313 44.3365C46.8362 44.4312 46.7824 44.5597 46.7818 44.6938C46.7818 44.9718 47.0114 45.2013 47.2893 45.2013H49.7277C49.8619 45.2007 49.9903 45.1469 50.085 45.0518C50.1796 44.9567 50.2328 44.828 50.2328 44.6938C50.2328 44.5592 50.1793 44.4302 50.0841 44.335C49.9889 44.2398 49.8599 44.1863 49.7253 44.1863L47.2893 44.1888ZM51.7722 44.1888C51.6401 44.1919 51.5145 44.2464 51.422 44.3407C51.3294 44.435 51.2774 44.5617 51.2768 44.6938C51.2768 44.828 51.3299 44.9567 51.4246 45.0518C51.5192 45.1469 51.6477 45.2007 51.7818 45.2013C51.8485 45.2013 51.9145 45.1882 51.9761 45.1627C52.0376 45.1372 52.0936 45.0998 52.1407 45.0527C52.1878 45.0056 52.2252 44.9496 52.2507 44.888C52.2762 44.8265 52.2893 44.7605 52.2893 44.6938C52.2893 44.5592 52.2359 44.4302 52.1407 44.335C52.0455 44.2398 51.9164 44.1863 51.7818 44.1863C51.7786 44.1863 51.7754 44.1887 51.7722 44.1888ZM6.19385 44.2057C6.06009 44.2063 5.93199 44.2597 5.83741 44.3543C5.74282 44.4489 5.68941 44.577 5.68877 44.7108C5.68941 44.8449 5.74316 44.9734 5.83826 45.068C5.93337 45.1627 6.06209 45.2158 6.19627 45.2158C6.33045 45.2152 6.45891 45.1614 6.55357 45.0663C6.64822 44.9712 6.70135 44.8425 6.70135 44.7083C6.70008 44.5746 6.64605 44.4467 6.55101 44.3526C6.45597 44.2585 6.32762 44.2057 6.19385 44.2057ZM8.24077 44.2057C8.10701 44.2063 7.97891 44.2597 7.88432 44.3543C7.78974 44.4489 7.73632 44.577 7.73569 44.7108C7.73569 44.9863 7.96527 45.2158 8.24319 45.2158H10.6792C10.8138 45.2158 10.9429 45.1624 11.038 45.0672C11.1332 44.972 11.1867 44.8429 11.1867 44.7083C11.1854 44.5746 11.1314 44.4467 11.0363 44.3526C10.9413 44.2585 10.813 44.2057 10.6792 44.2057H8.24077ZM16.8127 44.2854C17.2767 44.2878 17.7818 44.3144 18.3183 44.3748C22.8447 44.8823 26.3174 47.4682 28.4949 49.6359V51.1101C28.4104 51.1566 28.3289 51.2083 28.2508 51.2648C27.6229 50.4572 26.9215 49.7097 26.1555 49.0318C24.1014 47.212 20.6431 45.1578 15.8654 45.7282V45.7378C15.3605 45.3492 14.8734 44.9379 14.4057 44.5053C15.1988 44.3534 16.0051 44.2781 16.8127 44.2854ZM41.2113 44.2903C42.2167 44.2854 43.0359 44.3918 43.5966 44.4981C43.1333 44.9298 42.6485 45.3379 42.1442 45.7209C37.3833 45.1651 33.942 47.2144 31.8879 49.0245C31.1103 49.7129 30.3998 50.4735 29.766 51.2962C29.6694 51.2333 29.5799 51.1681 29.5002 51.127V49.6915C33.3548 45.82 37.1852 44.6624 39.7299 44.3748C40.2592 44.3168 40.7546 44.2927 41.2113 44.2903ZM45.7063 45.6315C45.5722 45.6321 45.4437 45.6859 45.3491 45.781C45.2544 45.8761 45.2013 46.0048 45.2013 46.139C45.2025 46.2728 45.2566 46.4006 45.3516 46.4947C45.4466 46.5889 45.575 46.6417 45.7088 46.6417H47.0935C47.2277 46.6417 47.3564 46.5885 47.4515 46.4939C47.5466 46.3992 47.6004 46.2708 47.601 46.1366C47.6004 46.0024 47.5466 45.8739 47.4515 45.7793C47.3564 45.6846 47.2277 45.6315 47.0935 45.6315H45.7063ZM48.5363 45.6315C48.4021 45.6321 48.2736 45.6859 48.179 45.781C48.0843 45.8761 48.0312 46.0048 48.0312 46.139C48.0325 46.2728 48.0865 46.4006 48.1815 46.4947C48.2766 46.5889 48.4049 46.6417 48.5387 46.6417C48.672 46.6404 48.7995 46.5867 48.8936 46.4922C48.9876 46.3977 49.0407 46.2699 49.0413 46.1366C49.0407 46.0028 48.9873 45.8747 48.8927 45.7801C48.7981 45.6856 48.67 45.6321 48.5363 45.6315ZM9.43219 45.6484C9.29969 45.6509 9.17343 45.7052 9.08041 45.7996C8.98738 45.894 8.93496 46.021 8.93435 46.1535C8.93435 46.2201 8.94748 46.2861 8.97298 46.3477C8.99849 46.4093 9.03587 46.4652 9.083 46.5124C9.13012 46.5595 9.18607 46.5969 9.24764 46.6224C9.30921 46.6479 9.37521 46.661 9.44185 46.661C9.57561 46.6597 9.70346 46.6057 9.79759 46.5107C9.89172 46.4156 9.94452 46.2873 9.94452 46.1535C9.94452 46.0193 9.89138 45.8906 9.79673 45.7955C9.70208 45.7004 9.57361 45.6466 9.43944 45.646C9.43702 45.646 9.4346 45.6484 9.43219 45.6484ZM10.8749 45.6484C10.7408 45.6484 10.612 45.7016 10.5169 45.7962C10.4218 45.8909 10.3681 46.0193 10.3674 46.1535C10.3674 46.4314 10.597 46.661 10.8749 46.661H12.2621C12.3963 46.6604 12.5247 46.6066 12.6194 46.5115C12.7141 46.4164 12.7672 46.2877 12.7672 46.1535C12.7672 46.0189 12.7137 45.8898 12.6185 45.7946C12.5234 45.6995 12.3943 45.646 12.2597 45.646L10.8749 45.6484ZM17.4241 46.6393C20.3845 46.6199 23.0767 47.6639 25.4619 49.7568C26.3078 50.4987 26.9796 51.2648 27.4847 51.9269C27.3251 52.1008 27.1857 52.2921 27.069 52.4973C26.215 51.3931 25.1874 50.435 24.0264 49.6601L24.0361 49.6359C24.013 49.6265 23.9885 49.6208 23.9636 49.619C22.4878 48.6585 20.8202 48.0316 19.0771 47.7823C18.4105 47.4368 17.7627 47.056 17.1365 46.6417L17.4265 46.6368L17.4241 46.6393ZM40.5782 46.6393L40.8633 46.6417C40.2315 47.0593 39.5781 47.4432 38.9059 47.792C36.0266 48.2222 33.3975 49.6715 31.4964 51.8762C31.3021 52.0942 31.1167 52.3199 30.9405 52.5528C30.8233 52.3474 30.6874 52.1533 30.5345 51.9728C31.0396 51.3155 31.7235 50.5228 32.5887 49.7664C34.957 47.6808 37.6395 46.6344 40.5782 46.6393ZM12.2379 50.9168C12.3517 50.9106 12.4655 50.9278 12.5724 50.9671C12.6793 51.0064 12.7771 51.0671 12.8598 51.1455C12.9425 51.2238 13.0083 51.3182 13.0533 51.4228C13.0983 51.5275 13.1215 51.6402 13.1215 51.7541C13.1215 51.868 13.0983 51.9808 13.0533 52.0854C13.0083 52.1901 12.9425 52.2844 12.8598 52.3628C12.7771 52.4412 12.6793 52.5018 12.5724 52.5412C12.4655 52.5805 12.3517 52.5976 12.2379 52.5915C12.0155 52.5915 11.8022 52.5032 11.645 52.3459C11.4877 52.1886 11.3994 51.9753 11.3994 51.7529C11.3994 51.5305 11.4877 51.3172 11.645 51.16C11.8022 51.0027 12.0155 50.9168 12.2379 50.9168ZM45.7233 50.9168C45.837 50.9105 45.9508 50.9274 46.0578 50.9666C46.1648 51.0058 46.2626 51.0663 46.3454 51.1446C46.4282 51.2228 46.4942 51.3171 46.5394 51.4217C46.5845 51.5263 46.6079 51.6389 46.608 51.7529C46.6082 51.8668 46.5852 51.9795 46.5403 52.0842C46.4955 52.1889 46.4297 52.2834 46.3472 52.3619C46.2646 52.4404 46.1669 52.5012 46.0601 52.5407C45.9532 52.5802 45.8394 52.5974 45.7257 52.5915C45.5033 52.5915 45.29 52.5032 45.1327 52.3459C44.9755 52.1886 44.8871 51.9753 44.8871 51.7529C44.8871 51.5305 44.9755 51.3172 45.1327 51.16C45.29 51.0027 45.5033 50.9143 45.7257 50.9143L45.7233 50.9168ZM28.9758 51.9922H28.9854C29.041 52.0236 29.099 52.0647 29.1715 52.113C29.4605 52.3021 29.712 52.543 29.9134 52.8235C30.0836 53.0519 30.1986 53.3166 30.2494 53.5968C30.3388 54.1938 30.085 54.8463 29.5074 55.5543C29.3465 55.7461 29.1746 55.9285 28.9927 56.1005L28.9854 56.1077L28.9758 56.115V56.0981C28.9589 56.0812 28.9347 56.0667 28.9178 56.0425C28.7657 55.8953 28.6221 55.7395 28.4876 55.5761C27.8907 54.868 27.6297 54.2058 27.7215 53.6041C27.7288 53.5558 27.736 53.5074 27.7529 53.4567C27.8173 53.2087 27.9307 52.9762 28.0864 52.7728C28.2097 52.6084 28.3474 52.4707 28.4876 52.3474C28.6084 52.2411 28.7293 52.1541 28.838 52.0792C28.8864 52.0453 28.9274 52.0212 28.9685 51.997C28.9685 51.997 28.9758 51.9994 28.9758 51.9922ZM28.9854 56.1077C28.9927 56.1005 28.9854 56.1005 28.9854 56.0908V56.1077ZM47.4125 53.4108C47.6953 53.4108 47.9853 53.4494 48.268 53.5316C49.3773 53.8578 50.1603 55.0734 50.3705 55.4408C50.6315 55.8975 50.9819 56.4993 51.4967 56.9729H45.8634C45.6553 56.218 45.3533 55.4921 44.9644 54.8124C45.4478 53.9473 46.4023 53.418 47.4125 53.4108ZM10.8604 53.5026C11.7812 53.5147 12.5835 53.9617 13.0354 54.7399C12.6305 55.442 12.3155 56.1922 12.0978 56.9729H6.79077C7.18646 56.5423 7.52589 56.0632 7.80094 55.5471C8.0136 55.1798 8.7966 53.9569 9.90344 53.6379C10.2321 53.5413 10.5511 53.4978 10.8604 53.5026Z" fill="#ACACAC"/>
</svg>
