<svg viewBox="0 0 512 512" fill="none" xmlns="http://www.w3.org/2000/svg">
<path d="M292.18 294.09C290.809 295.024 289.706 296.302 288.984 297.795C288.261 299.289 287.943 300.946 288.061 302.601C288.18 304.256 288.731 305.851 289.659 307.227C290.587 308.603 291.86 309.71 293.35 310.44C316.022 321.406 339.832 329.844 364.35 335.6C368.625 336.616 373.102 336.387 377.25 334.939C381.399 333.491 385.046 330.885 387.76 327.43C402.072 309.105 413.789 288.895 422.58 267.37C437.08 231.83 445.13 188.72 431.11 144.29C431.11 144.29 409.65 87.8997 351.9 88.8097C343.26 88.9497 341.04 100.72 348.97 104.13C366.73 111.77 384.29 127.91 384.61 161.85C384.669 181.831 378.851 201.389 367.88 218.09C355.06 237.82 331.29 267.68 292.18 294.09Z" fill="white"/>
<path d="M67.5396 395.1C87.4119 407.505 109.621 415.694 132.79 419.16C150.223 421.852 167.839 423.189 185.48 423.16C187.094 423.153 188.663 422.624 189.952 421.652C191.241 420.679 192.181 419.316 192.631 417.765C193.081 416.215 193.017 414.56 192.449 413.049C191.881 411.538 190.839 410.251 189.48 409.38C168.497 396.073 149.462 379.919 132.92 361.38C131.426 359.72 129.963 358.054 128.53 356.38C126.794 354.307 124.598 352.667 122.118 351.591C119.637 350.514 116.94 350.031 114.24 350.18H114.05C102.929 350.864 91.7723 349.667 81.0496 346.64C63.9196 341.73 43.6596 330.97 45.2996 307.64C46.1496 295.5 53.3496 285.35 59.1496 276.5C64.0296 269.05 54.8396 260.44 47.7196 265.78L46.2196 266.92C16.4096 290.01 9.9096 332.92 32.2196 363.25C39.9996 373.88 51.3196 384.85 67.5396 395.1Z" fill="white"/>
<path d="M470.71 286.69L469.3 285.39C462.71 279.44 452.81 287.22 456.98 295.06C461.98 304.4 468.18 315.15 467.92 327.32C467.43 350.37 446.92 359.32 429.57 362.77C418.336 364.952 406.81 365.179 395.5 363.44C241.5 340.31 177.22 251.31 154.85 208.72C145.456 191.083 141.45 171.075 143.33 151.18C146.74 117.41 165.7 102.94 184.08 96.9601C192.29 94.2801 191.15 82.3501 182.56 81.4301C125.13 75.2601 98.6196 129.43 98.6196 129.43C80.6196 172.43 84.6896 216.06 95.8896 252.77C117.39 323.23 168.89 381.57 236.78 410.04C287.17 431.16 339.27 432.32 370.58 430.36C393.967 429.03 416.831 422.903 437.75 412.36C454.85 403.63 467.09 393.74 475.84 383.87C500.86 355.68 498.3 312.4 470.71 286.69Z" fill="white"/>
</svg>
