<svg width="59" height="58" viewBox="0 0 59 58" fill="none" xmlns="http://www.w3.org/2000/svg">
<path d="M4.375 3.625V54.375H55.125V3.625H4.375ZM31.5625 43.0469C31.5625 47.9871 28.6444 50.3954 24.4201 50.3954C20.6048 50.3954 18.3902 48.4198 17.2664 46.0352L21.1497 43.6846C21.8985 45.0134 22.4671 46.1372 24.1018 46.1372C25.4612 46.1372 26.5781 45.5243 26.5781 43.1398V27.1875H31.5625V43.0469ZM42.817 50.2821C38.3888 50.2821 35.5273 48.2839 34.1306 45.5243L38.0195 43.2734C39.0391 44.9432 40.3701 46.0556 42.7207 46.0556C44.6963 46.0556 45.8439 45.1811 45.8439 43.8183C45.8439 42.1837 44.6623 41.6048 42.4817 40.6464L41.29 40.1344C37.8485 38.6708 35.567 36.8311 35.567 32.9467C35.567 29.3704 38.2914 26.7582 42.5496 26.7582C45.5822 26.7582 47.7606 27.7007 49.3295 30.4602L45.6094 32.8516C44.7915 31.3868 43.9102 30.8125 42.544 30.8125C41.1472 30.8125 40.2614 31.6984 40.2614 32.8516C40.2614 34.2823 41.1472 34.8612 43.1908 35.747L44.3825 36.2579C48.4369 37.9957 50.7195 39.7696 50.7195 43.7526C50.7206 48.046 47.3482 50.2821 42.817 50.2821Z" fill="#ACACAC"/>
</svg>
