<svg width="27" height="58" viewBox="0 0 27 58" fill="none" xmlns="http://www.w3.org/2000/svg">
<path d="M13.094 0.158386L14.6417 3.06542C14.9897 3.60188 15.3667 4.07672 15.8107 4.51894C17.1125 5.80449 18.3259 7.17656 19.4427 8.62575C22.0652 12.0692 23.8341 15.8933 25.0973 20.0292C25.8548 22.5556 26.2662 25.1473 26.2971 27.7679C26.4239 35.6028 23.738 42.3303 18.3226 47.9214C17.4418 48.8081 16.4902 49.6215 15.4772 50.3536C14.9408 50.3536 14.687 49.9422 14.4659 49.5634C14.0633 48.8611 13.7953 48.0897 13.6757 47.2889C13.4854 46.3411 13.3604 45.3932 13.422 44.4145V43.9723C13.3785 43.8781 12.9055 0.381307 13.094 0.158386Z" fill="#797B78"/>
<path d="M13.0944 0.0623508C13.0309 -0.0645147 12.9675 0.0315406 12.9041 0.093161C12.9349 0.727488 12.7138 1.29295 12.3676 1.83303C11.987 2.36949 11.4832 2.7809 10.9775 3.22311C8.16836 5.65531 5.95727 8.59315 4.18659 11.879C1.83052 16.3011 0.616237 21.0405 0.271887 26.0299C0.114212 27.8296 0.84097 34.1801 1.40824 36.0124C2.956 40.8768 5.73617 44.9528 9.33734 48.4905C10.2218 49.3423 11.1678 50.1325 12.1465 50.8919C12.431 50.8919 12.4619 50.6382 12.5271 50.4497C12.6518 50.0464 12.7469 49.6345 12.8116 49.2173L13.446 44.4798L13.0944 0.0623508Z" fill="#ACACAC"/>
<path d="M14.6421 52.2784C14.7055 51.5534 15.0535 50.9517 15.4323 50.3518C15.0517 50.1941 14.769 49.8806 14.5479 49.5308C14.3572 49.1996 14.1994 48.8506 14.0767 48.4887C13.6344 47.1621 13.5402 45.7702 13.4133 44.4145V43.5935C13.2557 43.7204 13.223 44.7933 13.223 44.9528C13.1308 46.3856 12.9407 47.8104 12.6539 49.2173C12.5597 49.7864 12.4963 50.3536 12.1465 50.8593C12.1465 50.9227 12.1465 50.9861 12.1773 51.0804C12.7464 52.755 12.9022 54.4604 12.9983 56.1985V56.8328C12.9983 57.5904 12.9675 57.4309 13.5964 57.6846C13.8501 57.7789 14.1328 57.8115 14.3866 58C14.5769 58 14.6077 57.8423 14.6077 57.7155L14.5134 56.6733V53.7663C14.4826 53.2588 14.5769 52.755 14.6403 52.2802L14.6421 52.2784Z" fill="#D2D2D2"/>
</svg>
