<svg width="52" height="58" viewBox="0 0 52 58" fill="none" xmlns="http://www.w3.org/2000/svg">
<g clip-path="url(#clip0_2023_420)">
<path d="M25.7499 57.5469C24.9872 57.5469 24.2131 57.343 23.5414 56.9578L16.5175 52.8231C15.4702 52.234 15.9825 52.0301 16.324 51.9168C17.7242 51.4297 18.0088 51.3277 19.5001 50.4781C19.6595 50.3875 19.8644 50.4215 20.0238 50.5235L25.4198 53.7067C25.6133 53.8199 25.8865 53.8199 26.0687 53.7067L47.0948 41.6309C47.2883 41.5176 47.4135 41.291 47.4135 41.0645V16.9129C47.4135 16.675 47.2883 16.4598 47.0834 16.3352L26.0687 4.27072C25.8751 4.15743 25.6133 4.15743 25.4198 4.27072L4.41642 16.3465C4.21151 16.4598 4.08629 16.6863 4.08629 16.9242V41.0645C4.08629 41.291 4.21151 41.5176 4.41642 41.6195L10.1767 44.9274C13.3073 46.4793 15.2198 44.6555 15.2198 42.809V18.9746C15.2198 18.6348 15.493 18.3742 15.8345 18.3742H18.4983C18.8285 18.3742 19.1131 18.6348 19.1131 18.9746V42.8203C19.1131 46.9664 16.8363 49.3453 12.8861 49.3453C11.668 49.3453 10.7117 49.3453 8.04789 48.0313L2.53807 44.8707C1.172 44.0891 0.32959 42.6277 0.32959 41.0531V16.9129C0.32959 15.3496 1.172 13.877 2.53807 13.0953L23.5414 1.01954C24.8733 0.271887 26.6378 0.271887 27.9584 1.01954L48.9845 13.1067C50.3506 13.8883 51.193 15.3496 51.193 16.9242V41.0645C51.193 42.6277 50.3506 44.0891 48.9845 44.882L27.9584 56.9578C27.2867 57.343 26.524 57.5469 25.7499 57.5469ZM42.7233 33.7465C42.7233 29.2266 39.6497 28.0258 33.195 27.1762C26.6606 26.3152 26.0003 25.8734 26.0003 24.3555C26.0003 23.0981 26.5582 21.4215 31.3963 21.4215C35.7108 21.4215 37.3046 22.3504 37.9649 25.2504C38.0218 25.5223 38.2722 25.7262 38.5568 25.7262H41.289C41.4597 25.7262 41.6191 25.6582 41.7329 25.5336C41.8468 25.409 41.9037 25.2391 41.8923 25.0692C41.4711 20.0734 38.1356 17.7512 31.3963 17.7512C25.397 17.7512 21.8224 20.266 21.8224 24.4914C21.8224 29.068 25.3856 30.3367 31.1345 30.9031C38.0218 31.5715 38.5568 32.5797 38.5568 33.9277C38.5568 36.2613 36.6671 37.2582 32.2387 37.2582C26.672 37.2582 25.4539 35.8649 25.0441 33.1121C24.9986 32.8176 24.7481 32.6024 24.4408 32.6024H21.72C21.3785 32.6024 21.1166 32.8742 21.1166 33.2027C21.1166 36.7258 23.0405 40.9285 32.2501 40.9285C38.8983 40.9172 42.7233 38.3004 42.7233 33.7465Z" fill="#ACACAC"/>
</g>
<defs>
<clipPath id="clip0_2023_420">
<rect width="51" height="58" fill="white" transform="translate(0.25)"/>
</clipPath>
</defs>
</svg>
