<svg width="19" height="19" viewBox="0 0 19 19" fill="none" xmlns="http://www.w3.org/2000/svg">
<path fill-rule="evenodd" clip-rule="evenodd" d="M5.56248 6.83954L7.27943 5.07713C7.53738 4.81268 7.60211 4.43635 7.44678 4.10069L5.78624 0.507364C5.62166 0.152293 5.25922 -0.0455767 4.87182 0.00896224L0.885909 0.567466C0.504976 0.621096 0.213749 0.902204 0.146244 1.2813C-1.36544 9.85581 9.14437 20.3664 17.7188 18.8536C18.0979 18.787 18.379 18.4957 18.4326 18.1147L18.991 14.1285C19.0456 13.741 18.8477 13.3776 18.4927 13.214L14.8987 11.5533C14.5631 11.3989 14.1868 11.4627 13.9224 11.7206L12.1601 13.4378C11.9068 13.6846 11.5527 13.7549 11.2244 13.6227C8.94812 12.7073 6.29271 10.0526 5.37837 7.77608C5.24523 7.4469 5.31562 7.0929 5.56248 6.83954Z" fill="black"/>
</svg>
