<svg width="59" height="58" viewBox="0 0 59 58" fill="none" xmlns="http://www.w3.org/2000/svg">
<g clip-path="url(#clip0_2023_436)">
<path d="M47.6242 20.0734C47.0125 19.8695 46.4008 19.6769 45.7891 19.4957C45.891 19.0766 45.9816 18.6574 46.0723 18.2383C47.4656 11.4867 46.548 6.06053 43.4555 4.27069C40.4762 2.56014 35.6164 4.33866 30.7 8.62069C30.2129 9.03983 29.7371 9.48163 29.284 9.92343C28.9781 9.62889 28.6609 9.33436 28.3438 9.05116C23.1895 4.4746 18.0238 2.54882 14.9313 4.34999C11.9633 6.07186 11.0797 11.1808 12.3258 17.5699C12.4504 18.2043 12.5863 18.8273 12.7449 19.4617C12.0199 19.6656 11.3062 19.8922 10.6379 20.1301C4.58867 22.2258 0.25 25.5336 0.25 28.9547C0.25 32.4891 4.87188 36.0348 11.159 38.1871C11.6688 38.357 12.1785 38.5269 12.6996 38.6742C12.5297 39.3539 12.3824 40.0223 12.2465 40.7133C11.057 47.0004 11.9859 51.9848 14.9539 53.6953C18.0125 55.4625 23.1555 53.65 28.1625 49.266C28.559 48.9148 28.9555 48.5523 29.352 48.1672C29.8504 48.6543 30.3715 49.1187 30.8926 49.5719C35.741 53.7406 40.5328 55.4285 43.4895 53.718C46.548 51.9508 47.5449 46.5926 46.2535 40.0676C46.1516 39.5691 46.0383 39.0594 45.9137 38.5383C46.2762 38.4363 46.6273 38.323 46.9785 38.2098C53.5148 36.0461 58.25 32.5457 58.25 28.9547C58.25 25.5223 53.7867 22.1918 47.6242 20.0734ZM32.2973 10.4558C36.5113 6.78553 40.4422 5.34686 42.232 6.37772C44.1465 7.47655 44.8828 11.9172 43.682 17.7512C43.6027 18.1363 43.5234 18.5101 43.4215 18.884C40.9066 18.3176 38.3578 17.9098 35.7977 17.6832C34.325 15.5762 32.7164 13.5598 30.9719 11.668C31.4137 11.2488 31.8441 10.8523 32.2973 10.4558ZM19.1906 34.834C19.7684 35.8195 20.3574 36.8051 20.9805 37.768C19.2133 37.5754 17.4574 37.2922 15.7242 36.9183C16.2227 35.2871 16.8457 33.5992 17.5707 31.8773C18.0918 32.8742 18.6242 33.8598 19.1906 34.834ZM15.7582 21.2062C17.3895 20.8437 19.1227 20.5492 20.9238 20.3226C20.3234 21.2629 19.7344 22.2258 19.1793 23.2C18.6242 24.1629 18.0805 25.1484 17.5707 26.1453C16.857 24.4574 16.2566 22.8035 15.7582 21.2062ZM18.8621 29.0113C19.6098 27.448 20.4254 25.9187 21.2863 24.4121C22.1473 22.9055 23.0762 21.4441 24.0504 20.0055C25.7496 19.8808 27.4828 19.8129 29.25 19.8129C31.0172 19.8129 32.7617 19.8808 34.4496 20.0055C35.4125 21.4328 36.3301 22.8941 37.2023 24.3894C38.0746 25.8848 38.8902 27.4141 39.6605 28.966C38.9016 30.5293 38.0859 32.0699 37.2137 33.5879C36.3527 35.0945 35.4352 36.5558 34.4723 38.0058C32.7844 38.1305 31.0285 38.1871 29.25 38.1871C27.4715 38.1871 25.7496 38.1305 24.0844 38.0285C23.0988 36.5898 22.1699 35.1172 21.2977 33.6105C20.4254 32.1039 19.6211 30.5746 18.8621 29.0113ZM39.3207 34.8113C39.8984 33.8144 40.4422 32.8062 40.9746 31.7867C41.6996 33.4293 42.334 35.0945 42.8891 36.8051C41.1332 37.2016 39.3547 37.5074 37.5648 37.7113C38.1766 36.7598 38.7543 35.7855 39.3207 34.8113ZM40.952 26.1453C40.4195 25.1484 39.8758 24.1516 39.3094 23.1773C38.7543 22.2144 38.1766 21.2629 37.5762 20.3226C39.4 20.5492 41.1445 20.8551 42.7758 21.2289C42.2547 22.9055 41.643 24.5367 40.952 26.1453ZM29.2727 13.4012C30.4621 14.6926 31.5836 16.0519 32.6258 17.4566C30.3828 17.3547 28.1285 17.3547 25.8855 17.4566C26.9957 15.9953 28.1398 14.6359 29.2727 13.4012ZM16.132 6.45702C18.0352 5.34686 22.2605 6.9328 26.7125 10.875C26.9957 11.1242 27.2789 11.3961 27.5734 11.668C25.8176 13.5598 24.1977 15.5762 22.7137 17.6832C20.1535 17.9098 17.616 18.3062 15.1012 18.8613C14.9539 18.2836 14.8293 17.6945 14.7047 17.1055C13.6398 11.6226 14.3422 7.48788 16.132 6.45702ZM13.3566 36.318C12.8809 36.182 12.4164 36.0348 11.952 35.8762C9.53906 35.1172 6.79766 33.9164 4.81523 32.3418C3.67109 31.5488 2.90078 30.3254 2.68555 28.9547C2.68555 26.8816 6.26523 24.2308 11.4309 22.4297C12.0766 22.2031 12.7336 21.9992 13.3906 21.8066C14.1609 24.2648 15.0898 26.6777 16.166 29.0113C15.0785 31.3789 14.1383 33.8258 13.3566 36.318ZM26.5652 47.4195C24.6961 49.1301 22.5324 50.4894 20.1762 51.4183C18.9187 52.0187 17.4688 52.0754 16.1773 51.5656C14.3762 50.5234 13.6285 46.5246 14.648 41.1437C14.7727 40.5094 14.9086 39.875 15.0672 39.2519C17.6047 39.7957 20.1648 40.1695 22.759 40.3621C24.2543 42.4805 25.8969 44.5082 27.6527 46.4113C27.2902 46.7625 26.9277 47.1023 26.5652 47.4195ZM29.3406 44.6668C28.1852 43.4207 27.0297 42.0387 25.9082 40.5547C26.9957 40.6 28.1172 40.6226 29.25 40.6226C30.4168 40.6226 31.5609 40.6 32.6937 40.5433C31.6516 41.982 30.5301 43.3527 29.3406 44.6668ZM44.1465 48.0652C44.0445 49.4473 43.3648 50.7387 42.2773 51.6109C40.4762 52.6531 36.6359 51.2937 32.4898 47.7367C32.0141 47.3289 31.5383 46.8871 31.0512 46.434C32.7844 44.5195 34.3816 42.4918 35.8316 40.3621C38.4258 40.1469 41.0086 39.7504 43.5574 39.1726C43.6707 39.6371 43.7727 40.1016 43.8633 40.5547C44.4184 43.0016 44.509 45.5504 44.1465 48.0652ZM46.2082 35.8875C45.891 35.9894 45.5738 36.0914 45.2453 36.182C44.4523 33.7125 43.4781 31.2996 42.3566 28.9547C43.4441 26.6437 44.3617 24.2648 45.132 21.8293C45.7211 21.9992 46.2875 22.1805 46.8313 22.3617C52.1102 24.1742 55.8145 26.8703 55.8145 28.932C55.8145 31.1523 51.8609 34.0183 46.2082 35.8875ZM29.25 34.1883C32.116 34.1883 34.4383 31.866 34.4383 29C34.4383 26.134 32.116 23.8117 29.25 23.8117C26.384 23.8117 24.0617 26.134 24.0617 29C24.0617 31.866 26.384 34.1883 29.25 34.1883Z" fill="#ACACAC"/>
</g>
<defs>
<clipPath id="clip0_2023_436">
<rect width="58" height="58" fill="white" transform="translate(0.25)"/>
</clipPath>
</defs>
</svg>
