<svg width="59" height="46" viewBox="0 0 59 46" fill="none" xmlns="http://www.w3.org/2000/svg">
<g clip-path="url(#clip0_2023_410)">
<path d="M27.8542 34.0436C27.827 34.0975 27.7998 34.1406 27.8542 34.0436ZM50.4316 26.2272C48.6089 26.2266 46.8104 26.6416 45.1753 27.4401C44.6406 26.3709 44.0878 25.4365 43.9972 24.7358C43.8885 23.9182 43.7706 23.433 43.8975 22.4627C44.0244 21.4924 44.5953 20.1178 44.5863 20.019C44.5772 19.9201 44.4594 19.426 43.2903 19.417C42.1213 19.408 41.1153 19.6416 40.9984 19.9471C40.7919 20.5053 40.6313 21.0792 40.5181 21.6631C40.3097 22.7143 38.1809 26.4698 36.9756 28.4283C36.5768 27.6647 36.2415 26.9908 36.169 26.4518C36.0603 25.6342 35.9425 25.149 36.0693 24.1787C36.1962 23.2084 36.7671 21.8338 36.7581 21.735C36.749 21.6362 36.6312 21.142 35.463 21.133C34.2949 21.124 33.288 21.3576 33.1702 21.6631C33.0524 21.9686 32.9255 22.6873 32.6899 23.3791C32.4543 24.0709 29.6186 30.324 28.8764 31.9502C28.4958 32.7768 28.1695 33.4416 27.9339 33.8908C27.8977 33.9627 27.8705 34.0076 27.8524 34.0436C27.8795 33.9987 27.8977 33.9537 27.8977 33.9717C27.6983 34.358 27.5805 34.5737 27.5805 34.5737V34.5826C27.4264 34.8701 27.2542 35.1307 27.1727 35.1307C27.1183 35.1307 27.0005 34.376 27.1999 33.3428C27.6258 31.1686 28.6317 27.7905 28.6227 27.6737C28.6136 27.6108 28.813 27.0268 27.9611 26.7123C27.1364 26.4158 26.8374 26.91 26.7649 26.91C26.6924 26.91 26.638 27.0897 26.638 27.0897C26.638 27.0897 27.5533 23.2803 24.8808 23.2803C23.2133 23.2803 20.8933 25.0951 19.7532 26.7393C19.0373 27.1256 17.4876 27.9612 15.8563 28.8506C15.231 29.192 14.5876 29.5424 13.9804 29.8748C13.9351 29.8299 13.8988 29.785 13.8535 29.7401C10.61 26.308 4.62155 23.8823 4.8753 19.2733C4.96592 17.5932 5.55498 13.1819 16.391 7.82717C25.2723 3.4428 32.3727 4.6467 33.5953 7.32405C35.3534 11.1424 29.799 18.249 20.5761 19.2733C17.0607 19.6596 15.2129 18.3119 14.7507 17.8088C14.2704 17.2787 14.1979 17.2518 14.0166 17.3506C13.7176 17.5123 13.9079 17.9795 14.0166 18.258C14.2885 18.9678 15.4213 20.2256 17.3507 20.8545C19.0454 21.4026 23.167 21.708 28.1505 19.7944C33.7493 17.6561 38.1075 11.6994 36.8297 6.71311C35.5283 1.64592 27.053 -0.0161869 19.0391 2.80491C14.264 4.48499 9.10023 7.12639 5.38552 10.5674C0.972984 14.6643 0.267015 18.2311 0.557015 19.7225C1.58923 25.0143 8.94617 28.4643 11.8906 31.0158C11.7456 31.0967 11.6096 31.1686 11.4828 31.2405C10.0065 31.9682 4.3977 34.8791 2.99392 37.9518C1.40798 41.4377 3.25673 43.9354 4.4702 44.2768C8.25742 45.319 12.1353 43.4412 14.2187 40.3596C16.3022 37.278 16.0494 33.253 15.0887 31.4201C15.0797 31.3932 15.0615 31.3752 15.0525 31.3483C15.4331 31.1237 15.8228 30.899 16.2125 30.6744C16.9638 30.2342 17.6978 29.8299 18.3413 29.4795C17.9788 30.4498 17.716 31.6178 17.58 33.3069C17.4169 35.2834 18.2416 37.844 19.311 38.8502C19.7822 39.2905 20.3522 39.2994 20.7057 39.2994C21.9563 39.2994 22.5182 38.2752 23.1426 37.0533C23.9129 35.5619 24.5926 33.828 24.5926 33.828C24.5926 33.828 23.7407 38.5178 26.0698 38.5178C26.9207 38.5178 27.7726 37.4307 28.1541 36.8737V36.8826C28.1541 36.8826 28.1723 36.8467 28.2176 36.7748C28.3082 36.6401 28.3535 36.5592 28.3535 36.5592V36.5323C28.6979 35.9483 29.4501 34.6096 30.582 32.3994C32.0501 29.5424 33.4539 25.9756 33.4539 25.9756C33.5895 26.7597 33.7772 27.534 34.0158 28.2936C34.2695 29.1471 34.8042 30.0815 35.2301 30.9889C34.8858 31.4561 34.6773 31.7256 34.6773 31.7256C34.678 31.7325 34.6812 31.7389 34.6864 31.7436C34.4145 32.103 34.1064 32.4893 33.7892 32.8666C32.6301 34.2323 31.2517 35.7955 31.0705 36.2448C30.853 36.7748 30.9073 37.1701 31.3242 37.4756C31.6323 37.7092 32.1761 37.7451 32.7461 37.7002C33.7883 37.6283 34.5224 37.3768 34.8758 37.2151C35.5274 36.9834 36.1432 36.6629 36.7055 36.2627C37.8383 35.4362 38.5271 34.2502 38.4636 32.6869C38.4274 31.8244 38.1465 30.9619 37.8021 30.1533C37.9018 30.0096 38.0105 29.8569 38.1102 29.7041C39.9037 27.1076 41.2902 24.2578 41.2902 24.2578C41.4259 25.0419 41.6136 25.8162 41.8521 26.5758C42.0696 27.3035 42.4946 28.1031 42.8843 28.8848C41.1996 30.2414 40.1574 31.8137 39.7949 32.8469C39.1243 34.7605 39.6499 35.623 40.6377 35.8207C41.0818 35.9105 41.7162 35.7039 42.1874 35.5062C42.8873 35.2751 43.5472 34.9388 44.144 34.509C45.2768 33.6824 46.3725 32.5234 46.3 30.9512C46.2728 30.2414 46.0734 29.5316 45.8106 28.8488C47.2334 28.2558 49.0813 27.9324 51.4375 28.2019C56.4835 28.7859 57.4713 31.9125 57.281 33.2152C57.0907 34.518 56.0304 35.2457 55.677 35.4613C55.3235 35.6769 55.2148 35.7578 55.242 35.9195C55.2873 36.1531 55.4504 36.1441 55.7495 36.0902C56.1663 36.0183 58.3948 35.0301 58.4945 32.6133C58.6395 29.5586 55.677 26.1984 50.4289 26.2254L50.4316 26.2272ZM11.5371 39.2276C9.87055 41.0334 7.53242 41.7162 6.52739 41.1412C5.44895 40.5195 5.87489 37.8619 7.93117 35.9375C9.1818 34.7695 10.794 33.6914 11.8634 33.0265C12.1081 32.8828 12.4615 32.6672 12.8965 32.4066C12.969 32.3617 13.0053 32.3437 13.0053 32.3437C13.0868 32.2898 13.1775 32.2449 13.2681 32.191C14.0194 34.9222 13.2953 37.3301 11.5371 39.2258V39.2276ZM23.7135 31.0158C23.1335 32.4264 21.911 36.0201 21.1679 35.8315C20.5335 35.6698 20.1438 32.9295 21.041 30.2342C21.4941 28.8776 22.4547 27.2604 23.0257 26.6315C23.9401 25.6162 24.946 25.2928 25.1816 25.6971C25.4988 26.2272 24.076 30.1354 23.7135 31.0158ZM33.7729 35.7776C33.5282 35.9033 33.3016 35.9842 33.1929 35.9213C33.1113 35.8764 33.2926 35.7057 33.2926 35.7057C33.2926 35.7057 34.5523 34.367 35.0507 33.7561C35.3407 33.3967 35.676 32.9744 36.0376 32.5073C36.0376 32.5522 36.0467 32.5971 36.0467 32.651C36.0349 34.2592 34.477 35.3463 33.7702 35.7776H33.7729ZM41.5286 34.0256C41.3473 33.8998 41.3745 33.4776 41.9817 32.1658C42.2173 31.6537 42.7602 30.7912 43.7036 29.9647C43.8104 30.2776 43.8684 30.6048 43.8758 30.935C43.8667 32.9565 42.4076 33.7112 41.5295 34.0256H41.5286Z" fill="#ACACAC"/>
</g>
<defs>
<clipPath id="clip0_2023_410">
<rect width="58" height="46" fill="white" transform="translate(0.5)"/>
</clipPath>
</defs>
</svg>
