<svg viewBox="0 0 512 512" fill="none" xmlns="http://www.w3.org/2000/svg">
<path d="M391.19 271C372.4 266.11 347.38 259 326.95 251C323.946 249.82 321.242 247.985 319.036 245.629C316.831 243.272 315.178 240.453 314.199 237.377C313.22 234.302 312.939 231.046 313.377 227.848C313.815 224.65 314.961 221.59 316.73 218.89C341.49 181 395 98.7904 436.72 33.1504C441.32 25.9104 431.63 18.1504 425.58 24.2404C380.21 69.8704 311.74 136.81 268.28 170.47C267.1 171.382 265.701 171.968 264.223 172.168C262.745 172.368 261.24 172.176 259.86 171.61C258.48 171.045 257.273 170.126 256.36 168.947C255.448 167.767 254.861 166.368 254.66 164.89C252.86 151.82 249.77 131.63 245.57 112.25C244.26 106.25 235.44 106.9 235.14 113.07C234.14 134.39 231.68 161.31 226.26 182.25C225.351 185.914 223.623 189.325 221.207 192.226C218.791 195.127 215.749 197.443 212.31 199C207.84 201 202.47 201.65 196.94 198.67C196.94 198.67 164.85 180.58 137.94 160.25C136.987 159.528 135.812 159.161 134.618 159.212C133.423 159.263 132.284 159.729 131.396 160.53C130.507 161.33 129.926 162.415 129.752 163.598C129.577 164.781 129.821 165.988 130.44 167.01C139.68 182.29 151.23 201.91 161.87 221.51C163.167 223.876 163.97 226.481 164.229 229.166C164.489 231.852 164.201 234.562 163.382 237.133C162.563 239.703 161.23 242.081 159.464 244.121C157.698 246.161 155.537 247.821 153.11 249C145.208 252.897 136.919 255.957 128.38 258.13C127.35 258.37 126.416 258.912 125.697 259.687C124.978 260.463 124.508 261.436 124.348 262.481C124.188 263.526 124.344 264.595 124.797 265.551C125.25 266.506 125.979 267.303 126.89 267.84C129.78 269.53 132.89 271.5 136.17 273.74C141.858 277.646 145.8 283.613 147.161 290.377C148.522 297.141 147.195 304.169 143.46 309.97C120.06 346.19 67.7903 425.87 25.6603 481.42C21.8603 486.42 28.4403 492.74 33.2903 488.71C81.7303 448.45 158.72 385.32 205.29 351.46C209.643 348.304 214.943 346.726 220.313 346.988C225.684 347.249 230.805 349.335 234.83 352.9C257.22 372.74 303.46 414.43 352.33 462.95C356.93 467.51 364.24 461.74 360.85 456.22C338.06 419 306.43 365.44 290.47 329C289.126 325.902 288.477 322.546 288.57 319.17C288.662 315.794 289.492 312.479 291.003 309.458C292.514 306.437 294.668 303.784 297.315 301.686C299.961 299.587 303.035 298.093 306.32 297.31C327.18 292.31 358.6 285.39 390.6 280.92C391.744 280.737 392.79 280.169 393.567 279.31C394.344 278.451 394.805 277.353 394.874 276.197C394.943 275.041 394.615 273.896 393.945 272.951C393.276 272.006 392.304 271.318 391.19 271Z" fill="white"/>
<path d="M39.06 285.12C42.9207 285.12 46.6947 283.975 49.9048 281.83C53.1148 279.685 55.6167 276.637 57.0942 273.07C58.5716 269.503 58.9582 265.578 58.205 261.792C57.4518 258.005 55.5927 254.527 52.8628 251.797C50.1328 249.067 46.6547 247.208 42.8682 246.455C39.0817 245.702 35.1569 246.089 31.5901 247.566C28.0232 249.043 24.9746 251.545 22.8298 254.755C20.6849 257.965 19.54 261.739 19.54 265.6C19.54 270.777 21.5966 275.742 25.2573 279.403C27.0699 281.215 29.2218 282.653 31.5901 283.634C33.9583 284.615 36.4966 285.12 39.06 285.12Z" fill="white"/>
<path d="M52.2104 64.1797C49.816 63.5351 47.2884 63.5775 44.9169 64.302C42.5453 65.0265 40.4256 66.4039 38.8002 68.2766C37.1747 70.1492 36.1092 72.4416 35.7255 74.8915C35.3418 77.3414 35.6554 79.8497 36.6304 82.1297C38.819 86.9734 41.7287 91.4576 45.2604 95.4297C55.8504 107.92 73.1604 118.43 85.5404 124.87C86.7231 125.489 88.0688 125.724 89.3914 125.545C90.7141 125.366 91.9483 124.78 92.9234 123.868C93.8985 122.957 94.5663 121.765 94.8345 120.458C95.1027 119.15 94.958 117.791 94.4204 116.57C88.8987 104.143 82.0738 92.3365 74.0604 81.3497C66.0704 70.4397 58.4204 65.8297 52.2104 64.1797Z" fill="white"/>
<path d="M486 269.3C481.942 267.569 477.648 266.457 473.26 266C459.79 264.35 443.36 267.69 432.18 270.69C431.127 270.987 430.191 271.6 429.498 272.447C428.805 273.294 428.389 274.333 428.306 275.424C428.223 276.515 428.478 277.605 429.035 278.547C429.592 279.489 430.424 280.237 431.42 280.69C441.771 285.15 452.564 288.502 463.62 290.69C474.62 292.86 481.86 291.37 486.62 288.88C488.394 287.901 489.864 286.451 490.866 284.69C491.869 282.929 492.365 280.925 492.301 278.9C492.237 276.875 491.615 274.906 490.503 273.212C489.391 271.518 487.833 270.164 486 269.3Z" fill="white"/>
</svg>
