<svg viewBox="0 0 512 512" fill="none" xmlns="http://www.w3.org/2000/svg">
<path d="M340.47 231.29C347.848 242.445 356.675 252.57 366.72 261.4C370.479 264.755 375.268 266.73 380.3 267C399.369 268.085 418.361 270.265 437.18 273.53C438.098 273.688 439.043 273.53 439.859 273.081C440.675 272.632 441.315 271.919 441.673 271.059C442.031 270.199 442.086 269.242 441.829 268.347C441.573 267.451 441.019 266.67 440.26 266.13C410.66 245.03 378.18 231.75 345.92 223.75C344.947 223.501 343.923 223.551 342.979 223.892C342.035 224.234 341.216 224.851 340.628 225.665C340.041 226.478 339.711 227.45 339.683 228.453C339.654 229.456 339.929 230.444 340.47 231.29Z" fill="white"/>
<path d="M19.7199 359C31.1099 418.83 79.9099 453 123.33 472C158.96 487.53 197.5 495.06 236.33 495.55C330.85 496.74 405 473.18 449.75 453.78C460.5 449.12 456.75 433.06 445.01 433.73C396.09 436.54 323.32 436.55 273.36 417.93C228.92 401.36 211.84 371.63 209.47 348.58C208.12 335.45 189.87 333.49 185.59 345.97C174.47 378.5 200 413.46 200 413.46L199.36 413.23C174.23 404.23 159.17 378.78 162.24 352.23C162.558 349.488 163.049 346.77 163.71 344.09C168.05 326.46 179.94 311.69 195.71 302.62C205.13 297.203 214.917 292.452 225 288.4C225.95 288.018 226.789 287.406 227.442 286.618C228.095 285.83 228.541 284.891 228.74 283.887C228.938 282.883 228.883 281.845 228.579 280.868C228.276 279.89 227.733 279.004 227 278.29C215.744 267.277 205.378 255.39 196 242.74C192.62 238.18 189.413 233.563 186.38 228.89C184.398 225.831 181.555 223.427 178.21 221.98C174.865 220.533 171.166 220.109 167.58 220.76C152.92 223.45 144.36 225.76 144.36 225.76C-1.79013 265.1 19.7199 359 19.7199 359Z" fill="white"/>
<path d="M489.23 346.15C422.74 329.06 377.67 297.2 377.67 297.2C334.43 267.2 315.98 237.64 308.85 213.95C296.77 173.82 335.09 136.08 374.85 149.36C387.75 153.66 399.58 160.66 408.96 167.31C413.66 170.64 419.42 164.82 416.1 160.12C397.43 133.69 375.75 122.85 375.75 122.85C304.05 85.0703 275 130.59 275 130.59C275.684 120.871 278.356 111.395 282.85 102.75C290.61 88.1503 306.46 79.7503 322.97 80.7503C341.47 81.8803 358.79 89.6503 371.08 96.7503C371.978 97.2764 373.03 97.4754 374.057 97.3134C375.085 97.1513 376.025 96.6382 376.717 95.8614C377.409 95.0846 377.81 94.0921 377.853 93.0526C377.895 92.0132 377.576 90.9911 376.95 90.1603C342.07 43.0003 295.33 27.0003 295.33 27.0003C283.668 22.6548 271.611 19.4499 259.33 17.4303C248.432 15.7302 237.298 16.3409 226.651 19.2228C216.004 22.1046 206.082 27.1932 197.529 34.1581C188.976 41.1231 181.983 49.8087 177.005 59.6514C172.026 69.494 169.173 80.2735 168.63 91.2903C162.37 208.53 262.48 280.89 262.48 280.89C362 361.72 449.07 362.59 488.6 357.07C489.875 356.888 491.048 356.27 491.919 355.322C492.79 354.374 493.307 353.153 493.381 351.868C493.455 350.582 493.082 349.311 492.326 348.269C491.569 347.226 490.476 346.478 489.23 346.15Z" fill="white"/>
<path d="M235.999 326.716C241.842 325.337 245.46 319.483 244.081 313.64C242.702 307.797 236.848 304.179 231.005 305.558C225.162 306.937 221.544 312.791 222.923 318.634C224.302 324.477 230.156 328.095 235.999 326.716Z" fill="white"/>
</svg>
