<svg width="23" height="22" viewBox="0 0 23 22" fill="none" xmlns="http://www.w3.org/2000/svg">
<path d="M21.081 13.5797C20.9688 13.5078 20.8556 13.4771 20.7635 13.4464L13.1913 10.9185C12.536 10.693 11.8299 10.8571 11.3493 11.3483C10.8581 11.8289 10.6941 12.5455 10.9195 13.1902L13.4474 20.7624C13.4781 20.8545 13.5194 20.9668 13.5702 21.0589C13.8772 21.6422 14.4912 22 15.1465 22H15.3105C16.0367 21.9386 16.62 21.4676 16.8455 20.7826L17.7866 17.9688C17.8173 17.8872 17.8682 17.8354 17.9507 17.8047L20.7644 16.8636C21.46 16.6382 21.931 16.0453 21.9924 15.3286C22.0538 14.612 21.6854 13.927 21.082 13.5989L21.081 13.5797Z" fill="black"/>
<path d="M12.6693 21.5405C12.5878 21.4071 12.5264 21.2335 12.4746 21.08L12.1474 20.087C11.8299 20.2914 11.5027 20.4247 11.1756 20.4554H11.002H10.8283H10.8178C9.48713 20.3221 8.09608 18.5828 7.30747 15.8611H10.7458L10.2345 14.3261H6.9602C6.776 13.3025 6.66376 12.1973 6.66376 11C6.66376 9.80272 6.77601 8.69754 6.9602 7.6739H15.0649C15.2289 8.56418 15.321 9.53601 15.3412 10.5596L16.8963 11.0815V11C16.8963 9.83342 16.8042 8.71768 16.6305 7.67389H19.854C20.2531 8.71768 20.4785 9.83342 20.4785 11C20.4785 11.4192 20.4478 11.8394 20.397 12.2481L21.1136 12.4832C21.2163 12.5139 21.4005 12.5753 21.6048 12.6981C21.6969 12.7489 21.7785 12.8103 21.861 12.8621C21.9636 12.2481 22.025 11.6341 22.025 11C22.025 5.08556 17.2158 0.152523 11.3829 0.0201465C11.2908 0.00959352 11.168 0 11.0653 0H11.0039C10.8811 0 10.7785 5.58098e-08 10.7478 0.0105531H10.7065H10.6864C4.76898 0.184197 0 5.0961 0 10.9904C0 16.8847 4.80926 21.8379 10.6422 21.9703C10.7544 21.9808 10.8772 21.9904 11 21.9904H11.2763C11.8183 21.9798 12.3508 21.929 12.8832 21.8369C12.8113 21.7342 12.7297 21.6527 12.6683 21.55L12.6693 21.5405ZM19.0951 6.12935H16.3014C15.9129 4.60494 15.3392 3.28486 14.6331 2.27178C16.4952 3.0594 18.0513 4.42074 19.0951 6.12935ZM10.8273 1.52443H11.001H11.1852C12.5158 1.65778 13.9069 3.3971 14.6955 6.11879H7.30748C8.0951 3.3971 9.48714 1.6568 10.8274 1.51387L10.8273 1.52443ZM7.36789 2.28231C6.6618 3.30595 6.09865 4.61547 5.71012 6.13031H2.91646C3.94969 4.43127 5.50578 3.07092 7.36789 2.28231ZM1.53499 10.9904C1.53499 9.82382 1.76044 8.70808 2.15954 7.6643H5.38298C5.20934 8.70808 5.11725 9.82382 5.11725 10.9904C5.11725 12.157 5.20935 13.2727 5.38298 14.3165H2.15954C1.76045 13.2727 1.53499 12.157 1.53499 10.9904ZM2.90686 15.8515H5.70051C6.08905 17.3759 6.66276 18.696 7.36885 19.709C5.50674 18.9214 3.95064 17.5601 2.90686 15.8515Z" fill="black"/>
</svg>
