<svg width="58" height="58" viewBox="0 0 58 58" fill="none" xmlns="http://www.w3.org/2000/svg">
<g clip-path="url(#clip0_2023_387)">
<path d="M6.98945 19.1898L18.4875 50.682C10.4445 46.7852 4.90508 38.5383 4.90508 29C4.90508 25.4996 5.65273 22.1918 6.98945 19.1898ZM45.2672 27.7879C45.2672 24.8086 44.2023 22.7469 43.2848 21.1383C42.0613 19.1559 40.9172 17.468 40.9172 15.4855C40.9172 13.2652 42.5937 11.2035 44.9613 11.2035C45.0633 11.2035 45.1652 11.2148 45.2785 11.2262C40.9852 7.29531 35.2758 4.89375 29 4.89375C20.5832 4.89375 13.1746 9.20977 8.85859 15.7574C9.425 15.7801 9.95742 15.7914 10.4105 15.7914C12.9254 15.7914 16.8336 15.4855 16.8336 15.4855C18.1363 15.4062 18.2836 17.3207 16.9922 17.468C16.9922 17.468 15.6895 17.6152 14.2395 17.6945L23.0187 43.7945L28.2977 27.9805L24.548 17.6945C23.2453 17.6152 22.0219 17.468 22.0219 17.468C20.7191 17.3887 20.8777 15.4062 22.1691 15.4855C22.1691 15.4855 26.1453 15.7914 28.5129 15.7914C31.0277 15.7914 34.9359 15.4855 34.9359 15.4855C36.2387 15.4062 36.3859 17.3207 35.0945 17.468C35.0945 17.468 33.7918 17.6152 32.3418 17.6945L41.0531 43.602L43.4547 35.5703C44.4742 32.2398 45.2672 29.8496 45.2672 27.7879ZM29.4191 31.107L22.1918 52.1207C24.3555 52.7551 26.6324 53.1062 29 53.1062C31.8094 53.1062 34.4941 52.6191 36.9977 51.7355C36.9297 51.6336 36.873 51.5203 36.8277 51.407L29.4191 31.107ZM50.1496 17.434C50.2516 18.2043 50.3082 19.0199 50.3082 19.9148C50.3082 22.3617 49.8551 25.1031 48.473 28.5469L41.1098 49.8324C48.2805 45.6523 53.0949 37.8926 53.0949 29C53.0949 24.8086 52.0301 20.8664 50.1496 17.434ZM57.0938 29C57.0938 44.4969 44.4855 57.0938 29 57.0938C13.5031 57.0938 0.90625 44.4855 0.90625 29C0.90625 13.5031 13.5031 0.90625 29 0.90625C44.4855 0.90625 57.0938 13.5031 57.0938 29ZM55.8023 29C55.8023 14.2168 43.7719 2.19766 29 2.19766C14.2168 2.19766 2.19766 14.2168 2.19766 29C2.19766 43.7832 14.2281 55.8023 29 55.8023C43.7832 55.8023 55.8023 43.7832 55.8023 29Z" fill="#ACACAC"/>
</g>
<defs>
<clipPath id="clip0_2023_387">
<rect width="58" height="58" fill="white"/>
</clipPath>
</defs>
</svg>
