<svg viewBox="0 0 512 512" fill="none" xmlns="http://www.w3.org/2000/svg">
<path d="M93.9196 145.52C94.7319 146.306 95.318 147.297 95.6165 148.387C95.9151 149.478 95.9152 150.628 95.6167 151.719C95.3183 152.809 94.7323 153.8 93.9201 154.586C93.1078 155.373 92.0992 155.927 90.9996 156.19L88.2896 156.83C87.1018 157.108 86.0203 157.725 85.1765 158.606C84.3327 159.488 83.7629 160.595 83.5362 161.794C83.3096 162.992 83.4359 164.231 83.8998 165.359C84.3638 166.488 85.1453 167.457 86.1496 168.15C102.6 179.53 134.62 202.47 171.89 233.41C174.002 235.168 176.69 236.081 179.436 235.974C182.182 235.867 184.791 234.747 186.76 232.83C204.593 215.45 221.926 198.943 238.76 183.31C240.813 181.402 242.069 178.789 242.276 175.995C242.484 173.2 241.628 170.43 239.88 168.24C226.074 151.129 213.225 133.268 201.39 114.74C200.543 113.388 199.297 112.332 197.825 111.717C196.353 111.103 194.726 110.96 193.169 111.309C191.613 111.658 190.202 112.481 189.133 113.665C188.064 114.849 187.388 116.336 187.2 117.92C187.01 119.41 186.85 120.92 186.72 122.52C186.636 123.613 186.25 124.662 185.604 125.548C184.958 126.434 184.079 127.123 183.064 127.538C182.049 127.953 180.939 128.078 179.857 127.898C178.776 127.718 177.766 127.241 176.94 126.52C155.83 108 102 62.4799 43.9096 25.6099C28.9996 16.1599 11.5796 33.3199 20.6696 48.4399C39.2196 79.3199 65.1996 117.67 93.9196 145.52Z" fill="white"/>
<path d="M465.38 435.91C456.14 423.856 448.102 410.928 441.38 397.31C429.255 372.755 412.898 350.529 393.06 331.65C375.99 315.41 353.06 293.05 328.41 267.65C326.408 265.577 323.679 264.361 320.799 264.261C317.919 264.16 315.112 265.181 312.97 267.11C296.09 282.27 281.18 296.11 268.79 307.78C266.65 309.795 265.397 312.576 265.305 315.514C265.213 318.451 266.29 321.305 268.3 323.45C301.94 359.34 333.23 399.01 355.58 440.16C359.42 447.23 370.18 444.25 369.82 436.21V435.56C369.756 434.183 370.07 432.814 370.727 431.602C371.383 430.39 372.358 429.38 373.546 428.68C374.734 427.981 376.09 427.618 377.469 427.633C378.848 427.647 380.196 428.036 381.37 428.76L476.96 487.35C487.77 493.97 499.72 480.71 492.01 470.65L465.38 435.91Z" fill="white"/>
<path d="M32.0001 452.37L112.91 409.93C113.695 409.518 114.572 409.311 115.459 409.328C116.346 409.346 117.214 409.587 117.982 410.031C118.75 410.474 119.394 411.104 119.854 411.862C120.313 412.621 120.573 413.484 120.61 414.37C120.65 415.373 120.976 416.344 121.55 417.168C122.124 417.992 122.922 418.635 123.85 419.02C124.777 419.405 125.796 419.516 126.785 419.341C127.774 419.165 128.691 418.71 129.43 418.03L194.61 358.03C200.097 352.967 204.814 347.128 208.61 340.7C211.934 335.089 215.967 329.93 220.61 325.35C236.09 310.01 275.94 271.26 328.92 225.22C397.65 165.49 435.28 117.22 435.28 117.22L489.43 53.5998C494.6 47.5198 487.51 38.8098 480.51 42.5998L442.74 63.2698C437.934 65.8881 432.34 66.67 427 65.4698C423.92 64.7604 420.725 64.7081 417.624 65.3163C414.522 65.9245 411.584 67.1796 409 68.9998C244 185.16 34.0001 421.42 20.0701 437.15C19.5898 437.705 19.1676 438.308 18.8101 438.95C14.1601 447.49 23.4001 456.88 32.0001 452.37Z" fill="white"/>
<path d="M166.6 84.5203C172.66 92.8603 185.98 86.8903 183.6 76.8503C182.09 70.4503 179.32 66.0503 176.12 63.0203C168.89 56.2103 157.23 63.9603 160.71 73.2603C162.152 77.2639 164.134 81.0521 166.6 84.5203Z" fill="white"/>
</svg>
