<svg xmlns="http://www.w3.org/2000/svg" viewBox="0 0 512 512"><path d="M93.92 145.52A6.31 6.31 0 0 1 91 156.19l-2.71.64a6.3 6.3 0 0 0-2.14 11.32c16.45 11.38 48.47 34.32 85.74 65.26a11.12 11.12 0 0 0 14.87-.58q26.75-26.07 52-49.52a11.11 11.11 0 0 0 1.12-15.07 596.9 596.9 0 0 1-38.49-53.5 7.71 7.71 0 0 0-14.19 3.18c-.19 1.49-.35 3-.48 4.6a5.91 5.91 0 0 1-9.78 4C155.83 108 102 62.48 43.91 25.61 29 16.16 11.58 33.32 20.67 48.44c18.55 30.88 44.53 69.23 73.25 97.08ZM465.38 435.91a232.91 232.91 0 0 1-24-38.6 233.13 233.13 0 0 0-48.32-65.66c-17.07-16.24-40-38.6-64.65-64a11.12 11.12 0 0 0-15.44-.54c-16.88 15.16-31.79 29-44.18 40.67a11.1 11.1 0 0 0-.49 15.67c33.64 35.89 64.93 75.56 87.28 116.71 3.84 7.07 14.6 4.09 14.24-3.95v-.65a7.58 7.58 0 0 1 11.55-6.8l95.59 58.59c10.81 6.62 22.76-6.64 15.05-16.7ZM32 452.37l80.91-42.44a5.26 5.26 0 0 1 7.7 4.44 5.26 5.26 0 0 0 8.82 3.66l65.18-60a76.54 76.54 0 0 0 14-17.33 75.93 75.93 0 0 1 12-15.35c15.48-15.34 55.33-54.09 108.31-100.13 68.73-59.73 106.36-108 106.36-108l54.15-63.62c5.17-6.08-1.92-14.79-8.92-11l-37.77 20.67a22.56 22.56 0 0 1-15.74 2.2A22.49 22.49 0 0 0 409 69C244 185.16 34 421.42 20.07 437.15a10.76 10.76 0 0 0-1.26 1.8c-4.65 8.54 4.59 17.93 13.19 13.42ZM166.6 84.52c6.06 8.34 19.38 2.37 17-7.67-1.51-6.4-4.28-10.8-7.48-13.83-7.23-6.81-18.89.94-15.41 10.24a46.81 46.81 0 0 0 5.89 11.26Z"/></svg>